<svg version="1.2" xmlns="http://www.w3.org/2000/svg" viewBox="0 0 64 48" width="64" height="48"><style>.a{fill:#006233}.b{fill:#fff;stroke:#fff;stroke-width:0}.c{fill:#fff;stroke:#fff;stroke-linecap:round;stroke-linejoin:round;stroke-width:.1}.d{fill:#fff}.e{fill:#fff;stroke:#000;stroke-width:.2}.f{fill:none;stroke:#f7c608;stroke-linecap:round;stroke-linejoin:round;stroke-width:.2}.g{fill:#f7c608}</style><path class="a" d="m64 0v48h-64v-48z"/><path fill-rule="evenodd" class="b" d="m26 24.9c-1 1.2-0.3 2.1 0.7 2.1 0.6 0.1 1.9-0.8 1.9-1.8l-0.3-0.2c0.2 0.5 0 0.7-0.5 1.1-0.8 0.7-2.6 0.7-1.8-1.2z"/><path fill-rule="evenodd" class="b" d="m33.4 28.2c5.3 0.2 7-4.5 3.7-8.5l-0.3 0.4c0.2 1.9 0.5 3.7 0.6 5.7-0.7 0.6-1.6 0.4-1.8-0.4 0-1-0.3-1.9-0.8-2.7l-0.3 0.4c0.3 0.7 0.7 1.5 0.7 2.3-1.5 1.7-3.2 2-2.5-0.2-1.2 1.9 0.6 3.3 2.6 0.4 0.5 2 2.2 0.7 2.3 0.3 0.2-1.3 0.1-3.4-0.3-5.1 1.5 2.3 1.5 4 0.7 5.1-0.8 1.3-2.7 1.8-4.6 2.3z"/><path fill-rule="evenodd" class="b" d="m36.4 23c-1.1 0-1.7-0.2-1.1-0.9 0.6-0.8 1.2-0.2 1.4 0.8 0.1 0.9-2 2.1-2.8 2.1-1.1 0-1.6-1.3-0.6-2.4-1.3 3.4 2.9 1.4 3.1 0.4zm-0.7-0.8c-0.2 0-0.3 0.2-0.2 0.2 0.2 0.2 0.5 0.1 0.5 0 0.1-0.1-0.2-0.2-0.3-0.2z"/><path fill-rule="evenodd" class="b" d="m30.3 24.6c-1.1 1.9 0 2.7 1.4 2.5 0.8-0.1 1.8-0.6 2.4-1.4 0-1.5 0-3.1-0.1-4.6 0.5-0.6-0.1-0.6-0.3-1.3-0.1 0.4-0.3 0.8-0.1 1.1q0.2 2.3 0.2 4.7c-1.1 0.8-1.9 1.1-2.5 1.1-1.2 0-1.5-1-1-2.1z"/><path fill-rule="evenodd" class="b" d="m32.5 25.1c0-1.5 0-3.1-0.2-4.2 0.6-0.5 0-0.6-0.2-1.2-0.1 0.4-0.3 0.8-0.1 1.1 0.1 1.5 0.2 3.1 0.2 4.7 0.1-0.1 0.3-0.1 0.3-0.4z"/><path fill-rule="evenodd" class="b" d="m28.7 24.7q0 0 0 0-0.1 0.2-0.3 0.4 0 0 0 0m1.3-0.3c1.1 0 2.4-0.2 2.3 1.3q-0.1 0.4-0.3 0.8-0.2 0.4-0.5 0.6-0.3 0.3-0.7 0.5-0.5 0.1-0.9 0.1c-1.3 0-2.4-1.1-1.3-3.2l0.2-0.2q0.2-0.4 0.6-0.9 0 0 0 0c-0.3-0.2-0.6-0.4-1-0.2 0.2-1 2.5-1.2 2.7-0.4-0.1 0.3-0.4 0.4-0.9 0.7 0.4 0 0.8-0.1 1.3-0.4 0-0.9 0-1.8-0.2-2.6-0.2-0.3 0.1-0.7 0.2-1.1 0.2 0.6 0.8 0.7 0.2 1.2 0.1 1 0.1 1.9 0.1 2.5-0.2 0.4-0.5 0.8-1.3 0.9-0.3 0-0.5-0.1-0.7-0.3q-0.4 0.2-0.8 0.6c0.3 0.1 0.6 0.1 1 0.1zm-0.6-1q0.2 0.1 0.4 0.3 0.2-0.1 0.4-0.2 0 0 0 0c-0.3-0.1-0.6-0.1-0.8-0.1zm-1.1 2.4c-0.2 0.8 0.8 1.6 1.7 1.5 0.9 0 1.9-0.6 2-1.6 0.1-0.8-1.2-0.7-1.7-0.7-0.8 0-1.3-0.1-1.6-0.3q-0.2 0.5-0.4 1.1zm0.5-1.5q-0.1 0.1-0.2 0.2v0.1c-0.2-0.1-0.3-0.3-0.4-0.5 0-0.2 0.2-0.4 0.2-0.5 0.2 0.3 0.3 0.5 0.4 0.6zm1.2-1.1q0.2-0.2 0.4-0.3c-0.2-0.2-0.7-0.1-0.8 0 0.1 0.1 0.3 0.2 0.4 0.3z"/><path fill-rule="evenodd" class="b" d="m30.4 20.6q0.1 0.1 0.1 0.2 0 0.1 0 0.1 0.1 0.1 0.1 0.2 0 0.1 0 0.2c-0.1 0.3-0.4 0.7-0.7 0.7-0.2 0-0.5-0.1-0.6-0.4-0.1 0-0.1-0.1-0.2-0.1-0.4 0.6-0.7 0.8-1 0.8-0.7 0-0.5-0.5-1.1-0.7-0.2 0-0.6 0.2-0.9 0.7-0.8 2.1-1.5 0-1.2-1 0 1 0.3 1.5 0.5 1.5 0.2 0 0.4-0.4 0.6-0.8 0.2-0.3 0.6-0.9 1.1-0.9 0.4 0 0.2 0.7 1 0.7q0.6 0 1.2-0.9c0.1 0 0.1 0.2 0.1 0.2 0.1 0.2 0.4 0.7 0.9 0.2 0-0.1 0-0.2-0.1-0.3z"/><path fill-rule="evenodd" class="b" d="m33.1 19.2q0 0 0 0 0 0.1-0.1 0.1c0-0.7 0.3-1.4 0.6-1.4 0.3 0 0.2 0.5 0.2 0.7-0.1 0.3-0.4 0.5-0.7 0.6 0 0.1 0 0.2 0 0.2q0-0.1-0.1-0.1-0.2 0.1-0.4 0c-0.5 0-0.7-0.2-0.9-0.5-0.8 0.5-1.5 0.7-2.1 0.7-0.7-0.1-1.4-0.3-1.7-1-0.1 0-0.1-0.1-0.1 0-1.2 2.4-1.5 0.2-1.4-0.4 0.1 0.4 0.1 1 0.4 1.1 0.4 0 0.7-1.1 1-1.1 0.1 0 0.2 0 0.2 0.1 0.3 0.4 0.5 0.8 1.6 0.8 0.7 0 1.3-0.1 1.8-0.3-0.1-0.3-0.4-0.2-0.7-0.2 0.1-0.4 0.4-0.6 1.1-0.6 0.5 0 0.8 0.1 0.9 0.4 0 0.2-0.3 0.3-0.6 0.4 0.2 0.2 0.5 0.4 1 0.2m-1.2-0.4q0 0 0 0 0.1-0.1 0.1-0.1 0 0 0.1 0 0 0 0.1 0c-0.2-0.3-0.4-0.2-0.7-0.1 0.1 0.1 0.3 0.1 0.4 0.2zm1.7-0.3c-0.3 0.2-0.3 0.3-0.3 0.6 0.3-0.2 0.3-0.3 0.3-0.6zm1.1 0.9c-0.1-0.2-0.2-0.3-0.2-0.5 0-0.5 0.4-0.7 0.8-0.7 0.3 0 0.6 0.2 1 0.3 0.3 0.1 0.7 0.1 1 0.2 0.2 0.1 0 0.3 0 0.4-1 0.3-1.6 0.8-2.2 0.9q-0.6 0-1-0.7c0-0.8 0-1.8-0.1-2.4 0.1-0.1 0.1-0.2 0.2-0.3q0.1 1.2 0.1 2.5c0.1 0.2 0.2 0.3 0.4 0.3zm1.9-0.4q-0.7-0.3-1.4-0.5c-0.4-0.1-0.5 0.2-0.4 0.5 0 0.3 0 0.6 0.5 0.5z"/><path fill-rule="evenodd" class="b" d="m34.8 19.6l0.1 0.3v-0.3"/><path fill-rule="evenodd" class="c" d="m26.8 22.8l0.2-0.2 0.3 0.2-0.2 0.2zm0.6 0l0.3-0.3 0.3 0.3-0.3 0.2zm-1.8-2.5l0.2-0.2 0.3 0.2-0.2 0.2zm0.1 0.7l0.2-0.2 0.3 0.2-0.2 0.2zm4.6 1.2l0.3-0.2 0.2 0.3-0.3 0.1zm-3.1-4.5l0.2-0.1 0.2 0.1-0.2 0.2zm0.4-0.1l0.2-0.1 0.2 0.1-0.2 0.1zm8.9 1.8l-0.1 0.1-0.2-0.1 0.2-0.1z"/><path fill-rule="evenodd" class="b" d="m29.1 23.8v0.3h0.5l0.3-0.3z"/><path fill-rule="evenodd" class="b" d="m33 18.9h0.1v0.3l-0.1 0.1z"/><path class="d" d="m32 32.6c5.2 0 9.4-3.8 9.4-8.5q-0.1-0.9-0.3-1.8-0.2-1-0.6-1.8-0.4-0.8-1-1.5-0.7-0.8-1.4-1.3 0.5 0.5 0.8 1 0.4 0.6 0.6 1.2 0.3 0.6 0.4 1.3 0.1 0.6 0.1 1.3c0 4-3.6 7.4-8 7.4-4.4 0-8-3.4-8-7.4 0-1.9 0.7-3.5 1.9-4.8q-0.8 0.5-1.4 1.2-0.6 0.8-1 1.6-0.4 0.9-0.6 1.8-0.3 0.9-0.3 1.8c0 4.7 4.2 8.5 9.4 8.5z"/><path class="e" d="m30.7 37.4c-2 0.9-4.6 0.7-6.8-0.6-0.1-0.1-0.1 0 0 0.2 0.2 0.7 0.4 1.1-0.3 2.1-0.3 0.4 0 0.4 0.5 0.4 2.7-0.2 5.2-0.8 6.5-1.2zm-0.1 1.1c-0.8 0.3-2.2 0.6-3.8 0.9-0.6 0.1-0.6 0.4 0.6 0.6 1.1 0.1 2.6-0.7 3.5-1.3z"/><path class="e" d="m32 36.4c0.3 0 0.8-0.1 1.3-0.1 1-0.2 0.3 1.2-1.3 1.2v0.4c1.6 0 3.3-1.6 2.9-2.3-0.5-1-1.8-0.1-2.9-0.1-1.1 0-2.4-0.9-2.9 0.1-0.4 0.7 1.3 2.3 2.9 2.3v-0.4c-1.6 0-2.3-1.4-1.3-1.2 0.5 0 1 0.1 1.3 0.1z"/><path class="e" d="m33.3 37.4c2 0.9 4.6 0.7 6.8-0.6 0.1-0.1 0.1 0 0 0.2-0.2 0.7-0.4 1.1 0.3 2.1 0.3 0.4 0 0.4-0.5 0.4-2.7-0.2-5.2-0.8-6.5-1.2zm0.1 1.1c0.8 0.3 2.2 0.6 3.8 0.9 0.6 0.1 0.6 0.4-0.6 0.6-1.1 0.1-2.6-0.7-3.5-1.3z"/><path class="e" d="m32.1 38.3c0 0.3 0.1 1.1 0.6 0.8 0.8-0.5 0.9-0.8 0.9-1.4 0-0.5-0.5-1.1-1.6-1.1-1.1 0-1.6 0.6-1.6 1.1 0 0.6 0.1 0.9 0.9 1.4 0.5 0.3 0.6-0.5 0.6-0.8 0.1-0.2 0.2-0.1 0.2 0z"/><path class="e" d="m31.3 10.9c-0.3-1.6-2.8-1.7-3.2-1.9-0.5-0.3-0.4 0-0.3 0.4 0.5 1.1 2.1 1.6 2.8 1.7 0.6 0.1 0.8 0.1 0.7-0.2z"/><path class="e" d="m32.1 11c0.3-1.7-2.3-2.4-2.6-2.8-0.3-0.4-0.4-0.1-0.2 0.3 0.3 1 1.4 2.1 2 2.4 0.6 0.3 0.7 0.4 0.8 0.1z"/><path class="e" d="m34.2 11.9c0.2-1.9-1.8-2.2-2.4-2.9-0.3-0.3-0.4-0.1-0.2 0.3 0.2 1 1.2 2.2 1.9 2.5 0.4 0.3 0.7 0.4 0.7 0.1z"/><path class="e" d="m33.5 11.5c-2.1-1.3-3.6-0.6-4.2-0.6-0.6-0.1-0.8 0.2 0.2 0.8 1.3 0.6 3 0.5 3.7 0.3 0.7-0.3 0.5-0.4 0.3-0.5zm3.3 0.8c-0.7-2.1-2.2-1.7-2.7-2-0.4-0.2-0.5-0.2-0.4 0.3 0.2 0.8 1.8 1.8 2.6 2 0.3 0.1 0.6 0.2 0.5-0.3z"/><path class="e" d="m36.5 12.7c-1.9-1.3-3.3-0.3-3.9-0.5-0.4-0.1-0.2 0.2 0 0.3 1.1 0.7 2.6 1.1 3.7 0.6 0.5-0.1 0.5-0.2 0.2-0.4zm3.9 1.4c0-1.4-3-1.9-3.6-2.7-0.4-0.5-0.7-0.3-0.5 0.5 0.3 1.1 2.3 2.2 3.5 2.4 0.6 0.1 0.6-0.1 0.6-0.2z"/><path class="e" d="m40.3 14.3c-1.9-1.6-3.5-1-4.1-1.2-0.5-0.1-0.8 0.2 0.1 0.8 1.2 0.8 2.9 1 3.6 0.8 0.8-0.1 0.6-0.3 0.4-0.4zm3.4 2.3c-0.5-2.3-2.2-2.7-2.6-3.2-0.4-0.4-0.9-0.3-0.5 0.7 0.4 1.3 1.8 2.3 2.5 2.6 0.7 0.3 0.7 0.1 0.6-0.1z"/><path class="e" d="m43.7 16.9c-1.4-2-3.2-2-3.7-2.3-0.6-0.3-1 0-0.2 0.9 0.8 1 2.5 1.6 3.3 1.7 0.8 0 0.7-0.2 0.6-0.3z"/><path class="e" d="m45.5 19.3c0.8-2.3-1-3.2-1.2-3.5-0.2-0.4-0.5-0.4-0.6 0-0.5 1.6 1.2 3.2 1.4 3.5 0.3 0.3 0.3 0.2 0.4 0z"/><path class="e" d="m45.1 19.9c-0.6-2.5-2.3-2.4-2.7-2.8-0.4-0.3-0.4-0.1-0.3 0.4 0.2 1.3 1.8 2.1 2.6 2.5 0.2 0.2 0.5 0.3 0.4-0.1zm1.6 3.1c1.2-2.5-0.2-4.1-0.6-4.5-0.4-0.3-0.7-0.5-0.6 0 0.2 0.8-0.4 2.7 0.6 4.1 0.3 0.5 0.4 0.9 0.6 0.4z"/><path class="e" d="m46.1 23.5c0.3-1.5-0.7-2.9-1.7-3.4-0.6-0.4-0.6-0.3-0.6 0.2 0 1.4 1.5 2.5 1.9 3.2 0.4 0.6 0.4 0.1 0.4 0z"/><path class="e" d="m45.8 27.3c-0.8-2.8 1-4.4 1.5-4.7 0.5-0.4 0.8-0.5 0.6 0-0.3 0.8 0 3-1.3 4.4-0.4 0.5-0.6 1-0.8 0.3z"/><path class="e" d="m46 26.7c0.7-2.4-0.8-3.8-1.3-4.1-0.4-0.3-0.7-0.4-0.5 0.1 0.3 0.6 0 2.6 1.2 3.8 0.3 0.4 0.5 0.8 0.6 0.2z"/><path class="e" d="m45.2 25.6c-1.3 1.2-1.3 3-0.8 4.1 0.4 0.6 0.4 0.6 0.8 0.1 0.9-1.3 0.3-3.2 0.4-4 0-0.8-0.3-0.4-0.4-0.2z"/><path class="e" d="m47.2 27.5c0 1.7-1.1 3.1-2.3 3.6-0.7 0.2-0.7 0.1-0.6-0.4 0.3-1.9 1.9-2.6 2.5-3.2 0.6-0.6 0.4-0.1 0.4 0z"/><path class="e" d="m42.9 32.6c2-1.7 0.9-2.9 1-4 0.1-0.6-0.2-0.4-0.4-0.2-1.3 1.1-1.4 3.2-1.1 4 0.1 0.4 0.3 0.4 0.5 0.2z"/><path class="e" d="m45.7 31.5c-0.7 1.9-2.5 3-4.1 3.1-0.9 0-0.8 0-0.5-0.6 1.1-2 3.2-2.2 4.1-2.7 0.8-0.5 0.5 0 0.5 0.2z"/><path class="e" d="m40 35c2.7-1.2 2.2-3.2 2.7-3.7 0.3-0.4-0.1-0.4-0.3-0.2-1.6 0.8-2.8 2.1-2.9 3.5 0 0.6 0.1 0.6 0.5 0.4z"/><path class="e" d="m36.4 37.3c3.4 0.5 4.9-1.8 5.9-2.1 0.5-0.1 0.2-0.3-0.1-0.3-2.2-0.2-5.1 0.7-6 1.8-0.3 0.4-0.3 0.5 0.2 0.6z"/><path class="e" d="m39.8 33.6c-0.7 2.1-3.2 3.7-5.1 3.9-0.9 0-0.9-0.1-0.6-0.6 1.6-2.5 4.2-2.9 5.1-3.6 0.8-0.5 0.7 0.1 0.6 0.3zm-7.1-22.7c0.3-1.6 2.8-1.7 3.2-1.9 0.5-0.3 0.4 0 0.3 0.4-0.5 1.1-2.1 1.6-2.8 1.7-0.6 0.1-0.8 0.1-0.7-0.2z"/><path class="e" d="m31.9 11c-0.3-1.7 2.3-2.4 2.6-2.8 0.3-0.4 0.4-0.1 0.2 0.3-0.3 1-1.4 2.1-2 2.4-0.6 0.3-0.7 0.4-0.8 0.1z"/><path class="e" d="m29.8 11.9c-0.2-1.9 1.8-2.2 2.4-2.9 0.3-0.3 0.4-0.1 0.2 0.3-0.2 1-1.2 2.2-1.9 2.5-0.4 0.3-0.7 0.4-0.7 0.1z"/><path class="e" d="m30.5 11.5c2.1-1.3 3.6-0.6 4.2-0.6 0.6-0.1 0.8 0.2-0.2 0.8-1.3 0.6-3 0.5-3.7 0.3-0.7-0.3-0.5-0.4-0.3-0.5zm-3.3 0.8c0.7-2.1 2.2-1.7 2.7-2 0.4-0.2 0.5-0.2 0.4 0.3-0.2 0.8-1.8 1.8-2.6 2-0.3 0.1-0.6 0.2-0.5-0.3z"/><path class="e" d="m27.5 12.7c1.9-1.3 3.3-0.3 3.9-0.5 0.4-0.1 0.2 0.2 0 0.3-1.1 0.7-2.6 1.1-3.7 0.6-0.5-0.1-0.5-0.2-0.2-0.4zm-3.9 1.4c0-1.4 3-1.9 3.6-2.7 0.4-0.5 0.7-0.3 0.5 0.5-0.3 1.1-2.3 2.2-3.5 2.4-0.6 0.1-0.6-0.1-0.6-0.2z"/><path class="e" d="m23.7 14.3c1.9-1.6 3.5-1 4.1-1.2 0.5-0.1 0.8 0.2-0.1 0.8-1.2 0.8-2.9 1-3.6 0.8-0.8-0.1-0.6-0.3-0.4-0.4zm-3.4 2.3c0.5-2.3 2.2-2.7 2.6-3.2 0.4-0.4 0.9-0.3 0.5 0.7-0.4 1.3-1.8 2.3-2.5 2.6-0.7 0.3-0.7 0.1-0.6-0.1z"/><path class="e" d="m20.3 16.9c1.4-2 3.2-2 3.7-2.3 0.6-0.3 1 0 0.2 0.9-0.8 1-2.5 1.6-3.3 1.7-0.8 0-0.7-0.2-0.6-0.3z"/><path class="e" d="m18.5 19.3c-0.8-2.3 1-3.2 1.2-3.5 0.2-0.4 0.5-0.4 0.6 0 0.5 1.6-1.2 3.2-1.4 3.5-0.3 0.3-0.3 0.2-0.4 0z"/><path class="e" d="m18.9 19.9c0.6-2.5 2.3-2.4 2.7-2.8 0.4-0.3 0.4-0.1 0.3 0.4-0.2 1.3-1.8 2.1-2.6 2.5-0.2 0.2-0.5 0.3-0.4-0.1zm-1.6 3.1c-1.2-2.5 0.2-4.1 0.6-4.5 0.4-0.3 0.7-0.5 0.6 0-0.2 0.8 0.4 2.7-0.6 4.1-0.3 0.5-0.4 0.9-0.6 0.4z"/><path class="e" d="m17.9 23.5c-0.3-1.5 0.7-2.9 1.7-3.4 0.6-0.4 0.6-0.3 0.6 0.2 0 1.4-1.5 2.5-1.9 3.2-0.4 0.6-0.4 0.1-0.4 0z"/><path class="e" d="m18.2 27.3c0.8-2.8-1-4.4-1.5-4.7-0.5-0.4-0.8-0.5-0.6 0 0.3 0.8 0 3 1.3 4.4 0.4 0.5 0.6 1 0.8 0.3z"/><path class="e" d="m18 26.7c-0.7-2.4 0.8-3.8 1.3-4.1 0.4-0.3 0.7-0.4 0.5 0.1-0.3 0.6 0 2.6-1.2 3.8-0.3 0.4-0.5 0.8-0.6 0.2z"/><path class="e" d="m18.8 25.6c1.3 1.2 1.3 3 0.8 4.1-0.4 0.6-0.4 0.6-0.8 0.1-0.9-1.3-0.3-3.2-0.4-4 0-0.8 0.3-0.4 0.4-0.2z"/><path class="e" d="m16.8 27.5c0 1.7 1.1 3.1 2.3 3.6 0.7 0.2 0.7 0.1 0.6-0.4-0.3-1.9-1.9-2.6-2.5-3.2-0.6-0.6-0.4-0.1-0.4 0z"/><path class="e" d="m21.1 32.6c-2-1.7-0.9-2.9-1-4-0.1-0.6 0.2-0.4 0.4-0.2 1.3 1.1 1.4 3.2 1.1 4-0.1 0.4-0.3 0.4-0.5 0.2z"/><path class="e" d="m18.3 31.5c0.7 1.9 2.5 3 4.1 3.1 0.9 0 0.8 0 0.5-0.6-1.1-2-3.2-2.2-4.1-2.7-0.8-0.5-0.5 0-0.5 0.2z"/><path class="e" d="m24 35c-2.7-1.2-2.2-3.2-2.7-3.7-0.3-0.4 0.1-0.4 0.3-0.2 1.6 0.8 2.8 2.1 2.9 3.5 0 0.6-0.1 0.6-0.5 0.4z"/><path class="e" d="m27.6 37.3c-3.4 0.5-4.9-1.8-5.9-2.1-0.5-0.1-0.2-0.3 0.1-0.3 2.2-0.2 5.1 0.7 6 1.8 0.3 0.4 0.3 0.5-0.2 0.6z"/><path class="e" d="m24.2 33.6c0.7 2.1 3.2 3.7 5.1 3.9 0.9 0 0.9-0.1 0.6-0.6-1.6-2.5-4.2-2.9-5.1-3.6-0.8-0.5-0.7 0.1-0.6 0.3z"/><path fill-rule="evenodd" class="a" d="m36 12.9q0 0-0.1 0 0.1 0 0.1 0zm0 0c-0.6-0.2-1.8 0.1-2.4-0.3 0.3 0.2 1.9 0 2.4 0.3zm1.2-0.7c0.3 0.5 2.4 0.9 2.7 1.4-0.5-0.6-2.2-0.4-2.7-1.4zm2.4 2.1c-1.1-0.6-1.8 0.3-3.1-0.8 0.6 0.4 2.4 0.1 3.1 0.8zm-4.5-3c0.5 0.2 1.1 0.4 1.4 1-0.3-0.4-1-0.6-1.5-0.9q0.1-0.1 0.1-0.1zm7.7 4.4c-0.3-0.6-1.2-0.8-1.5-1.6 0.1 0.2 1.2 0.9 1.5 1.6zm-2.7-0.6c0.6 0.5 2.1 0.4 3 1.7-0.9-0.9-2.5-1.2-3-1.7zm5.2 3.8q0 0 0-0.1 0 0.1 0 0.1zm0-0.1c0-0.5-1.2-1.8-1.2-2.7 0.1 0.8 1.2 1.3 1.2 2.7zm-0.6 0.9c-0.2-0.7-2.1-1.4-2.1-2.1 0.3 0.7 1.9 0.8 2.1 2.1zm1.3-0.8q0 0.1 0 0.1 0 0 0-0.1zm0.6 3.5c-0.4-0.8-0.2-2.7-0.6-3.4 0.8 0.9 0.3 2.3 0.6 3.4zm-2 0.6c1.2 1.1 0.8 2.4 1.2 3-0.5-0.8-0.5-2.3-1.2-3zm1.2 3.1q0 0 0.1 0.1-0.1-0.1-0.1-0.1zm0.5 0.5c0.5-0.7-0.1-2.4 1-3.5-0.5 0.8-0.4 2.9-1 3.5zm-1.9-6.1c0.1 0.7 1.4 1.4 1.5 2.6-0.3-0.8-1.7-1.9-1.5-2.6zm0.8 5.6c0.2 0.9-0.5 2.8-0.3 3.4-0.5-1 0.5-2.9 0.3-3.3zm1.7 2c-0.5 1.5-1.5 1.4-1.9 2.4 0.3-0.9 1.6-1.7 1.9-2.4zm-4 3.7c0.5-0.8 0-2 0.7-3-0.4 0.8 0.1 2.2-0.7 3zm2.3-0.1q0 0-0.1 0.1 0-0.1 0.1-0.1zm-3.2 2.2c0.6-1.2 2.5-1.4 3.1-2.1-0.9 1.2-2.5 1.1-3.1 2.1zm-1.9 0.5c1.1-1 0.7-2 2.1-2.9-0.8 0.7-0.7 1.9-2.1 2.9zm1.4 0.8q0 0 0 0 0 0 0 0zm0 0c-1.2 0.3-3.4 1.7-4.6 1.5 1.2 0.1 3.2-1.5 4.6-1.5zm-2.2-1.5q-0.1 0-0.1 0 0 0 0.1 0zm-4.2 3c0.4-1.2 3.7-2 4.1-3-0.1 1.3-3.7 2.1-4.1 3zm-4.1-27q0 0 0 0 0 0 0 0zm0 0c-0.1 0-0.1 0.1-0.2 0.1-0.5-0.4-0.9-0.7-1-1.2 0.1 0.4 0.7 0.7 1.2 1.1zm-0.8 0.3c-0.1 0.1-0.2 0.1-0.3 0.1-0.6-0.2-1.4-0.4-1.7-0.8 0.4 0.4 1.2 0.4 2 0.7zm-2.2 2.8q0.1 0 0.1 0 0 0 0 0zm2.4-0.4c-0.6 0.5-1.9 0.2-2.4 0.4 0.4-0.3 2.1-0.2 2.4-0.4zm-6.4 1.1c0.4-0.5 2.4-0.9 2.7-1.4-0.5 0.9-2.1 0.8-2.7 1.4zm0.3 0.7c0.8-0.7 2.6-0.4 3.1-0.8-1.2 1-1.9 0.2-3.1 0.8zm3.1-2c0.5-0.9 1.7-1 2.1-1.5-0.5 0.8-1.6 0.9-2.1 1.5zm3.6-0.8c1.3-0.5 2.6 0 3.2-0.3-0.7 0.4-2.5 0.2-3.1 0.3zm-9.9 4.2c0.3-0.7 1.3-1.4 1.4-1.6-0.3 0.8-1.2 1-1.4 1.6zm-0.3 1.1c0.9-1.4 2.4-1.2 3-1.7-0.5 0.5-2.2 0.8-3 1.7zm-2.2 2q0 0 0 0.1 0-0.1 0-0.1zm1.2-2.7c0 0.9-1.2 2.2-1.2 2.7-0.1-1.4 1.1-1.9 1.2-2.7zm-0.6 3.5c0.2-1.2 1.8-1.3 2.1-2 0 0.7-1.9 1.4-2.1 2zm-1.9 2.7c0.3-1-0.3-2.4 0.6-3.4-0.4 0.7-0.2 2.7-0.6 3.4zm2 0.6c-0.7 0.8-0.7 2.3-1.2 3.1 0.3-0.6 0-1.9 1.2-3.1zm-1.3 3.2q0 0 0.1-0.1 0 0.1-0.1 0.1zm-1.4-3c1.1 1.1 0.5 2.7 1 3.5-0.6-0.7-0.5-2.7-1-3.5zm1.4 0c0.1-1.3 1.4-1.9 1.5-2.6 0.2 0.7-1.2 1.7-1.5 2.6zm0.7 3c-0.2 0.4 0.8 2.3 0.3 3.3 0.2-0.5-0.5-2.4-0.3-3.3zm0.2 4.4c-0.4-0.9-1.4-0.8-1.9-2.4 0.3 0.7 1.6 1.5 1.9 2.4zm1.4-1.7c0.7 1.1 0.2 2.3 0.7 3-0.8-0.7-0.3-2.1-0.7-3zm-1.6 2.9q0 0 0 0.1 0-0.1 0-0.1zm0 0.1c0.6 0.7 2.5 0.9 3.2 2.2-0.7-1-2.3-0.9-3.2-2.2zm3-0.3c1.4 0.9 1 1.9 2.1 2.9-1.4-1-1.3-2.1-2.1-2.9zm0.7 3.7c1.4 0 3.4 1.7 4.6 1.5-1.2 0.3-3.5-1.2-4.6-1.5zm2.2-1.5q0 0 0 0.1 0 0 0-0.1zm0 0.1c0.6 1 3.7 1.8 4.2 3-0.4-0.9-4-1.7-4.2-3zm5.4-22.2c0.2-1.2 1.7-1.4 1.8-2.1 0 0.7-1.7 1.6-1.8 2.1zm4.1-2.9c-0.2 0.9-1.7 1.4-1.9 2 0-0.9 1.6-1.4 1.9-2zm-1.2 2.1q0 0 0-0.1 0 0.1 0 0.1zm2.8-1.4c-0.4 0.7-2.2 0.7-2.8 1.3 0.8-1 2.2-0.7 2.8-1.3z"/><path fill-rule="evenodd" class="f" d="m43 24c0 5.6-4.9 10-11 10-6.1 0-11.1-4.4-11.1-10 0-5.5 5-10 11.1-10 6.1 0 11 4.5 11 10z"/><path class="g" d="m29.8 34.1l-0.1 0.1q0 0.1-0.2 0.1l-0.8-0.2 0.3-0.8 0.8 0.2c0.1 0 0.1 0.1 0.1 0.2v0.1m-1.9-0.5v-0.1c0-0.1 0.1-0.1 0.2-0.1q0.1 0 0.2 0 0.1 0.1 0.2 0.1 0.1 0 0.2 0.1 0.1 0 0.2 0l-0.3 0.8q-0.4-0.1-0.7-0.2c-0.1-0.1-0.1-0.2-0.1-0.3"/><path class="a" d="m29.6 34v0.1c0 0-0.1 0.1-0.2 0l-0.6-0.1 0.2-0.6c0.2 0.1 0.4 0.1 0.6 0.2q0.1 0 0.1 0.1v0.1m-1.6-0.4l0.1-0.1q0-0.1 0.1-0.1 0.3 0.1 0.7 0.2l-0.2 0.6q-0.1 0-0.2-0.1-0.1 0-0.1 0-0.1 0-0.2 0-0.1-0.1-0.2-0.1c0 0-0.1-0.2 0-0.2"/><path class="g" d="m26.8 33.1l-0.1 0.1q-0.1 0.1-0.2 0c-0.2-0.1-0.5-0.2-0.7-0.3l0.4-0.7q0.1 0 0.2 0.1 0.1 0 0.2 0.1 0.1 0 0.2 0.1 0.1 0 0.1 0c0.1 0.1 0.2 0.2 0.1 0.2l-0.1 0.1m-1.6-0.9v-0.1c0.1-0.1 0.2-0.1 0.3-0.1q0.2 0.2 0.6 0.5l-0.4 0.7q-0.1-0.1-0.2-0.1-0.1-0.1-0.2-0.1-0.1-0.1-0.2-0.1 0-0.1-0.1-0.2c-0.1 0-0.1-0.2 0-0.3"/><path class="a" d="m26.7 33l-0.1 0.1q-0.1 0-0.2 0c-0.2-0.1-0.4-0.2-0.6-0.3l0.4-0.5c0.2 0.1 0.4 0.2 0.6 0.3q0.1 0 0 0.1v0.1m-1.4-0.8v-0.1q0.1 0 0.2 0 0.1 0.1 0.1 0.1 0.1 0.1 0.2 0.1 0.1 0 0.1 0.1 0.1 0 0.2 0.1l-0.4 0.5q-0.3-0.2-0.5-0.4c-0.1 0-0.1-0.2 0-0.2"/><path class="g" d="m24.2 31.4l-0.1 0.1q-0.1 0-0.3 0c-0.1-0.2-0.3-0.4-0.5-0.6l0.6-0.5c0.2 0.2 0.5 0.4 0.6 0.5 0.1 0.1 0.1 0.2 0 0.2l-0.1 0.1m-1.3-1.3l0.1-0.1c0.1-0.1 0.2-0.1 0.2 0q0.1 0.1 0.2 0.1 0 0.1 0.1 0.2 0 0.1 0.1 0.1 0.1 0.1 0.1 0.2l-0.6 0.5q-0.3-0.3-0.5-0.6c-0.1-0.1 0-0.2 0.1-0.3"/><path class="a" d="m24.1 31.2l-0.1 0.1q-0.1 0.1-0.2 0l-0.4-0.5 0.5-0.4q0 0.1 0.1 0.2 0 0 0.1 0.1 0 0 0.1 0.1 0.1 0 0.1 0.1 0.1 0.1 0 0.2h-0.1m-1-1.1v-0.1q0.1 0 0.2 0 0.2 0.3 0.5 0.5l-0.5 0.4-0.5-0.5c0 0 0-0.1 0.1-0.2"/><path class="g" d="m22.2 29.1h-0.1c-0.1 0.1-0.2 0-0.3 0l-0.3-0.7 0.8-0.4c0.1 0.3 0.3 0.5 0.4 0.7q0 0.1-0.1 0.2h-0.1m-0.8-1.6h0.1q0.1-0.1 0.2 0 0 0.1 0.1 0.2 0 0.1 0 0.2 0.1 0.1 0.1 0.2 0.1 0.1 0.1 0.1l-0.8 0.4q0-0.1-0.1-0.2 0-0.1-0.1-0.2 0 0-0.1-0.1 0-0.1 0-0.2c-0.1-0.1 0.1-0.2 0.2-0.3"/><path class="a" d="m22.2 28.9l-0.1 0.1q-0.1 0-0.2-0.1l-0.3-0.6 0.6-0.2q0 0.1 0.1 0.1 0 0.1 0 0.2 0.1 0 0.1 0.1 0.1 0.1 0.1 0.1 0 0.2 0 0.2h-0.1m-0.7-1.3h0.1q0.1-0.1 0.1 0 0.1 0.1 0.1 0.2 0 0 0 0.1 0.1 0.1 0.1 0.1 0 0.1 0.1 0.2l-0.6 0.2q0 0-0.1-0.1 0-0.1 0-0.2-0.1 0-0.1-0.1 0-0.1-0.1-0.1c0-0.1 0.1-0.2 0.2-0.2"/><path class="g" d="m21.1 26.4h-0.2q0 0-0.1 0 0 0 0-0.1 0 0-0.1 0 0 0 0 0l-0.1-0.8 0.8-0.1q0.1 0.1 0.1 0.2 0 0.1 0 0.2 0 0.1 0.1 0.1 0 0.1 0 0.2 0 0.2-0.1 0.2h-0.2m-0.3-1.7l0.2-0.1c0.1 0 0.2 0.1 0.2 0.2q0 0.3 0 0.7l-0.8 0.1q-0.1-0.1-0.1-0.2 0-0.1 0-0.2 0-0.1 0-0.1 0-0.1 0-0.2c0-0.1 0.1-0.2 0.2-0.2"/><path class="a" d="m21.1 26.2h-0.1q-0.1 0-0.2-0.1l-0.1-0.6 0.6-0.1q0 0.1 0 0.2 0.1 0 0.1 0.1 0 0.1 0 0.2 0 0 0.1 0.1 0 0.1-0.1 0.2h-0.1m-0.3-1.5h0.1q0.1 0 0.2 0.1 0 0.3 0 0.6l-0.6 0.1q-0.1-0.3-0.1-0.6c0-0.1 0.1-0.2 0.2-0.2"/><path class="g" d="m20.8 23.5l-0.2-0.1c-0.1 0-0.1 0-0.1-0.1 0-0.2 0-0.5 0.1-0.8l0.8 0.1q0 0.1 0 0.2 0 0.1 0 0.2 0 0.1 0 0.2 0 0.1 0 0.2-0.1 0.1-0.2 0.1h-0.1m0.2-1.8h0.2q0.1 0.1 0.1 0.2 0 0.1 0 0.2-0.1 0.1-0.1 0.2 0 0.1 0 0.2 0 0-0.1 0.1l-0.8-0.1q0-0.4 0.1-0.7c0-0.1 0.2-0.1 0.3-0.1"/><path class="a" d="m20.8 23.3h-0.1q-0.1 0-0.1-0.1l0.1-0.7 0.6 0.1q0 0.1 0 0.2 0 0.1 0 0.1 0 0.1 0 0.2 0 0.1 0 0.1-0.1 0.2-0.2 0.1h-0.1m0.2-1.4h0.2c0 0 0.1 0 0.1 0.1q-0.1 0.3-0.2 0.6l-0.6-0.1 0.1-0.6c0 0 0.1-0.1 0.2-0.1"/><path class="g" d="m21.4 20.6l-0.1-0.1q-0.2 0-0.1-0.2c0.1-0.2 0.2-0.4 0.3-0.6l0.8 0.3q-0.1 0.1-0.1 0.2 0 0-0.1 0.1 0 0.1 0 0.2-0.1 0.1-0.1 0.2c0 0.1-0.1 0.1-0.2 0.1l-0.1-0.1m0.8-1.6h0.1c0.1 0.1 0.1 0.1 0.1 0.2q-0.1 0.1-0.1 0.2-0.1 0.1-0.1 0.2-0.1 0-0.1 0.1-0.1 0.1-0.1 0.2l-0.8-0.4q0.2-0.3 0.4-0.6c0-0.1 0.2-0.1 0.3-0.1"/><path class="a" d="m21.5 20.5l-0.1-0.1c-0.1 0-0.1-0.1-0.1-0.1l0.3-0.6 0.6 0.2q-0.1 0.1-0.1 0.2 0 0.1-0.1 0.1 0 0.1 0 0.2 0 0-0.1 0.1 0 0.1-0.1 0.1h-0.1m0.7-1.4h0.1q0 0.1 0 0.2 0 0.1-0.1 0.1 0 0.1-0.1 0.2 0 0 0 0.1-0.1 0.1-0.1 0.1l-0.6-0.2q0.2-0.3 0.3-0.6c0.1 0 0.2 0 0.2 0"/><path class="g" d="m22.9 18l-0.1-0.1q-0.1-0.1-0.1-0.2c0.2-0.1 0.4-0.4 0.6-0.6l0.6 0.6q0 0-0.1 0.1-0.1 0.1-0.1 0.2-0.1 0-0.1 0.1-0.1 0.1-0.2 0.2 0 0 0 0 0 0-0.1 0 0 0 0 0-0.1 0-0.1 0l-0.1-0.1m1.3-1.4l0.1 0.1q0.1 0.1 0 0.2-0.1 0.1-0.1 0.2-0.1 0-0.2 0.1-0.1 0.1-0.1 0.1-0.1 0.1-0.2 0.2l-0.6-0.6q0.2-0.3 0.5-0.5c0.1-0.1 0.3 0 0.3 0"/><path class="a" d="m23 17.9h-0.1q0-0.1 0-0.2l0.5-0.5 0.4 0.4q0 0-0.1 0.1 0 0.1-0.1 0.1 0 0.1-0.1 0.2 0 0-0.1 0.1-0.1 0.1-0.2 0m1-1.2l0.1 0.1q0.1 0 0 0.1 0 0.1-0.1 0.1-0.1 0.1-0.1 0.2-0.1 0-0.1 0.1-0.1 0-0.2 0.1l-0.4-0.4q0.2-0.3 0.4-0.5c0.1 0 0.2 0 0.3 0.1"/><path class="g" d="m25.1 15.9l-0.1-0.1q0-0.1 0.1-0.2c0.2-0.1 0.4-0.3 0.6-0.4l0.5 0.7q-0.1 0-0.1 0.1-0.1 0-0.2 0.1-0.1 0-0.2 0.1-0.1 0-0.1 0.1-0.1 0-0.1 0 0 0-0.1 0 0 0 0 0 0 0-0.1-0.1m1.6-1l0.1 0.1c0.1 0.1 0 0.1 0 0.2q-0.4 0.1-0.8 0.3l-0.4-0.6q0.3-0.2 0.7-0.4c0.1 0 0.2 0 0.2 0.1"/><path class="a" d="m25.3 15.9l-0.1-0.1q0-0.1 0-0.2c0.2-0.1 0.4-0.2 0.6-0.3l0.4 0.5q-0.1 0-0.2 0 0 0.1-0.1 0.1-0.1 0.1-0.2 0.1 0 0.1-0.1 0.1-0.1 0.1-0.2 0v-0.1m1.3-0.8l0.1 0.1q0.1 0.1 0 0.1-0.1 0.1-0.2 0.1-0.1 0.1-0.1 0.1-0.1 0-0.2 0.1-0.1 0-0.1 0l-0.4-0.4 0.6-0.4c0.1 0 0.2 0.1 0.2 0.1"/><path class="g" d="m27.9 14.5v-0.1q-0.1-0.2 0.1-0.2l0.7-0.3 0.3 0.8q-0.1 0-0.2 0.1-0.1 0-0.2 0-0.1 0.1-0.2 0.1-0.1 0-0.2 0.1-0.1 0-0.2-0.1v-0.1m1.9-0.6v0.1c0 0.1 0 0.2-0.1 0.2q-0.1 0-0.2 0.1-0.1 0-0.2 0-0.1 0-0.2 0.1-0.1 0-0.2 0l-0.3-0.8q0.1 0 0.2 0 0.1-0.1 0.2-0.1 0.1 0 0.2 0 0.1 0 0.2-0.1c0.1 0 0.2 0.2 0.3 0.2"/><path class="a" d="m28.1 14.5l-0.1-0.1q0-0.1 0.1-0.2l0.7-0.2 0.2 0.6q-0.1 0-0.2 0-0.1 0.1-0.2 0.1 0 0-0.1 0-0.1 0.1-0.2 0.1-0.1 0-0.1-0.1h-0.1m1.6-0.5v0.1q0 0.1-0.1 0.2-0.3 0-0.6 0.1l-0.2-0.6q0.1 0 0.1 0 0.1 0 0.2 0 0.1-0.1 0.2-0.1 0.1 0 0.1 0c0.1 0 0.2 0.1 0.2 0.1"/><path class="g" d="m31 13.8v-0.1c0-0.1 0.1-0.2 0.2-0.2h0.8v0.8q-0.1 0-0.2 0-0.1 0-0.2 0-0.1 0-0.2 0-0.1 0-0.2 0.1-0.2-0.1-0.2-0.2v-0.1m2 0v0.1q0 0.1-0.2 0.2-0.1-0.1-0.2-0.1-0.1 0-0.2 0-0.1 0-0.2 0-0.1 0-0.2 0v-0.8q0.4 0 0.8 0c0.1 0 0.2 0.2 0.2 0.3"/><path class="a" d="m31.2 13.9v-0.2q0 0 0.1-0.1h0.7v0.6q-0.4 0-0.7 0c-0.1 0-0.1 0-0.1-0.1v-0.1m1.6 0v0.1q0 0.1-0.1 0.1-0.1 0-0.2 0-0.1 0-0.2 0 0 0-0.1 0-0.1 0-0.2 0v-0.6h0.7c0.1 0.1 0.1 0.2 0.1 0.2"/><path class="g" d="m34 14v-0.2q0.1-0.1 0.2-0.1l0.8 0.2-0.2 0.8q-0.1 0-0.2-0.1-0.1 0-0.2 0-0.1 0-0.2 0-0.1-0.1-0.2-0.1-0.2 0-0.1-0.2v-0.1m1.9 0.5v0.1c0 0.1-0.1 0.2-0.2 0.1q-0.1 0-0.2 0-0.1-0.1-0.2-0.1-0.1 0-0.2-0.1-0.1 0-0.2 0l0.2-0.8q0.5 0.1 0.8 0.2c0.1 0.1 0.1 0.2 0.1 0.3"/><path class="a" d="m34.1 14l0.1-0.1c0 0 0.1 0 0.1 0l0.7 0.1-0.2 0.6q-0.1-0.1-0.1-0.1-0.1 0-0.2 0-0.1 0-0.2 0-0.1-0.1-0.1-0.1-0.1 0-0.1-0.1v-0.1m1.6 0.4l-0.1 0.1c0 0.1 0 0.1-0.1 0.1q-0.1-0.1-0.2-0.1-0.1 0-0.1 0-0.1-0.1-0.2-0.1-0.1 0-0.2 0l0.2-0.6q0.4 0.1 0.7 0.2c0 0 0.1 0.2 0 0.2"/><path class="g" d="m37 14.9l0.1-0.1q0.1-0.1 0.2-0.1c0.2 0.2 0.5 0.3 0.7 0.4l-0.4 0.7q-0.1 0-0.2-0.1-0.1 0-0.2-0.1-0.1 0-0.2-0.1-0.1 0-0.2 0c0-0.1-0.1-0.2 0-0.3l0.1-0.1m1.6 1v0.1q-0.1 0-0.1 0 0 0 0 0.1-0.1 0-0.1 0 0 0-0.1-0.1 0 0-0.1-0.1-0.1 0-0.2-0.1-0.1 0-0.2-0.1 0 0-0.1-0.1l0.4-0.7q0.4 0.2 0.7 0.4c0.1 0.1 0.1 0.3 0 0.3"/><path class="a" d="m37.1 15l0.1-0.1q0.1 0 0.2 0c0.2 0.1 0.4 0.2 0.6 0.3l-0.4 0.5q0 0-0.1-0.1-0.1 0-0.2 0 0-0.1-0.1-0.1-0.1-0.1-0.2-0.1-0.1-0.1 0-0.2m1.4 0.8v0.1q-0.1 0-0.2 0-0.1-0.1-0.1-0.1-0.1-0.1-0.2-0.1-0.1-0.1-0.1-0.1-0.1 0-0.2-0.1l0.4-0.5 0.5 0.4c0.1 0 0.1 0.1 0 0.2"/><path class="g" d="m39.6 16.6l0.1-0.1q0.1-0.1 0.3 0l0.5 0.6-0.6 0.5q-0.1-0.1-0.2-0.1 0-0.1-0.1-0.2-0.1 0-0.1-0.1-0.1-0.1-0.2-0.1c-0.1-0.1-0.1-0.2 0-0.2l0.1-0.1m1.3 1.3l-0.1 0.1q0 0 0 0-0.1 0-0.1 0 0 0-0.1 0 0 0 0 0-0.1-0.1-0.1-0.2-0.1 0-0.2-0.1 0-0.1-0.1-0.2-0.1 0-0.1-0.1l0.7-0.5q0.2 0.3 0.5 0.5c0 0.1-0.1 0.3-0.1 0.3"/><path class="a" d="m39.7 16.7h0.1q0.1-0.1 0.2 0c0.1 0.1 0.3 0.3 0.4 0.4l-0.4 0.4q-0.1 0-0.1-0.1-0.1-0.1-0.2-0.1 0-0.1-0.1-0.1 0-0.1-0.1-0.1-0.1-0.1 0-0.2h0.1m1.1 1.1h-0.1q-0.1 0.1-0.2 0-0.1-0.1-0.1-0.1-0.1-0.1-0.1-0.1-0.1-0.1-0.1-0.2-0.1 0-0.1-0.1l0.4-0.4 0.5 0.5c0 0.1 0 0.2-0.1 0.2"/><path class="g" d="m41.6 18.9l0.1-0.1c0.1 0 0.2 0 0.3 0.1l0.3 0.7-0.8 0.3c-0.1-0.2-0.2-0.5-0.4-0.6q0-0.2 0.1-0.2l0.1-0.1m0.9 1.6l-0.1 0.1c-0.1 0-0.2 0-0.3-0.1q0-0.1 0-0.2-0.1-0.1-0.1-0.2 0 0-0.1-0.1 0-0.1-0.1-0.2l0.8-0.3q0.1 0 0.1 0.1 0.1 0.1 0.1 0.2 0.1 0.1 0.1 0.2 0 0.1 0.1 0.2c0 0-0.1 0.2-0.2 0.2"/><path class="a" d="m41.7 19q0.1 0 0.2 0.1l0.3 0.5-0.5 0.3q-0.1-0.1-0.1-0.2-0.1 0-0.1-0.1 0-0.1-0.1-0.2 0 0-0.1-0.1 0-0.1 0.1-0.1l0.1-0.1m0.7 1.4h-0.1q-0.1 0-0.2-0.1-0.1-0.2-0.2-0.5l0.5-0.3 0.3 0.6c0 0.1-0.1 0.1-0.1 0.2"/><path class="g" d="m42.8 21.6h0.1q0.1 0 0.1 0 0 0 0.1 0 0 0 0 0 0 0.1 0.1 0.1l0.1 0.7-0.9 0.2q0-0.1 0-0.2 0-0.1-0.1-0.2 0-0.1 0-0.2 0-0.1 0-0.2-0.1-0.1 0.1-0.1l0.1-0.1m0.3 1.8h-0.1q-0.2 0-0.2-0.1 0-0.1 0-0.2 0-0.1 0-0.2 0-0.1-0.1-0.2 0-0.1 0-0.2l0.9-0.1q0.1 0.4 0.1 0.8c0 0.1-0.2 0.1-0.2 0.2"/><path class="a" d="m42.8 21.7h0.1q0.1 0 0.2 0.1c0 0.2 0 0.4 0.1 0.6l-0.7 0.1q0 0 0-0.1 0-0.1 0-0.2 0 0-0.1-0.1 0-0.1 0-0.2 0-0.1 0.1-0.1h0.1m0.3 1.4l-0.1 0.1q-0.2 0-0.2-0.1 0-0.1 0-0.2 0-0.1 0-0.2 0 0 0-0.1 0-0.1-0.1-0.2l0.7-0.1q0 0.4 0.1 0.7c0 0-0.1 0.1-0.2 0.1"/><path class="g" d="m43.1 24.5h0.1q0.2 0 0.2 0.2l-0.1 0.7-0.8-0.1c0-0.3 0-0.5 0-0.7 0-0.1 0.1-0.2 0.2-0.2l0.1 0.1m-0.2 1.7h-0.2c-0.1 0-0.1-0.1-0.1-0.2q0.1-0.3 0.2-0.7l0.8 0.1q0 0.4-0.1 0.8c0 0-0.2 0.1-0.3 0.1"/><path class="a" d="m43.1 24.6h0.1q0.1 0.1 0.1 0.2l-0.1 0.6-0.6-0.1v-0.6c0-0.1 0.1-0.1 0.2-0.1m-0.1 1.5h-0.1q-0.2 0-0.1-0.2 0-0.2 0.1-0.6l0.6 0.1q0 0.1 0 0.2 0 0 0 0.1-0.1 0.1-0.1 0.2 0 0 0 0.1c0 0.1-0.2 0.1-0.2 0.1"/><path class="g" d="m42.5 27.4h0.1q0.2 0.1 0.1 0.2l-0.3 0.7-0.8-0.3q0.1-0.1 0.1-0.2 0-0.1 0.1-0.2 0-0.1 0.1-0.2 0 0 0-0.1c0.1-0.1 0.1-0.1 0.2-0.1h0.1m-0.7 1.7l-0.2-0.1q-0.1 0-0.1-0.2 0.2-0.2 0.4-0.6l0.8 0.3q0 0.1-0.1 0.2 0 0.1 0 0.1-0.1 0.1-0.1 0.2-0.1 0.1-0.1 0.2c-0.1 0-0.3 0-0.3 0"/><path class="a" d="m42.4 27.5h0.1q0.1 0.1 0.1 0.2l-0.3 0.6-0.6-0.3q0.1-0.1 0.1-0.1 0-0.1 0.1-0.2 0 0 0-0.1 0.1-0.1 0.1-0.2 0-0.1 0.1 0h0.1m-0.6 1.4l-0.1-0.1q-0.1 0-0.1-0.1 0.1-0.1 0.1-0.2 0 0 0.1-0.1 0-0.1 0.1-0.1 0-0.1 0-0.2l0.6 0.2q0 0.1-0.1 0.2 0 0.1 0 0.1-0.1 0.1-0.1 0.2 0 0-0.1 0.1c0 0.1-0.2 0.1-0.2 0"/><path class="g" d="m41.1 29.9l0.1 0.1q0.1 0.1 0 0.3c-0.2 0.1-0.3 0.3-0.5 0.5l-0.7-0.5c0.2-0.2 0.4-0.4 0.5-0.6 0.1-0.1 0.2-0.1 0.2 0l0.1 0.1m-1.2 1.3h-0.1q-0.2-0.1-0.1-0.3 0.3-0.2 0.6-0.5l0.7 0.5q-0.1 0.1-0.2 0.2 0 0-0.1 0.1-0.1 0.1-0.1 0.2-0.1 0-0.2 0.1c-0.1 0-0.2 0-0.3-0.1"/><path class="a" d="m40.9 30l0.1 0.1q0.1 0.1 0 0.2l-0.4 0.4-0.5-0.3q0.3-0.3 0.4-0.5 0.1-0.1 0.2 0h0.1m-1.1 1.2l-0.1-0.1q0-0.1 0-0.2 0.1 0 0.1-0.1 0.1 0 0.2-0.1 0 0 0.1-0.1 0-0.1 0.1-0.1l0.5 0.4q-0.2 0.2-0.5 0.4c0 0.1-0.2 0-0.2 0"/><path class="g" d="m38.9 32.1q0.1 0.2 0 0.3l-0.7 0.4-0.5-0.7q0.1 0 0.2-0.1 0.1 0 0.2-0.1 0 0 0.1-0.1 0.1-0.1 0.2-0.1 0 0 0 0 0.1 0 0.1 0 0 0 0.1 0 0 0 0 0l0.1 0.1m-1.7 1v-0.1q-0.1-0.1 0-0.2 0.1 0 0.2-0.1 0.1 0 0.2-0.1 0.1 0 0.2-0.1 0 0 0.1-0.1l0.5 0.7-0.7 0.4c-0.1 0-0.2-0.1-0.3-0.1"/><path class="a" d="m38.7 32.1v0.1q0.1 0.1 0 0.2l-0.6 0.3-0.3-0.5 0.5-0.3c0.1-0.1 0.2-0.1 0.2 0l0.1 0.1m-1.4 0.8l-0.1-0.1q0-0.1 0.1-0.2 0.1 0 0.2 0 0-0.1 0.1-0.1 0.1 0 0.2-0.1 0 0 0.1-0.1l0.3 0.5q-0.3 0.2-0.5 0.3c-0.1 0.1-0.2 0-0.3 0"/><path class="g" d="m36.1 33.5v0.1c0 0.1 0 0.2-0.1 0.2l-0.8 0.3-0.2-0.8q0.1 0 0.2-0.1 0.1 0 0.2 0 0.1-0.1 0.2-0.1 0.1 0 0.1-0.1c0.1 0 0.2 0.1 0.2 0.1l0.1 0.1m-1.9 0.6v-0.1c-0.1-0.1 0-0.2 0.1-0.2q0.3-0.1 0.8-0.2l0.2 0.8q-0.4 0.1-0.8 0.2c-0.1 0-0.2-0.2-0.2-0.2"/><path class="a" d="m35.9 33.5v0.1q0.1 0.1-0.1 0.2l-0.6 0.2-0.2-0.6q0.1 0 0.2 0 0.1-0.1 0.1-0.1 0.1 0 0.2 0 0.1-0.1 0.1-0.1 0.2 0 0.2 0.1m-1.5 0.5l-0.1-0.1q0-0.1 0.1-0.1 0.1-0.1 0.2-0.1 0.1 0 0.2 0 0.1 0 0.1 0 0.1-0.1 0.2-0.1l0.2 0.6q-0.1 0-0.2 0 0 0-0.1 0.1-0.1 0-0.2 0-0.1 0-0.2 0c0 0-0.1 0-0.2-0.1"/><path class="g" d="m33 34.2v0.1q0 0.2-0.2 0.2c-0.2 0-0.5 0-0.8 0v-0.8q0.1 0 0.2 0 0.1 0 0.2 0 0.1 0 0.2 0 0.1 0 0.2 0 0.2 0 0.2 0.1v0.1m-2 0.1v-0.2q0-0.1 0.2-0.1 0.3 0 0.8 0v0.8h-0.8c-0.1 0-0.2-0.2-0.2-0.2"/><path class="a" d="m32.8 34.2v0.1q0 0.1-0.1 0.1h-0.7v-0.6c0.2 0 0.5 0 0.7 0q0.1 0 0.1 0.1v0.1m-1.6 0v-0.1q0-0.1 0.1-0.1 0.3 0 0.7 0v0.6h-0.7c-0.1 0-0.1-0.1-0.1-0.2"/></svg>