<svg version="1.2" xmlns="http://www.w3.org/2000/svg" viewBox="0 0 64 48" width="64" height="48"><style>.a{fill:#3f9c35}.b{fill:#ed2939}.c{fill:#00b9e4}.d{fill:#fff}</style><path class="a" d="m64 0v48h-64v-48z"/><path class="b" d="m64 0v32h-64v-32z"/><path class="c" d="m64 0v16h-64v-16z"/><path class="d" d="m30.4 31.2c-4 0-7.2-3.2-7.2-7.2 0-4 3.2-7.2 7.2-7.2 4 0 7.2 3.2 7.2 7.2 0 4-3.2 7.2-7.2 7.2z"/><path class="b" d="m32 30c-3.3 0-6-2.7-6-6 0-3.3 2.7-6 6-6 3.3 0 6 2.7 6 6 0 3.3-2.7 6-6 6z"/><path class="d" d="m38.4 20l0.8 2.2 2-1-0.9 2 2.1 0.8-2.1 0.8 0.9 2-2-0.9-0.8 2.1-0.8-2.1-2 0.9 1-2-2.2-0.8 2.2-0.8-1-2 2 1z"/></svg>