<svg version="1.2" xmlns="http://www.w3.org/2000/svg" viewBox="0 0 32 24" width="32" height="24"><style>.a{fill:#3f9c35}.b{fill:#ed2939}.c{fill:#00b9e4}.d{fill:#fff}</style><path class="a" d="m32 0v24h-32v-24z"/><path class="b" d="m32 0v16h-32v-16z"/><path class="c" d="m32 0v8h-32v-8z"/><path class="d" d="m15.2 15.6c-2 0-3.6-1.6-3.6-3.6 0-2 1.6-3.6 3.6-3.6 2 0 3.6 1.6 3.6 3.6 0 2-1.6 3.6-3.6 3.6z"/><path class="b" d="m16 15c-1.7 0-3-1.3-3-3 0-1.7 1.3-3 3-3 1.7 0 3 1.3 3 3 0 1.7-1.3 3-3 3z"/><path class="d" d="m19.2 10l0.4 1.1 1-0.5-0.5 1 1.1 0.4-1.1 0.4 0.5 1-1-0.4-0.4 1-0.4-1-1 0.4 0.5-1-1.1-0.4 1.1-0.4-0.5-1 1 0.5z"/></svg>