<svg version="1.2" xmlns="http://www.w3.org/2000/svg" viewBox="0 0 64 48" width="32" height="24">
	<title>az</title>
	<style>
		.s0 { fill: #3f9c35 } 
		.s1 { fill: #ed2939 } 
		.s2 { fill: #00b9e4 } 
		.s3 { fill: #ffffff } 
	</style>
	<path class="s0" d="m64 0v48h-64v-48z"/>
	<path class="s1" d="m64 0v32h-64v-32z"/>
	<path class="s2" d="m64 0v16h-64v-16z"/>
	<path class="s3" d="m30.4 31.2c-4 0-7.2-3.2-7.2-7.2 0-4 3.2-7.2 7.2-7.2 4 0 7.2 3.2 7.2 7.2 0 4-3.2 7.2-7.2 7.2z"/>
	<path class="s1" d="m32 30c-3.3 0-6-2.7-6-6 0-3.3 2.7-6 6-6 3.3 0 6 2.7 6 6 0 3.3-2.7 6-6 6z"/>
	<path class="s3" d="m38.4 20l0.8 2.2 2-1-0.9 2 2.1 0.8-2.1 0.8 0.9 2-2-0.9-0.8 2.1-0.8-2.1-2 0.9 1-2-2.2-0.8 2.2-0.8-1-2 2 1z"/>
</svg>