<svg version="1.2" xmlns="http://www.w3.org/2000/svg" viewBox="0 0 32 24" width="32" height="24"><style>.a{fill:#012169}.b{fill:#fff}.c{fill:#c8102e}</style><path class="a" d="m32 0v24h-32v-24z"/><path class="b" d="m3.8 0l12.1 9.1 12.2-9.1h3.9v3.1l-12 8.9 12 8.9v3.1h-4l-12-8.9-11.9 8.9h-4.1v-3l12-8.9-12-8.9v-3.2z"/><path class="c" d="m21.2 14.1l10.8 7.9v2l-13.6-9.9zm-9.2 1l0.3 1.7-9.6 7.2h-2.7zm20.1-15.1l-0.1 0.2-12.4 9.4 0.1-2.2 9.8-7.4zm-32 0l12 8.9h-3l-9-6.8z"/><path class="b" d="m20.1 0l-0.1 24h-8v-24zm12 8v8h-32v-8z"/><path class="c" d="m32 9.7v4.8h-32v-4.9zm-13.6-9.6v24h-4.8v-24z"/></svg>