<svg version="1.2" xmlns="http://www.w3.org/2000/svg" viewBox="0 0 64 48" width="64" height="48"><style>.a{fill:#012169}.b{fill:#fff}.c{fill:#c8102e}</style><path class="a" d="m64 0v48h-64v-48z"/><path class="b" d="m7.5 0l24.4 18.1 24.3-18.1h7.8v6.2l-24 17.9 24 17.8v6.1h-8l-24-17.9-23.9 17.9h-8.1v-6l23.9-17.8-23.9-17.8v-6.4z"/><path class="c" d="m42.4 28.1l21.6 15.9v4l-27.1-19.9zm-18.4 2l0.6 3.5-19.2 14.4h-5.4zm40-30.1v0.3l-24.9 18.8 0.2-4.4 19.7-14.7zm-64 0l23.9 17.6h-6l-17.9-13.4z"/><path class="b" d="m40.1 0v48h-16v-48zm23.9 16v16h-64v-16z"/><path class="c" d="m64 19.3v9.6h-64v-9.6zm-27.1-19.3v48h-9.6v-48z"/></svg>