<svg version="1.2" xmlns="http://www.w3.org/2000/svg" viewBox="0 0 64 48" width="32" height="24">
	<title>es</title>
	<style>
		.s0 { fill: #aa151b } 
		.s1 { fill: #f1bf00 } 
		.s2 { fill: #ad1519 } 
		.s3 { fill: none;stroke: #000000;stroke-linejoin: round;stroke-width: .4 } 
		.s4 { fill: #c8b100 } 
		.s5 { fill: none;stroke: #000000;stroke-width: .4 } 
		.s6 { fill: #ffffff } 
		.s7 { fill: #058e6e } 
		.s8 { fill: #005bbf } 
		.s9 { fill: #cccccc } 
		.s10 { fill: none;stroke: #000000;stroke-linecap: round;stroke-width: .4 } 
		.s11 { fill: #ad1519;stroke: #000000;stroke-width: .4 } 
		.s12 { fill: #c8b100;stroke: #000000;stroke-width: .4 } 
		.s13 { fill: #ffffff;stroke: #000000;stroke-width: .4 } 
		.s14 { fill: #058e6e;stroke: #000000;stroke-width: .4 } 
		.s15 { fill: #005bbf;stroke: #000000;stroke-width: .4 } 
		.s16 { fill: #c8b100;stroke: #000000;stroke-linejoin: round;stroke-width: .4 } 
		.s17 { fill: #c7b500;stroke: #000000;stroke-width: .4 } 
		.s18 { fill: none;stroke: #c8b100;stroke-width: .4 } 
		.s19 { fill: #db4446 } 
		.s20 { fill: #ed72aa;stroke: #000000;stroke-width: .4 } 
		.s21 { fill: #000000 } 
		.s22 { fill: #ffd691;stroke: #000000;stroke-width: .4 } 
		.s23 { fill: #0039f0 } 
		.s24 { fill: none } 
	</style>
	<path class="s0" d="m64 0v48h-64v-48z"/>
	<path class="s1" d="m64 12v24h-64v-24z"/>
	<path class="s2" d="m12.7 21.3l-0.1-0.1h-0.1l-0.1-0.1c0 0 0-0.1 0-0.2 0-0.1 0.1-0.1 0.1-0.2q0 0 0.1 0 0.1 0 0.1 0h0.1l0.1-0.1h0.1q0 0 0.1 0h0.1 0.1 0.5 0.1q0.1 0 0.1 0 0.1 0.1 0.1 0.1 0.1 0 0.3 0 0 0.1 0.1 0.1v0.1 0.1 0.1l-0.1 0.1-0.1 0.1c0 0 0 0-0.1 0 0 0-0.5-0.1-0.7-0.1-0.3 0-0.8 0.1-0.8 0.1z"/>
	<path fill-rule="evenodd" class="s3" d="m12.7 21.3l-0.1-0.1h-0.1l-0.1-0.1c0 0 0-0.1 0-0.2 0-0.1 0.1-0.1 0.1-0.2q0 0 0.1 0 0.1 0 0.1 0h0.1l0.1-0.1h0.1q0 0 0.1 0h0.1 0.1 0.5 0.1q0.1 0 0.1 0 0.1 0.1 0.1 0.1 0.1 0 0.3 0 0 0.1 0.1 0.1v0.1 0.1 0.1l-0.1 0.1-0.1 0.1c0 0 0 0-0.1 0 0 0-0.5-0.1-0.7-0.1-0.3 0-0.8 0.1-0.8 0.1z"/>
	<path class="s4" d="m13.5 21c-0.1 0-0.2-0.2-0.2-0.3 0-0.1 0.1-0.2 0.2-0.2 0 0 0.1 0.1 0.1 0.2 0 0.1-0.1 0.3-0.1 0.3z"/>
	<path fill-rule="evenodd" class="s5" d="m13.5 21c-0.1 0-0.2-0.2-0.2-0.3 0-0.1 0.1-0.2 0.2-0.2 0 0 0.1 0.1 0.1 0.2 0 0.1-0.1 0.3-0.1 0.3z"/>
	<path class="s4" d="m13.4 20.7c0-0.1 0-0.2 0.1-0.2 0 0 0 0.1 0 0.2q0 0.2 0 0.2c-0.1 0-0.1-0.1-0.1-0.2z"/>
	<path fill-rule="evenodd" class="s5" d="m13.4 20.7c0-0.1 0-0.2 0.1-0.2 0 0 0 0.1 0 0.2q0 0.2 0 0.2c-0.1 0-0.1-0.1-0.1-0.2z"/>
	<path class="s4" d="m13.4 20.5q0-0.1 0.1-0.1c0 0 0.1 0 0.1 0.1q-0.1 0-0.1 0-0.1 0-0.1 0z"/>
	<path class="s4" d="m13.5 20.4v0.1h-0.1v-0.1-0.1-0.1h0.1 0.1v0.1h-0.1z"/>
	<path fill-rule="evenodd" class="s5" d="m13.5 20.4v0.1h-0.1v-0.1-0.1-0.1h0.1 0.1v0.1h-0.1z"/>
	<path class="s4" d="m13.6 20.4v0.1h-0.3v-0.1h0.1v-0.1-0.1h0.1 0.1v0.1h-0.1v0.1z"/>
	<path fill-rule="evenodd" class="s5" d="m13.6 20.4v0.1h-0.3v-0.1h0.1v-0.1-0.1h0.1 0.1v0.1h-0.1v0.1z"/>
	<path class="s5" d="m13.5 20.4q0.1 0 0.1 0.1-0.1 0-0.1 0c-0.1 0-0.1 0-0.1 0q0-0.1 0-0.1"/>
	<path class="s4" d="m13.5 21.3h-0.5v-0.1-0.1-0.2c-0.2-0.1-0.3-0.2-0.3-0.2q0-0.1 0-0.1c0.1 0 0.4 0.1 0.5 0.4l0.1 0.1h0.4v-0.1c0.2-0.3 0.4-0.4 0.5-0.4q0.1 0 0.1 0.1c-0.1 0-0.2 0.1-0.3 0.2v0.2l-0.1 0.1v0.1z"/>
	<path fill-rule="evenodd" class="s5" d="m13.5 21.3h-0.5v-0.1-0.1-0.2c-0.2-0.1-0.3-0.2-0.3-0.2q0-0.1 0-0.1c0.1 0 0.4 0.1 0.5 0.4l0.1 0.1h0.4v-0.1c0.2-0.3 0.4-0.4 0.5-0.4q0.1 0 0.1 0.1c-0.1 0-0.2 0.1-0.3 0.2v0.2l-0.1 0.1v0.1z"/>
	<path class="s5" d="m12.7 20.7c0.1-0.1 0.3 0.1 0.4 0.3"/>
	<path class="s5" d="m14.2 20.7c0-0.1-0.2 0.1-0.4 0.3"/>
	<path class="s4" d="m12.8 21.5l-0.1-0.1q0.2 0 0.4 0 0.2-0.1 0.4-0.1 0.2 0 0.3 0.1 0.2 0 0.4 0l-0.1 0.1q0 0.1 0 0.1-0.1 0-0.1 0-0.1-0.1-0.2-0.1-0.1 0-0.2 0-0.1 0-0.1 0c-0.3 0-0.6 0-0.7 0.1z"/>
	<path fill-rule="evenodd" class="s5" d="m12.8 21.5l-0.1-0.1q0.2 0 0.4 0 0.2-0.1 0.4-0.1 0.2 0 0.3 0.1 0.2 0 0.4 0l-0.1 0.1q0 0.1 0 0.1-0.1 0-0.1 0-0.1-0.1-0.2-0.1-0.1 0-0.2 0-0.1 0-0.1 0c-0.3 0-0.6 0-0.7 0.1z"/>
	<path class="s4" d="m13.5 21.8c0.2 0 0.5-0.1 0.6-0.1q0 0 0.1-0.1-0.1 0-0.1 0c-0.1-0.1-0.4-0.1-0.6-0.1-0.3 0-0.5 0-0.7 0.1q0 0.1 0.1 0.1c0.1 0 0.3 0.1 0.6 0.1z"/>
	<path fill-rule="evenodd" class="s5" d="m13.5 21.8c0.2 0 0.5-0.1 0.6-0.1q0 0 0.1-0.1-0.1 0-0.1 0c-0.1-0.1-0.4-0.1-0.6-0.1-0.3 0-0.5 0-0.7 0.1q0 0.1 0.1 0.1c0.1 0 0.3 0.1 0.6 0.1z"/>
	<path class="s4" d="m14.2 21.3c0 0-0.1 0-0.2 0l-0.1-0.1c0 0 0 0.1-0.1 0.1-0.1 0-0.1-0.1-0.1-0.1h-0.1c-0.1 0-0.1 0-0.1 0 0 0-0.1 0-0.2 0h-0.1c0 0 0 0-0.1 0.1l-0.1-0.1-0.1 0.1c-0.1 0-0.1 0-0.1 0h-0.1v0.1q0.1-0.1 0.2-0.1 0.1 0 0.2 0 0.1 0 0.2 0 0.1 0 0.2 0 0.4 0 0.7 0.1z"/>
	<path fill-rule="evenodd" class="s5" d="m14.2 21.3c0 0-0.1 0-0.2 0l-0.1-0.1c0 0 0 0.1-0.1 0.1-0.1 0-0.1-0.1-0.1-0.1h-0.1c-0.1 0-0.1 0-0.1 0 0 0-0.1 0-0.2 0h-0.1c0 0 0 0-0.1 0.1l-0.1-0.1-0.1 0.1c-0.1 0-0.1 0-0.1 0h-0.1v0.1q0.1-0.1 0.2-0.1 0.1 0 0.2 0 0.1 0 0.2 0 0.1 0 0.2 0 0.4 0 0.7 0.1z"/>
	<path class="s4" d="m13.5 21.1q0 0.1 0.1 0.1 0 0 0.1 0 0 0 0-0.1v0.1q0 0 0.1 0 0.1 0 0.1-0.1h0.1q0 0.1 0 0.1 0 0.1 0 0.1 0.1 0 0.1 0 0 0 0.1-0.1 0 0.1 0 0.1 0 0 0.1 0l0.1-0.1-0.1 0.1q0 0.1-0.1 0.1 0 0-0.1-0.1-0.1 0-0.2-0.1 0 0.1-0.1 0.1-0.1 0-0.1 0 0-0.1 0-0.1 0 0.1 0 0.1-0.1 0-0.1 0-0.1 0-0.1 0 0-0.1 0-0.1-0.1 0-0.1 0.1-0.1 0-0.1 0 0 0-0.1-0.1 0 0 0 0.1 0 0-0.1 0 0 0-0.1 0 0 0 0-0.1 0 0.1-0.1 0.1-0.1 0-0.1 0 0 0.1-0.1 0.1 0 0-0.1-0.1l-0.1-0.1 0.1 0.1q0.1 0 0.1 0 0.1 0 0-0.1h0.1q0 0.1 0.1 0.1 0 0 0-0.1 0 0 0.1 0 0-0.1 0-0.1 0 0.1 0.1 0.1 0.1 0 0.1-0.1 0.1 0.1 0.1 0.1 0.1 0 0.1-0.1z"/>
	<path fill-rule="evenodd" class="s5" d="m13.5 21.1q0 0.1 0.1 0.1 0 0 0.1 0 0 0 0-0.1v0.1q0 0 0.1 0 0.1 0 0.1-0.1h0.1q0 0.1 0 0.1 0 0.1 0 0.1 0.1 0 0.1 0 0 0 0.1-0.1 0 0.1 0 0.1 0 0 0.1 0l0.1-0.1-0.1 0.1q0 0.1-0.1 0.1 0 0-0.1-0.1-0.1 0-0.2-0.1 0 0.1-0.1 0.1-0.1 0-0.1 0 0-0.1 0-0.1 0 0.1 0 0.1-0.1 0-0.1 0-0.1 0-0.1 0 0-0.1 0-0.1-0.1 0-0.1 0.1-0.1 0-0.1 0 0 0-0.1-0.1 0 0 0 0.1 0 0-0.1 0 0 0-0.1 0 0 0 0-0.1 0 0.1-0.1 0.1-0.1 0-0.1 0 0 0.1-0.1 0.1 0 0-0.1-0.1l-0.1-0.1 0.1 0.1q0.1 0 0.1 0 0.1 0 0-0.1h0.1q0 0.1 0.1 0.1 0 0 0-0.1 0 0 0.1 0 0-0.1 0-0.1 0 0.1 0.1 0.1 0.1 0 0.1-0.1 0.1 0.1 0.1 0.1 0.1 0 0.1-0.1z"/>
	<path class="s4" d="m13.5 21.3q-0.5 0-0.8 0.1 0.1 0 0.2-0.1 0.1 0 0.2 0 0.1 0 0.2 0 0.1 0 0.2 0 0.4 0 0.7 0.1-0.1 0-0.2 0-0.1 0-0.2 0-0.1-0.1-0.2-0.1 0 0-0.1 0z"/>
	<path fill-rule="evenodd" class="s3" d="m13.5 21.3q-0.5 0-0.8 0.1 0.1 0 0.2-0.1 0.1 0 0.2 0 0.1 0 0.2 0 0.1 0 0.2 0 0.4 0 0.7 0.1-0.1 0-0.2 0-0.1 0-0.2 0-0.1-0.1-0.2-0.1 0 0-0.1 0z"/>
	<path class="s6" d="m13.2 21.4q0.1 0 0.1 0 0 0.1-0.1 0.1 0-0.1 0-0.1z"/>
	<path fill-rule="evenodd" class="s5" d="m13.2 21.4q0.1 0 0.1 0 0 0.1-0.1 0.1 0-0.1 0-0.1z"/>
	<path class="s2" d="m13.5 21.5h-0.1q-0.1 0-0.1-0.1h0.1 0.2q0 0 0 0.1z"/>
	<path class="s5" d="m13.5 21.5h-0.1q-0.1 0-0.1-0.1h0.1 0.2q0 0 0 0.1z"/>
	<path class="s7" d="m13 21.5h-0.1q0-0.1 0-0.1h0.1 0.1q0 0 0 0.1z"/>
	<path class="s5" d="m13 21.5h-0.1q0-0.1 0-0.1h0.1 0.1q0 0 0 0.1z"/>
	<path class="s2" d="m12.7 21.5h0.1v0.1z"/>
	<path fill-rule="evenodd" class="s5" d="m12.7 21.5h0.1v0.1z"/>
	<path class="s6" d="m13.7 21.4q0.1 0 0.1 0 0 0-0.1 0.1 0-0.1 0-0.1z"/>
	<path fill-rule="evenodd" class="s5" d="m13.7 21.4q0.1 0 0.1 0 0 0-0.1 0.1 0-0.1 0-0.1z"/>
	<path class="s7" d="m13.9 21.5h0.1q0 0 0-0.1h-0.1q-0.1 0-0.1 0 0 0.1 0.1 0.1z"/>
	<path class="s5" d="m13.9 21.5h0.1q0 0 0-0.1h-0.1q-0.1 0-0.1 0 0 0.1 0.1 0.1z"/>
	<path class="s2" d="m14.2 21.5h-0.1v0.1z"/>
	<path class="s5" d="m14.2 21.5h-0.1v0.1z"/>
	<path class="s2" d="m13.5 21.7q-0.1 0-0.2 0-0.1 0-0.1 0-0.1 0-0.2 0-0.1 0-0.1 0 0.1-0.1 0.3-0.1 0.1 0 0.3 0 0.1 0 0.3 0 0.1 0 0.3 0.1-0.3 0-0.6 0z"/>
	<path fill-rule="evenodd" class="s3" d="m13.5 21.7q-0.1 0-0.2 0-0.1 0-0.1 0-0.1 0-0.2 0-0.1 0-0.1 0 0.1-0.1 0.3-0.1 0.1 0 0.3 0 0.1 0 0.3 0 0.1 0 0.3 0.1-0.3 0-0.6 0z"/>
	<path class="s4" d="m14.2 21.2q-0.1 0 0 0z"/>
	<path fill-rule="evenodd" class="s5" d="m14.2 21.2q-0.1 0 0 0z"/>
	<path class="s4" d="m13.7 21.1q0 0 0 0.1z"/>
	<path fill-rule="evenodd" class="s5" d="m13.7 21.1q0 0 0 0.1z"/>
	<path class="s4" d="m13.2 21.1q0 0 0 0.1z"/>
	<path fill-rule="evenodd" class="s5" d="m13.2 21.1q0 0 0 0.1z"/>
	<path class="s4" d="m12.7 21.2q0.1 0 0.1 0 0 0-0.1 0z"/>
	<path fill-rule="evenodd" class="s5" d="m12.7 21.2q0.1 0 0.1 0 0 0-0.1 0z"/>
	<path class="s4" d="m13.5 20.9h-0.1v0.1h0.1z"/>
	<path fill-rule="evenodd" class="s5" d="m13.5 20.9h-0.1v0.1h0.1z"/>
	<path class="s4" d="m13.3 21.1h0.2v-0.1h-0.2z"/>
	<path fill-rule="evenodd" class="s5" d="m13.3 21.1h0.2v-0.1h-0.2z"/>
	<path class="s4" d="m13.6 21.1h-0.1v-0.1h0.1z"/>
	<path fill-rule="evenodd" class="s5" d="m13.6 21.1h-0.1v-0.1h0.1z"/>
	<path class="s4" d="m12.9 20.9v0.1l0.1 0.1v-0.2z"/>
	<path class="s5" d="m12.9 20.9v0.1l0.1 0.1v-0.2z"/>
	<path class="s4" d="m12.8 21.1v0.1l0.2-0.1z"/>
	<path class="s5" d="m12.8 21.1v0.1l0.2-0.1z"/>
	<path class="s4" d="m13.2 21.1h-0.1-0.1l0.1-0.1z"/>
	<path class="s5" d="m13.2 21.1h-0.1-0.1l0.1-0.1h0.1"/>
	<path class="s4" d="m12.7 21.1v0.1h-0.2l0.1-0.1z"/>
	<path fill-rule="evenodd" class="s5" d="m12.7 21.1v0.1h-0.2l0.1-0.1z"/>
	<path class="s4" d="m12.9 21.1q0-0.1 0.1-0.1 0 0 0 0.1-0.1 0-0.1 0z"/>
	<path fill-rule="evenodd" class="s5" d="m12.9 21.1q0-0.1 0.1-0.1 0 0 0 0.1-0.1 0-0.1 0z"/>
	<path class="s4" d="m14 20.9l0.1 0.1-0.1 0.1-0.1-0.2z"/>
	<path class="s5" d="m14 20.9l0.1 0.1-0.1 0.1-0.1-0.2z"/>
	<path class="s4" d="m14.1 21.1v0.1l-0.1-0.1z"/>
	<path fill-rule="evenodd" class="s5" d="m14.1 21.1v0.1l-0.1-0.1z"/>
	<path class="s4" d="m13.8 21.1h0.1 0.1l-0.2-0.1z"/>
	<path fill-rule="evenodd" class="s5" d="m13.8 21.1h0.1 0.1l-0.2-0.1z"/>
	<path class="s4" d="m14.3 21.1v0.1h0.1z"/>
	<path fill-rule="evenodd" class="s5" d="m14.3 21.1v0.1h0.1z"/>
	<path class="s4" d="m13.4 21q0.1 0 0.1 0 0 0 0 0.1 0 0-0.1 0 0-0.1 0-0.1z"/>
	<path fill-rule="evenodd" class="s5" d="m13.4 21q0.1 0 0.1 0 0 0 0 0.1 0 0-0.1 0 0-0.1 0-0.1z"/>
	<path class="s4" d="m13.9 21.1q0-0.1 0.1-0.1 0 0 0 0.1 0 0-0.1 0z"/>
	<path fill-rule="evenodd" class="s5" d="m13.9 21.1q0-0.1 0.1-0.1 0 0 0 0.1 0 0-0.1 0z"/>
	<path class="s4" d="m12.5 21.2h-0.1c0-0.1 0-0.1 0-0.1q0 0 0.1 0z"/>
	<path fill-rule="evenodd" class="s5" d="m12.5 21.2h-0.1c0-0.1 0-0.1 0-0.1q0 0 0.1 0z"/>
	<path class="s4" d="m12.5 21.2q0.1 0 0.1 0.1l-0.1-0.1z"/>
	<path fill-rule="evenodd" class="s5" d="m12.5 21.2q0.1 0 0.1 0.1l-0.1-0.1z"/>
	<path class="s4" d="m14.4 21.2h0.1c0-0.1 0.1-0.1 0.1-0.1q0 0-0.1 0-0.1 0-0.1 0z"/>
	<path fill-rule="evenodd" class="s5" d="m14.4 21.2h0.1c0-0.1 0.1-0.1 0.1-0.1q0 0-0.1 0-0.1 0-0.1 0z"/>
	<path class="s4" d="m14.4 21.2q0 0 0 0.1v-0.1z"/>
	<path fill-rule="evenodd" class="s5" d="m14.4 21.2q0 0 0 0.1v-0.1z"/>
	<path class="s4" d="m14.5 21.8v0.5h-2.1v-0.6z"/>
	<path fill-rule="evenodd" class="s5" d="m14.5 21.8v0.5h-2.1v-0.6z"/>
	<path class="s4" d="m12.6 22.7q0 0 0.1 0h1.6q0 0-0.1-0.1 0-0.1 0.1-0.2h-1.6q0 0-0.1 0 0.1 0.1 0.1 0.2 0 0.1 0 0.1-0.1 0-0.1 0z"/>
	<path fill-rule="evenodd" class="s3" d="m12.6 22.7q0 0 0.1 0h1.6q0 0-0.1-0.1 0-0.1 0.1-0.2h-1.6q0 0-0.1 0 0.1 0.1 0.1 0.2 0 0.1 0 0.1-0.1 0-0.1 0z"/>
	<path class="s4" d="m12.7 22.7h1.6q0.1 0 0.1 0.1 0 0-0.1 0h-1.6c-0.1 0-0.1 0-0.1 0 0-0.1 0-0.1 0.1-0.1z"/>
	<path fill-rule="evenodd" class="s5" d="m12.7 22.7h1.6q0.1 0 0.1 0.1 0 0-0.1 0h-1.6c-0.1 0-0.1 0-0.1 0 0-0.1 0-0.1 0.1-0.1z"/>
	<path class="s4" d="m12.7 22.3h1.6q0.1 0 0.1 0.1 0 0-0.1 0h-1.6q-0.1 0-0.1 0 0-0.1 0.1-0.1z"/>
	<path fill-rule="evenodd" class="s5" d="m12.7 22.3h1.6q0.1 0 0.1 0.1 0 0-0.1 0h-1.6q-0.1 0-0.1 0 0-0.1 0.1-0.1z"/>
	<path class="s8" d="m15 31.7q-0.3 0-0.4 0-0.1-0.1-0.1-0.1 0 0-0.1 0 0 0-0.1 0 0 0-0.1 0-0.2 0-0.4 0.1 0 0-0.1 0-0.1 0-0.1 0-0.1 0-0.1 0-0.3 0-0.4 0-0.1-0.1-0.1-0.1 0 0-0.1 0 0 0-0.1 0 0 0-0.1 0 0 0-0.1 0 0 0-0.1 0 0 0-0.1 0 0 0 0 0.1-0.1 0-0.1 0-0.1 0-0.1 0-0.1 0-0.1 0-0.1 0-0.1 0v0.3q0.2 0 0.4-0.1 0.1-0.1 0.1-0.1 0.1 0 0.1 0 0.1 0 0.1 0 0.2 0 0.4 0.1 0.1 0.1 0.4 0.1 0 0 0.1 0 0 0 0.1 0 0-0.1 0-0.1 0.1 0 0.1 0 0.2-0.1 0.4-0.1 0.2 0 0.4 0.1 0.1 0.1 0.4 0.1z"/>
	<path fill-rule="evenodd" class="s5" d="m15 31.7q-0.3 0-0.4 0-0.1-0.1-0.1-0.1 0 0-0.1 0 0 0-0.1 0 0 0-0.1 0-0.2 0-0.4 0.1 0 0-0.1 0-0.1 0-0.1 0-0.1 0-0.1 0-0.3 0-0.4 0-0.1-0.1-0.1-0.1 0 0-0.1 0 0 0-0.1 0 0 0-0.1 0 0 0-0.1 0 0 0-0.1 0 0 0-0.1 0 0 0 0 0.1-0.1 0-0.1 0-0.1 0-0.1 0-0.1 0-0.1 0-0.1 0-0.1 0v0.3q0.2 0 0.4-0.1 0.1-0.1 0.1-0.1 0.1 0 0.1 0 0.1 0 0.1 0 0.2 0 0.4 0.1 0.1 0.1 0.4 0.1 0 0 0.1 0 0 0 0.1 0 0-0.1 0-0.1 0.1 0 0.1 0 0.2-0.1 0.4-0.1 0.2 0 0.4 0.1 0.1 0.1 0.4 0.1z"/>
	<path class="s9" d="m15 32q-0.1 0-0.1 0-0.1 0-0.1 0-0.1-0.1-0.1-0.1-0.1 0-0.1 0-0.1 0-0.1 0 0-0.1-0.1-0.1 0 0-0.1 0 0 0-0.1 0-0.2 0-0.4 0.1-0.1 0.1-0.3 0.1-0.3 0-0.4-0.1-0.1 0-0.1 0 0-0.1-0.1-0.1 0 0-0.1 0 0 0-0.1 0 0 0-0.1 0 0 0-0.1 0 0 0-0.1 0.1-0.2 0.1-0.4 0.1v0.2q0.2 0 0.4-0.1 0.1 0 0.1 0 0.1 0 0.1 0 0.1-0.1 0.1 0 0.2-0.1 0.4 0 0.1 0.1 0.2 0.1 0.1 0 0.2 0 0.1 0 0.2 0 0.1 0 0.1-0.1 0.1 0 0.2 0 0.1-0.1 0.2-0.1 0.1 0 0.2 0.1 0.1 0 0.2 0 0 0.1 0.1 0.1 0 0 0.1 0 0 0 0.1 0 0 0 0.1 0z"/>
	<path fill-rule="evenodd" class="s5" d="m15 32q-0.1 0-0.1 0-0.1 0-0.1 0-0.1-0.1-0.1-0.1-0.1 0-0.1 0-0.1 0-0.1 0 0-0.1-0.1-0.1 0 0-0.1 0 0 0-0.1 0-0.2 0-0.4 0.1-0.1 0.1-0.3 0.1-0.3 0-0.4-0.1-0.1 0-0.1 0 0-0.1-0.1-0.1 0 0-0.1 0 0 0-0.1 0 0 0-0.1 0 0 0-0.1 0 0 0-0.1 0.1-0.2 0.1-0.4 0.1v0.2q0.2 0 0.4-0.1 0.1 0 0.1 0 0.1 0 0.1 0 0.1-0.1 0.1 0 0.2-0.1 0.4 0 0.1 0.1 0.2 0.1 0.1 0 0.2 0 0.1 0 0.2 0 0.1 0 0.1-0.1 0.1 0 0.2 0 0.1-0.1 0.2-0.1 0.1 0 0.2 0.1 0.1 0 0.2 0 0 0.1 0.1 0.1 0 0 0.1 0 0 0 0.1 0 0 0 0.1 0z"/>
	<path class="s8" d="m15 32.2q-0.1 0-0.1 0-0.1 0-0.1 0-0.1 0-0.1 0-0.1-0.1-0.1-0.1-0.1 0-0.1 0 0 0-0.1 0 0 0-0.1 0 0-0.1-0.1 0-0.2-0.1-0.4 0-0.1 0.1-0.3 0.1-0.3 0-0.4-0.1-0.1 0-0.1 0 0 0-0.1 0 0-0.1-0.1-0.1 0 0-0.1 0 0 0-0.1 0 0 0-0.1 0.1 0 0-0.1 0-0.2 0.1-0.4 0.1v0.2q0.2 0 0.4-0.1 0 0 0.1 0 0.1 0 0.2 0 0.1 0 0.2 0 0.1 0 0.2 0 0 0.1 0.1 0.1 0 0 0.1 0 0 0 0.1 0 0 0 0.1 0 0 0 0.1 0 0 0 0.1 0 0.1 0 0.1 0 0.2-0.1 0.4-0.1 0.2 0 0.4 0.1 0.1 0 0.4 0z"/>
	<path fill-rule="evenodd" class="s5" d="m15 32.2q-0.1 0-0.1 0-0.1 0-0.1 0-0.1 0-0.1 0-0.1-0.1-0.1-0.1-0.1 0-0.1 0 0 0-0.1 0 0 0-0.1 0 0-0.1-0.1 0-0.2-0.1-0.4 0-0.1 0.1-0.3 0.1-0.3 0-0.4-0.1-0.1 0-0.1 0 0 0-0.1 0 0-0.1-0.1-0.1 0 0-0.1 0 0 0-0.1 0 0 0-0.1 0.1 0 0-0.1 0-0.2 0.1-0.4 0.1v0.2q0.2 0 0.4-0.1 0 0 0.1 0 0.1 0 0.2 0 0.1 0 0.2 0 0.1 0 0.2 0 0 0.1 0.1 0.1 0 0 0.1 0 0 0 0.1 0 0 0 0.1 0 0 0 0.1 0 0 0 0.1 0 0.1 0 0.1 0 0.2-0.1 0.4-0.1 0.2 0 0.4 0.1 0.1 0 0.4 0z"/>
	<path class="s9" d="m15 32.7q-0.1 0-0.1 0-0.1 0-0.1 0-0.1-0.1-0.1-0.1-0.1 0-0.1 0-0.2-0.1-0.4-0.1 0 0-0.1 0 0 0-0.1 0 0 0-0.1 0.1 0 0-0.1 0-0.1 0.1-0.3 0.1-0.1 0-0.1 0-0.1 0-0.1 0-0.1-0.1-0.1-0.1-0.1 0-0.1 0-0.1 0-0.1-0.1 0 0-0.1 0 0 0-0.1 0 0 0-0.1 0-0.2 0-0.3 0.1-0.2 0.1-0.4 0.1v-0.3q0 0 0.1 0 0 0 0.1 0 0 0 0.1 0 0 0 0.1 0 0-0.1 0.1-0.1 0.1 0 0.2 0 0.1 0 0.2 0 0.1 0 0.2 0.1 0 0 0.1 0 0 0 0.1 0 0 0 0.1 0 0 0 0.1 0 0 0 0.1 0 0 0 0.1 0 0.1 0 0.1 0 0.2-0.1 0.4-0.1 0.2 0 0.4 0.1 0.1 0 0.4 0z"/>
	<path fill-rule="evenodd" class="s5" d="m15 32.7q-0.1 0-0.1 0-0.1 0-0.1 0-0.1-0.1-0.1-0.1-0.1 0-0.1 0-0.2-0.1-0.4-0.1 0 0-0.1 0 0 0-0.1 0 0 0-0.1 0.1 0 0-0.1 0-0.1 0.1-0.3 0.1-0.1 0-0.1 0-0.1 0-0.1 0-0.1-0.1-0.1-0.1-0.1 0-0.1 0-0.1 0-0.1-0.1 0 0-0.1 0 0 0-0.1 0 0 0-0.1 0-0.2 0-0.3 0.1-0.2 0.1-0.4 0.1v-0.3q0 0 0.1 0 0 0 0.1 0 0 0 0.1 0 0 0 0.1 0 0-0.1 0.1-0.1 0.1 0 0.2 0 0.1 0 0.2 0 0.1 0 0.2 0.1 0 0 0.1 0 0 0 0.1 0 0 0 0.1 0 0 0 0.1 0 0 0 0.1 0 0 0 0.1 0 0.1 0 0.1 0 0.2-0.1 0.4-0.1 0.2 0 0.4 0.1 0.1 0 0.4 0z"/>
	<path class="s8" d="m15 32.9q-0.1 0-0.1 0-0.1 0-0.1 0-0.1 0-0.1 0-0.1-0.1-0.1-0.1-0.2-0.1-0.4-0.1 0 0-0.1 0 0 0-0.1 0.1 0 0-0.1 0 0 0-0.1 0-0.1 0.1-0.3 0.1-0.1 0-0.1 0-0.1 0-0.1 0-0.1 0-0.1 0-0.1-0.1-0.1-0.1-0.1 0-0.1 0 0 0-0.1 0 0-0.1-0.1-0.1 0 0-0.1 0-0.2 0-0.3 0.1-0.2 0.1-0.4 0.1v-0.2q0 0 0.1 0 0 0 0.1 0 0-0.1 0.1-0.1 0.2-0.1 0.4-0.1 0.2 0 0.4 0.1 0.1 0 0.2 0 0.1 0.1 0.2 0.1 0.1 0 0.2-0.1 0.1 0 0.1 0 0.2-0.1 0.4-0.1 0.2 0 0.4 0.1 0.1 0.1 0.4 0.1z"/>
	<path fill-rule="evenodd" class="s5" d="m15 32.9q-0.1 0-0.1 0-0.1 0-0.1 0-0.1 0-0.1 0-0.1-0.1-0.1-0.1-0.2-0.1-0.4-0.1 0 0-0.1 0 0 0-0.1 0.1 0 0-0.1 0 0 0-0.1 0-0.1 0.1-0.3 0.1-0.1 0-0.1 0-0.1 0-0.1 0-0.1 0-0.1 0-0.1-0.1-0.1-0.1-0.1 0-0.1 0 0 0-0.1 0 0-0.1-0.1-0.1 0 0-0.1 0-0.2 0-0.3 0.1-0.2 0.1-0.4 0.1v-0.2q0 0 0.1 0 0 0 0.1 0 0-0.1 0.1-0.1 0.2-0.1 0.4-0.1 0.2 0 0.4 0.1 0.1 0 0.2 0 0.1 0.1 0.2 0.1 0.1 0 0.2-0.1 0.1 0 0.1 0 0.2-0.1 0.4-0.1 0.2 0 0.4 0.1 0.1 0.1 0.4 0.1z"/>
	<path class="s4" d="m12.6 30.8v0.1c0 0.1-0.1 0.2-0.2 0.2h2.2q-0.1 0-0.1 0-0.1 0-0.1-0.1-0.1 0-0.1 0 0-0.1 0-0.1v-0.1h-1.6q0 0-0.1 0z"/>
	<path fill-rule="evenodd" class="s3" d="m12.6 30.8v0.1c0 0.1-0.1 0.2-0.2 0.2h2.2q-0.1 0-0.1 0-0.1 0-0.1-0.1-0.1 0-0.1 0 0-0.1 0-0.1v-0.1h-1.6q0 0-0.1 0z"/>
	<path class="s4" d="m12.7 30.7h1.6q0.1 0 0.1 0 0 0.1-0.1 0.1h-1.6q-0.1 0-0.1-0.1 0 0 0.1 0z"/>
	<path fill-rule="evenodd" class="s5" d="m12.7 30.7h1.6q0.1 0 0.1 0 0 0.1-0.1 0.1h-1.6q-0.1 0-0.1-0.1 0 0 0.1 0z"/>
	<path class="s4" d="m12.4 31.7h2.2v-0.6h-2.2z"/>
	<path fill-rule="evenodd" class="s5" d="m12.4 31.7h2.2v-0.6h-2.2z"/>
	<path class="s2" d="m12.2 28.7c-0.2 0.1-0.4 0.2-0.3 0.3 0 0.1 0 0.1 0.1 0.2 0.2 0.1 0.3 0.3 0.2 0.4q0.1-0.1 0.2-0.2 0-0.2 0-0.3 0-0.1 0-0.2-0.1-0.2-0.2-0.2z"/>
	<path fill-rule="evenodd" class="s5" d="m12.2 28.7c-0.2 0.1-0.4 0.2-0.3 0.3 0 0.1 0 0.1 0.1 0.2 0.2 0.1 0.3 0.3 0.2 0.4q0.1-0.1 0.2-0.2 0-0.2 0-0.3 0-0.1 0-0.2-0.1-0.2-0.2-0.2z"/>
	<path class="s9" d="m12.7 30.6h1.5v-7.7h-1.5v7.6z"/>
	<path class="s5" d="m14 22.9v7.7"/>
	<path class="s5" d="m13.8 22.9v7.7"/>
	<path fill-rule="evenodd" class="s5" d="m12.7 30.6l1.5-0.1v-7.6h-1.5z"/>
	<path class="s2" d="m15.8 25.8q-0.2-0.1-0.5-0.2-0.3 0-0.6-0.1-0.3 0-0.6 0-0.3 0-0.6 0.1c-0.9 0.1-1.6 0.5-1.6 0.8l-0.3-0.8c-0.1-0.3 0.7-0.7 1.7-0.9q0.1 0 0.3 0 0.1-0.1 0.2-0.1 0.1 0 0.2 0 0.1 0 0.2 0c0.7 0 1.3 0.1 1.6 0.2z"/>
	<path class="s3" d="m15.8 25.8q-0.2-0.1-0.5-0.2-0.3 0-0.6-0.1-0.3 0-0.6 0-0.3 0-0.6 0.1c-0.9 0.1-1.6 0.5-1.6 0.8l-0.3-0.8c-0.1-0.3 0.7-0.7 1.7-0.9q0.1 0 0.3 0 0.1-0.1 0.2-0.1 0.1 0 0.2 0 0.1 0 0.2 0c0.7 0 1.3 0.1 1.6 0.2z"/>
	<path class="s2" d="m12.7 26.7c-0.4 0-0.7-0.1-0.8-0.3 0-0.1 0.1-0.3 0.4-0.4q0.2 0 0.4 0z"/>
	<path fill-rule="evenodd" class="s5" d="m12.7 26.7c-0.4 0-0.7-0.1-0.8-0.3 0-0.1 0.1-0.3 0.4-0.4q0.2 0 0.4 0z"/>
	<path class="s2" d="m14.3 26.2q0.4 0 0.5 0.1v0.1c0.1 0.1-0.2 0.3-0.6 0.5v-0.8"/>
	<path class="s5" d="m14.3 26.2q0.4 0 0.5 0.1v0.1c0.1 0.1-0.2 0.3-0.6 0.5v-0.8"/>
	<path class="s2" d="m11.7 28.2c0-0.1 0.4-0.4 1-0.6l0.8-0.3c0.8-0.4 1.4-0.8 1.3-0.9v-0.1c0.1 0.1 0.1 0.8 0.1 0.8 0.1 0.2-0.5 0.6-1.2 1-0.3 0.1-0.8 0.3-1 0.4-0.5 0.1-0.9 0.4-0.8 0.5z"/>
	<path fill-rule="evenodd" class="s3" d="m11.7 28.2c0-0.1 0.4-0.4 1-0.6l0.8-0.3c0.8-0.4 1.4-0.8 1.3-0.9v-0.1c0.1 0.1 0.1 0.8 0.1 0.8 0.1 0.2-0.5 0.6-1.2 1-0.3 0.1-0.8 0.3-1 0.4-0.5 0.1-0.9 0.4-0.8 0.5z"/>
	<path fill-rule="evenodd" class="s4" d="m12.7 25.7h-0.2l-0.2-0.6 0.3-0.1q0.2 0 0.2 0.1c0.1 0.2 0 0.2-0.2 0.3zm-0.1-0.3q0.1-0.1 0.1-0.2c-0.1 0-0.1-0.1-0.2-0.1v0.1zm0.7 0h0.3v0.1h-0.5l-0.1-0.6h0.2zm0.6 0q0-0.1-0.1-0.2 0-0.1-0.1-0.1 0-0.1 0-0.2-0.1-0.1-0.1-0.1h0.2l0.2 0.4q0-0.1 0-0.1 0.1-0.1 0.1-0.1 0-0.1 0-0.2 0.1 0 0.1-0.1 0 0 0.1 0-0.2 0.3-0.3 0.7zm1-0.5q-0.1-0.1-0.1-0.1-0.2 0-0.2 0.1c0 0.1 0.4 0.1 0.3 0.3 0 0.1-0.1 0.2-0.3 0.2q-0.1 0-0.1 0 0-0.1-0.1-0.1 0 0 0.1 0 0 0 0-0.1 0 0.1 0.1 0.1c0.1 0.1 0.2 0 0.2 0 0-0.2-0.3-0.2-0.3-0.4q0-0.2 0.3-0.1 0.1 0 0.1 0zm-0.5 0.4q0 0 0 0z"/>
	<path class="s2" d="m27.8 21.2c0 0-0.1 0-0.1 0.1-0.1 0-0.2-0.1-0.2-0.1 0 0 0 0.1-0.1 0.1l-0.1-0.1-0.1 0.1c-0.1 0-0.1 0-0.1 0 0 0 0 0-0.1 0h-0.1v-0.1h-0.1v-0.1-0.1c0 0 0.1-0.1 0.2-0.1q0.1 0 0.1 0 0.1 0 0.1 0 0.1-0.1 0.3-0.1 0.2 0 0.3 0.1 0-0.1 0.1-0.1 0.1 0 0.1 0 0 0 0.1 0 0.2 0 0.3 0.1 0.1-0.1 0.2 0c0.1 0 0.2 0.1 0.2 0.1v0.1 0.1h-0.1l-0.1 0.1h-0.1-0.1c-0.1 0-0.1-0.1-0.1-0.1 0 0-0.1 0.1-0.2 0.1l-0.1-0.1c0 0 0 0.1-0.1 0.1 0-0.1-0.1-0.1-0.1-0.1z"/>
	<path fill-rule="evenodd" class="s5" d="m27.8 21.2c0 0-0.1 0-0.1 0.1-0.1 0-0.2-0.1-0.2-0.1 0 0 0 0.1-0.1 0.1l-0.1-0.1-0.1 0.1c-0.1 0-0.1 0-0.1 0 0 0 0 0-0.1 0h-0.1v-0.1h-0.1v-0.1-0.1c0 0 0.1-0.1 0.2-0.1q0.1 0 0.1 0 0.1 0 0.1 0 0.1-0.1 0.3-0.1 0.2 0 0.3 0.1 0-0.1 0.1-0.1 0.1 0 0.1 0 0 0 0.1 0 0.2 0 0.3 0.1 0.1-0.1 0.2 0c0.1 0 0.2 0.1 0.2 0.1v0.1 0.1h-0.1l-0.1 0.1h-0.1-0.1c-0.1 0-0.1-0.1-0.1-0.1 0 0-0.1 0.1-0.2 0.1l-0.1-0.1c0 0 0 0.1-0.1 0.1 0-0.1-0.1-0.1-0.1-0.1z"/>
	<path class="s4" d="m27.7 20.8c0-0.1 0-0.2 0.1-0.2 0.1 0 0.1 0.1 0.1 0.2 0 0.1 0 0.1-0.1 0.1-0.1 0-0.1 0-0.1-0.2"/>
	<path fill-rule="evenodd" class="s5" d="m27.7 20.8c0-0.1 0-0.2 0.1-0.2 0.1 0 0.1 0.1 0.1 0.2 0 0.1 0 0.1-0.1 0.1-0.1 0-0.1 0-0.1-0.2z"/>
	<path class="s4" d="m27.7 20.8q0-0.2 0.1-0.2c0 0 0.1 0.1 0.1 0.2q-0.1 0.1-0.1 0.1-0.1 0-0.1-0.2"/>
	<path fill-rule="evenodd" class="s5" d="m27.7 20.8q0-0.2 0.1-0.2c0 0 0.1 0.1 0.1 0.2q-0.1 0.1-0.1 0.1-0.1 0-0.1-0.2z"/>
	<path class="s4" d="m27.1 21.5q0-0.1-0.1-0.1 0.2 0 0.4 0 0.2-0.1 0.4-0.1 0.2 0 0.4 0.1 0.1 0 0.3 0v0.1q-0.1 0.1-0.1 0.1 0 0-0.1 0-0.1-0.1-0.2-0.1-0.1 0-0.2 0 0 0-0.1 0c-0.3 0-0.5 0-0.7 0.1z"/>
	<path fill-rule="evenodd" class="s5" d="m27.1 21.5q0-0.1-0.1-0.1 0.2 0 0.4 0 0.2-0.1 0.4-0.1 0.2 0 0.4 0.1 0.1 0 0.3 0v0.1q-0.1 0.1-0.1 0.1 0 0-0.1 0-0.1-0.1-0.2-0.1-0.1 0-0.2 0 0 0-0.1 0c-0.3 0-0.5 0-0.7 0.1z"/>
	<path class="s4" d="m27.8 21.8c0.2 0 0.5-0.1 0.6-0.1q0.1 0 0.1-0.1 0 0-0.1 0 0 0-0.1 0-0.1-0.1-0.2-0.1-0.1 0-0.2 0 0 0-0.1 0c-0.3 0-0.5 0-0.7 0.1q0 0.1 0.1 0.1c0.1 0 0.4 0.1 0.6 0.1z"/>
	<path fill-rule="evenodd" class="s5" d="m27.8 21.8c0.2 0 0.5-0.1 0.6-0.1q0.1 0 0.1-0.1 0 0-0.1 0 0 0-0.1 0-0.1-0.1-0.2-0.1-0.1 0-0.2 0 0 0-0.1 0c-0.3 0-0.5 0-0.7 0.1q0 0.1 0.1 0.1c0.1 0 0.4 0.1 0.6 0.1z"/>
	<path class="s6" d="m28.4 20.8q0 0.1 0 0.1 0-0.1 0-0.1z"/>
	<path fill-rule="evenodd" class="s5" d="m28.2 20.6q0 0 0.1 0 0 0 0 0.1 0 0-0.1-0.1zm-0.1 0q0-0.1 0-0.1 0.1 0 0.1 0.1 0 0-0.1 0zm-0.1-0.1q0 0 0 0.1-0.1 0-0.1 0 0-0.1 0.1-0.1zm0.4 0.4q0 0 0-0.1 0 0 0 0.1zm-0.1-0.2q0 0 0.1 0-0.1 0-0.1 0z"/>
	<path class="s10" d="m28.8 21.1v-0.1q0 0 0-0.1 0 0-0.1-0.1 0 0-0.1 0 0-0.1-0.1-0.1 0 0-0.1 0.1"/>
	<path class="s5" d="m28.3 20.9v-0.1c0-0.1-0.1-0.2-0.2-0.2q-0.1 0-0.2 0.1"/>
	<path fill-rule="evenodd" class="s5" d="m28.9 20.8q0 0.1 0 0.1-0.1 0-0.1-0.1 0 0 0 0 0 0-0.1 0 0-0.1 0-0.1 0.1 0 0.1 0 0 0 0 0.1 0 0 0 0 0 0 0.1 0zm-0.3-0.2q0.1 0 0.1 0.1 0 0-0.1 0 0-0.1 0-0.1zm-0.2 0.1q0-0.1 0.1-0.1 0 0 0 0.1-0.1 0-0.1 0zm0.5 0.3q-0.1 0-0.1 0 0 0 0.1 0zm-0.1 0z"/>
	<path class="s4" d="m28.5 21.3h-0.1c-0.1 0-0.1-0.1-0.1-0.1 0 0-0.1 0.1-0.2 0.1l-0.1-0.1c0 0 0 0-0.1 0-0.1 0-0.1 0-0.1 0h-0.1c-0.1 0-0.1 0-0.1 0 0 0-0.1 0-0.1 0.1-0.1 0-0.2-0.1-0.2-0.1 0 0 0 0.1-0.1 0.1h-0.1v0.1q0-0.1 0.1-0.1 0.1 0 0.2 0 0.1 0 0.2 0 0.1 0 0.2 0 0.4 0 0.7 0.1z"/>
	<path fill-rule="evenodd" class="s5" d="m28.5 21.3h-0.1c-0.1 0-0.1-0.1-0.1-0.1 0 0-0.1 0.1-0.2 0.1l-0.1-0.1c0 0 0 0-0.1 0-0.1 0-0.1 0-0.1 0h-0.1c-0.1 0-0.1 0-0.1 0 0 0-0.1 0-0.1 0.1-0.1 0-0.2-0.1-0.2-0.1 0 0 0 0.1-0.1 0.1h-0.1v0.1q0-0.1 0.1-0.1 0.1 0 0.2 0 0.1 0 0.2 0 0.1 0 0.2 0 0.4 0 0.7 0.1z"/>
	<path class="s6" d="m27.1 20.8q0 0 0.1 0 0 0 0 0.1-0.1 0-0.1 0 0-0.1 0-0.1z"/>
	<path fill-rule="evenodd" class="s5" d="m27.1 20.8q0 0 0.1 0 0 0 0 0.1-0.1 0-0.1 0 0-0.1 0-0.1zm0.2-0.2q0-0.1 0.1-0.1 0 0 0 0.1 0 0 0 0 0 0 0.1 0 0-0.1 0-0.1-0.1 0-0.1 0.1 0 0 0 0-0.1 0-0.1 0zm-0.1 0q0.1 0 0.1 0 0 0 0 0.1 0 0 0-0.1zm0 0.1z"/>
	<path class="s10" d="m26.8 21.1q0 0 0-0.1 0 0 0-0.1 0 0 0-0.1 0.1 0 0.1 0 0.1-0.1 0.1-0.1 0.1 0 0.2 0.1"/>
	<path class="s5" d="m27.3 20.9q0 0-0.1 0 0 0 0-0.1c0-0.1 0.2-0.2 0.3-0.2q0.1 0 0.1 0.1 0 0 0.1 0"/>
	<path fill-rule="evenodd" class="s5" d="m26.7 20.8q0.1 0 0.1 0 0 0.1-0.1 0.1 0 0 0-0.1zm0.1-0.1q0.1 0 0.1 0 0 0 0 0 0 0 0.1 0 0-0.1 0-0.1-0.1 0-0.1 0.1 0 0 0 0.1 0 0-0.1 0 0-0.1 0-0.1zm-0.1 0.3zm0 0zm0.4-0.3q0-0.1 0-0.1 0 0 0 0.1z"/>
	<path class="s4" d="m27.8 21.1q0 0.1 0.1 0.1 0.1 0 0.1 0 0 0 0-0.1v0.1q0.1 0 0.1 0 0.1 0 0.1-0.1h0.1q0 0.1 0 0.1 0 0.1 0.1 0.1 0 0 0.1-0.1 0 0.1 0 0.1 0 0 0.1 0 0.1-0.1 0.1-0.1c0 0 0 0.1-0.1 0.1q0 0.1-0.1 0.1 0 0 0-0.1 0 0-0.1 0-0.1 0-0.2-0.1 0 0.1 0 0.1 0 0-0.1 0 0 0-0.1-0.1 0 0.1 0 0.1 0 0-0.1 0-0.1 0-0.1-0.1-0.1 0.1-0.1 0.1-0.1 0-0.1-0.1-0.1 0-0.1 0.1-0.1 0-0.1 0 0 0-0.1-0.1 0 0.1-0.1 0.1-0.1 0-0.1 0 0 0.1-0.1 0.1 0 0-0.1-0.1 0 0-0.1-0.1h0.1v0.1q0.1 0 0.1 0 0.1 0 0.1-0.1 0 0.1 0.1 0.1 0 0 0.1-0.1 0-0.1 0-0.1 0 0.1 0.1 0.1 0.1 0 0.1-0.1 0.1 0.1 0.1 0.1 0.1 0 0.2-0.1z"/>
	<path fill-rule="evenodd" class="s5" d="m27.8 21.1q0 0.1 0.1 0.1 0.1 0 0.1 0 0 0 0-0.1v0.1q0.1 0 0.1 0 0.1 0 0.1-0.1h0.1q0 0.1 0 0.1 0 0.1 0.1 0.1 0 0 0.1-0.1 0 0.1 0 0.1 0 0 0.1 0 0.1-0.1 0.1-0.1c0 0 0 0.1-0.1 0.1q0 0.1-0.1 0.1 0 0 0-0.1 0 0-0.1 0-0.1 0-0.2-0.1 0 0.1 0 0.1 0 0-0.1 0 0 0-0.1-0.1 0 0.1 0 0.1 0 0-0.1 0-0.1 0-0.1-0.1-0.1 0.1-0.1 0.1-0.1 0-0.1-0.1-0.1 0-0.1 0.1-0.1 0-0.1 0 0 0-0.1-0.1 0 0.1-0.1 0.1-0.1 0-0.1 0 0 0.1-0.1 0.1 0 0-0.1-0.1 0 0-0.1-0.1h0.1v0.1q0.1 0 0.1 0 0.1 0 0.1-0.1 0 0.1 0.1 0.1 0 0 0.1-0.1 0-0.1 0-0.1 0 0.1 0.1 0.1 0.1 0 0.1-0.1 0.1 0.1 0.1 0.1 0.1 0 0.2-0.1z"/>
	<path class="s4" d="m27.8 21.3q-0.5 0-0.8 0.1 0.3-0.1 0.8-0.1 0.4 0 0.7 0.1 0.1 0 0.1 0h-0.1q-0.1 0-0.2 0-0.1 0-0.1 0-0.1-0.1-0.2-0.1-0.1 0-0.2 0z"/>
	<path fill-rule="evenodd" class="s5" d="m27.8 21.3q-0.5 0-0.8 0.1 0.3-0.1 0.8-0.1 0.4 0 0.7 0.1 0.1 0 0.1 0h-0.1q-0.1 0-0.2 0-0.1 0-0.1 0-0.1-0.1-0.2-0.1-0.1 0-0.2 0z"/>
	<path class="s6" d="m27.5 21.4q0 0 0.1 0 0 0 0 0.1-0.1 0-0.1-0.1z"/>
	<path fill-rule="evenodd" class="s5" d="m27.5 21.4q0 0 0.1 0 0 0 0 0.1-0.1 0-0.1-0.1z"/>
	<path class="s2" d="m27.8 21.5h-0.1q0 0 0-0.1h0.2q0 0 0 0.1z"/>
	<path class="s5" d="m27.8 21.5h-0.1q0 0 0-0.1h0.2q0 0 0 0.1z"/>
	<path class="s7" d="m27.3 21.5q0 0-0.1 0 0 0 0-0.1h0.1 0.1q0 0 0 0.1z"/>
	<path class="s5" d="m27.3 21.5q0 0-0.1 0 0 0 0-0.1h0.1 0.1q0 0 0 0.1z"/>
	<path class="s2" d="m27.1 21.5h0.1l-0.1 0.1z"/>
	<path fill-rule="evenodd" class="s5" d="m27.1 21.5h0.1l-0.1 0.1z"/>
	<path class="s6" d="m28 21.4q0.1 0 0.1 0 0 0.1-0.1 0.1 0-0.1 0-0.1z"/>
	<path fill-rule="evenodd" class="s5" d="m28 21.4q0.1 0 0.1 0 0 0.1-0.1 0.1 0-0.1 0-0.1z"/>
	<path class="s7" d="m28.3 21.5q0 0 0.1 0 0 0-0.1 0 0-0.1 0-0.1h-0.1q0 0.1 0 0.1z"/>
	<path class="s5" d="m28.3 21.5q0 0 0.1 0 0 0-0.1 0 0-0.1 0-0.1h-0.1q0 0.1 0 0.1z"/>
	<path class="s2" d="m28.5 21.5h-0.1l0.1 0.1z"/>
	<path fill-rule="evenodd" class="s5" d="m28.5 21.5h-0.1l0.1 0.1z"/>
	<path class="s2" d="m27.8 21.7q-0.1 0-0.2 0 0 0-0.1 0-0.1 0-0.2 0 0 0-0.1 0 0.1-0.1 0.1-0.1 0.1 0 0.2 0 0.1 0 0.1 0 0.1 0 0.2 0 0.3 0 0.6 0.1-0.3 0-0.6 0z"/>
	<path fill-rule="evenodd" class="s3" d="m27.8 21.7q-0.1 0-0.2 0 0 0-0.1 0-0.1 0-0.2 0 0 0-0.1 0 0.1-0.1 0.1-0.1 0.1 0 0.2 0 0.1 0 0.1 0 0.1 0 0.2 0 0.3 0 0.6 0.1-0.3 0-0.6 0z"/>
	<path class="s4" d="m28.5 21.2z"/>
	<path fill-rule="evenodd" class="s5" d="m28.5 21.2z"/>
	<path class="s4" d="m28.1 21.1q0 0-0.1 0 0 0 0 0.1z"/>
	<path fill-rule="evenodd" class="s5" d="m28.1 21.1q0 0-0.1 0 0 0 0 0.1z"/>
	<path class="s4" d="m27.5 21.1h0.1v0.1q-0.1-0.1-0.1-0.1z"/>
	<path fill-rule="evenodd" class="s5" d="m27.5 21.1h0.1v0.1q-0.1-0.1-0.1-0.1z"/>
	<path class="s4" d="m27.1 21.2q0 0-0.1 0z"/>
	<path fill-rule="evenodd" class="s5" d="m27.1 21.2q0 0-0.1 0z"/>
	<path class="s4" d="m27.8 20.9h-0.1l0.1 0.1 0.1-0.1z"/>
	<path fill-rule="evenodd" class="s5" d="m27.8 20.9h-0.1l0.1 0.1 0.1-0.1z"/>
	<path class="s4" d="m27.6 21.1h0.2v-0.1h-0.2z"/>
	<path fill-rule="evenodd" class="s5" d="m27.6 21.1h0.2v-0.1h-0.2z"/>
	<path class="s4" d="m28 21.1h-0.1-0.1v-0.1h0.1z"/>
	<path class="s5" d="m28 21.1h-0.1-0.1v-0.1h0.1 0.1"/>
	<path class="s4" d="m27.3 20.9l-0.1 0.1 0.1 0.1z"/>
	<path class="s5" d="m27.3 20.9l-0.1 0.1 0.1 0.1v-0.2h-0.1"/>
	<path class="s4" d="m27.1 21.1l0.1 0.1 0.1-0.1z"/>
	<path fill-rule="evenodd" class="s5" d="m27.1 21.1l0.1 0.1 0.1-0.1z"/>
	<path class="s4" d="m27.5 21.1h-0.1-0.1l0.1-0.1z"/>
	<path fill-rule="evenodd" class="s5" d="m27.5 21.1h-0.1-0.1l0.1-0.1z"/>
	<path class="s4" d="m27 21.1v0.1h-0.2l0.1-0.1z"/>
	<path fill-rule="evenodd" class="s5" d="m27 21.1v0.1h-0.2l0.1-0.1z"/>
	<path class="s4" d="m27.2 21.1q0-0.1 0.1-0.1 0 0 0 0.1 0 0-0.1 0z"/>
	<path fill-rule="evenodd" class="s5" d="m27.2 21.1q0-0.1 0.1-0.1 0 0 0 0.1 0 0-0.1 0z"/>
	<path class="s4" d="m28.3 20.9l0.1 0.1-0.1 0.1-0.1-0.2z"/>
	<path class="s5" d="m28.3 20.9l0.1 0.1-0.1 0.1-0.1-0.2z"/>
	<path class="s4" d="m28.5 21.1l-0.1 0.1-0.1-0.1h0.1z"/>
	<path fill-rule="evenodd" class="s5" d="m28.5 21.1l-0.1 0.1-0.1-0.1h0.1z"/>
	<path class="s4" d="m28.1 21.1h0.2l-0.1-0.1z"/>
	<path fill-rule="evenodd" class="s5" d="m28.1 21.1h0.2l-0.1-0.1z"/>
	<path class="s4" d="m28.6 21.1v0.1h0.1z"/>
	<path fill-rule="evenodd" class="s5" d="m28.6 21.1v0.1h0.1z"/>
	<path class="s4" d="m27.7 21q0 0 0.1 0 0 0.1 0 0.1-0.1 0-0.1 0 0-0.1 0-0.1z"/>
	<path fill-rule="evenodd" class="s5" d="m27.7 21q0 0 0.1 0 0 0.1 0 0.1-0.1 0-0.1 0 0-0.1 0-0.1z"/>
	<path class="s4" d="m28.2 21.1q0-0.1 0.1-0.1 0 0 0 0.1 0 0-0.1 0z"/>
	<path fill-rule="evenodd" class="s5" d="m28.2 21.1q0-0.1 0.1-0.1 0 0 0 0.1 0 0-0.1 0z"/>
	<path class="s4" d="m27.7 20.5q0 0 0.1 0h0.1q0 0.1-0.1 0.1-0.1 0-0.1 0 0 0 0-0.1z"/>
	<path class="s4" d="m27.9 20.5v0.1h-0.2v-0.1-0.1-0.1h0.1 0.1v0.1h-0.1v0.1"/>
	<path fill-rule="evenodd" class="s5" d="m27.9 20.5v0.1h-0.2v-0.1-0.1-0.1h0.1 0.1v0.1h-0.1v0.1z"/>
	<path class="s4" d="m27.9 20.5v0.1h-0.2v-0.1h0.1v-0.1h-0.1v-0.1h0.1 0.1v0.1h-0.1v0.1z"/>
	<path class="s5" d="m27.8 20.5q0.1 0 0.1 0 0 0.1-0.1 0.1-0.1 0-0.1 0 0 0 0-0.1 0 0 0.1 0z"/>
	<path class="s4" d="m26.8 21.2h-0.1q0-0.1 0-0.1 0.1 0 0.1 0z"/>
	<path fill-rule="evenodd" class="s5" d="m26.8 21.2h-0.1q0-0.1 0-0.1 0.1 0 0.1 0z"/>
	<path class="s4" d="m26.8 21.2q0 0 0.1 0 0 0 0 0.1l-0.1-0.1z"/>
	<path fill-rule="evenodd" class="s5" d="m26.8 21.2q0 0 0.1 0 0 0 0 0.1l-0.1-0.1z"/>
	<path class="s4" d="m28.8 21.2c0-0.1 0.1-0.1 0.1-0.1q0 0-0.1 0 0 0-0.1 0v0.1z"/>
	<path fill-rule="evenodd" class="s5" d="m28.8 21.2c0-0.1 0.1-0.1 0.1-0.1q0 0-0.1 0 0 0-0.1 0v0.1z"/>
	<path class="s4" d="m28.8 21.2q-0.1 0-0.1 0 0 0 0 0.1v-0.1q0.1 0 0 0"/>
	<path fill-rule="evenodd" class="s5" d="m28.8 21.2q-0.1 0-0.1 0 0 0 0 0.1v-0.1q0.1 0 0 0z"/>
	<path class="s4" d="m28.9 21.8v0.5h-2.2v-0.6z"/>
	<path fill-rule="evenodd" class="s5" d="m28.9 21.8v0.5h-2.2v-0.6z"/>
	<path class="s4" d="m28.6 22.7h-1.7q0.1-0.1 0.1-0.1 0-0.1-0.1-0.2h1.7q-0.1 0.1-0.1 0.2 0 0 0.1 0.1z"/>
	<path fill-rule="evenodd" class="s3" d="m28.6 22.7h-1.7q0.1-0.1 0.1-0.1 0-0.1-0.1-0.2h1.7q-0.1 0.1-0.1 0.2 0 0 0.1 0.1z"/>
	<path class="s4" d="m27 22.7h1.6q0.1 0 0.1 0.1 0 0-0.1 0h-1.6q-0.1 0-0.1 0c0-0.1 0-0.1 0.1-0.1z"/>
	<path fill-rule="evenodd" class="s5" d="m27 22.7h1.6q0.1 0 0.1 0.1 0 0-0.1 0h-1.6q-0.1 0-0.1 0c0-0.1 0-0.1 0.1-0.1z"/>
	<path class="s4" d="m27 22.3h1.6q0.1 0 0.1 0.1 0 0-0.1 0h-1.6q-0.1 0-0.1 0 0-0.1 0.1-0.1z"/>
	<path fill-rule="evenodd" class="s5" d="m27 22.3h1.6q0.1 0 0.1 0.1 0 0-0.1 0h-1.6q-0.1 0-0.1 0 0-0.1 0.1-0.1z"/>
	<path class="s8" d="m26.3 31.7q0.2 0 0.4 0 0-0.1 0.1-0.1 0 0 0.1 0 0.1 0 0.1 0 0.3 0 0.4 0.1 0.2 0 0.4 0 0.2 0 0.4 0 0-0.1 0.1-0.1 0.1 0 0.1 0 0.1 0 0.1 0 0.1 0 0.1 0 0.1 0 0.1 0 0.1 0 0.1 0 0.1 0 0.1 0.1 0.2 0 0.4 0v0.3q-0.1 0-0.1 0-0.1 0-0.1 0-0.1-0.1-0.1-0.1-0.1 0-0.1 0 0 0-0.1 0 0-0.1-0.1-0.1 0 0-0.1 0 0 0-0.1 0-0.2 0-0.3 0.1-0.2 0.1-0.4 0.1-0.1 0-0.1 0-0.1 0-0.1 0 0-0.1-0.1-0.1 0 0-0.1 0 0 0-0.1 0 0-0.1-0.1-0.1 0 0-0.1 0 0 0-0.1 0 0 0-0.1 0-0.1 0-0.1 0.1-0.1 0-0.1 0-0.2 0.1-0.4 0.1z"/>
	<path fill-rule="evenodd" class="s5" d="m26.3 31.7q0.2 0 0.4 0 0-0.1 0.1-0.1 0 0 0.1 0 0.1 0 0.1 0 0.3 0 0.4 0.1 0.2 0 0.4 0 0.2 0 0.4 0 0-0.1 0.1-0.1 0.1 0 0.1 0 0.1 0 0.1 0 0.1 0 0.1 0 0.1 0 0.1 0 0.1 0 0.1 0 0.1 0 0.1 0.1 0.2 0 0.4 0v0.3q-0.1 0-0.1 0-0.1 0-0.1 0-0.1-0.1-0.1-0.1-0.1 0-0.1 0 0 0-0.1 0 0-0.1-0.1-0.1 0 0-0.1 0 0 0-0.1 0-0.2 0-0.3 0.1-0.2 0.1-0.4 0.1-0.1 0-0.1 0-0.1 0-0.1 0 0-0.1-0.1-0.1 0 0-0.1 0 0 0-0.1 0 0-0.1-0.1-0.1 0 0-0.1 0 0 0-0.1 0 0 0-0.1 0-0.1 0-0.1 0.1-0.1 0-0.1 0-0.2 0.1-0.4 0.1z"/>
	<path class="s9" d="m26.3 32q0.2 0 0.4-0.1 0.1-0.1 0.3-0.1 0.3 0 0.4 0.1 0.2 0.1 0.4 0.1 0 0 0.1 0 0 0 0.1 0 0-0.1 0.1-0.1 0 0 0.1 0 0 0 0.1 0 0-0.1 0-0.1 0.1 0 0.1 0 0.1 0 0.1 0 0.3 0 0.4 0.1 0.2 0.1 0.4 0.1v0.2q-0.1 0-0.1 0-0.1 0-0.1 0-0.1 0-0.1 0-0.1-0.1-0.1-0.1 0 0-0.1 0 0 0-0.1 0 0 0-0.1 0 0-0.1-0.1 0-0.2-0.1-0.3 0-0.2 0.1-0.4 0.1-0.1 0-0.1 0-0.1 0-0.1 0 0 0-0.1 0 0-0.1-0.1-0.1-0.1 0-0.4 0 0-0.1-0.1 0-0.1 0-0.1 0-0.1 0-0.1 0-0.1 0-0.1 0.1-0.1 0-0.1 0-0.1 0-0.1 0-0.1 0-0.1 0z"/>
	<path class="s5" d="m26.3 32q0.2 0 0.4-0.1 0.1-0.1 0.3-0.1 0.3 0 0.4 0.1 0.2 0.1 0.4 0.1 0 0 0.1 0 0 0 0.1 0 0-0.1 0.1-0.1 0 0 0.1 0 0 0 0.1 0 0-0.1 0-0.1 0.1 0 0.1 0 0.1 0 0.1 0 0.3 0 0.4 0.1 0.2 0.1 0.4 0.1v0.2q-0.1 0-0.1 0-0.1 0-0.1 0-0.1 0-0.1 0-0.1-0.1-0.1-0.1 0 0-0.1 0 0 0-0.1 0 0 0-0.1 0 0-0.1-0.1 0-0.2-0.1-0.3 0-0.2 0.1-0.4 0.1-0.1 0-0.1 0-0.1 0-0.1 0 0 0-0.1 0 0-0.1-0.1-0.1-0.1 0-0.4 0 0-0.1-0.1 0-0.1 0-0.1 0-0.1 0-0.1 0-0.1 0-0.1 0.1-0.1 0-0.1 0-0.1 0-0.1 0-0.1 0-0.1 0z"/>
	<path class="s8" d="m26.3 32.2q0.2 0 0.4-0.1 0.1 0 0.3 0 0.3-0.1 0.4 0 0.2 0.1 0.4 0.1 0 0 0.1 0 0 0 0.1 0 0 0 0.1 0 0-0.1 0.1-0.1 0 0 0.1 0 0.1-0.1 0.1-0.1 0.1 0 0.1 0 0.1 0 0.1 0 0.1 0 0.1 0.1 0.1 0 0.1 0 0.1 0 0.1 0 0.2 0.1 0.4 0.1v0.2q-0.1 0-0.1 0-0.1 0-0.1 0-0.1 0-0.1 0-0.1 0-0.1-0.1 0 0-0.1 0 0 0-0.1 0 0 0-0.1 0 0 0-0.1 0-0.2 0-0.3 0-0.2 0.1-0.4 0.1-0.2 0-0.4 0 0-0.1-0.1-0.1 0 0-0.1 0 0 0-0.1 0 0 0-0.1 0 0 0-0.1 0-0.1 0-0.1 0-0.1 0-0.1 0.1-0.2 0-0.4 0z"/>
	<path class="s5" d="m26.3 32.2q0.2 0 0.4-0.1 0.1 0 0.3 0 0.3-0.1 0.4 0 0.2 0.1 0.4 0.1 0 0 0.1 0 0 0 0.1 0 0 0 0.1 0 0-0.1 0.1-0.1 0 0 0.1 0 0.1-0.1 0.1-0.1 0.1 0 0.1 0 0.1 0 0.1 0 0.1 0 0.1 0.1 0.1 0 0.1 0 0.1 0 0.1 0 0.2 0.1 0.4 0.1v0.2q-0.1 0-0.1 0-0.1 0-0.1 0-0.1 0-0.1 0-0.1 0-0.1-0.1 0 0-0.1 0 0 0-0.1 0 0 0-0.1 0 0 0-0.1 0-0.2 0-0.3 0-0.2 0.1-0.4 0.1-0.2 0-0.4 0 0-0.1-0.1-0.1 0 0-0.1 0 0 0-0.1 0 0 0-0.1 0 0 0-0.1 0-0.1 0-0.1 0-0.1 0-0.1 0.1-0.2 0-0.4 0z"/>
	<path class="s9" d="m26.3 32.7q0 0 0.1 0 0 0 0.1 0 0-0.1 0.1-0.1 0 0 0.1 0 0.1-0.1 0.3-0.1 0.3 0 0.4 0.1 0.2 0.1 0.4 0.1 0.2 0 0.4-0.1 0 0 0.1-0.1 0.1 0 0.1 0 0.1 0 0.1 0 0.3 0 0.4 0.1 0 0 0.1 0 0 0 0.1 0.1 0 0 0.1 0 0 0 0.1 0v-0.3q-0.1 0-0.1 0-0.1 0-0.1 0-0.1 0-0.1 0-0.1 0-0.1 0 0-0.1-0.1-0.1 0 0-0.1 0 0 0-0.1 0 0 0-0.1 0-0.2 0-0.3 0.1-0.2 0-0.4 0-0.2 0-0.4 0 0-0.1-0.1-0.1 0 0-0.1 0 0 0-0.1 0 0 0-0.1 0 0 0-0.1 0-0.1 0-0.1 0-0.1 0-0.1 0.1-0.2 0-0.4 0z"/>
	<path class="s5" d="m26.3 32.7q0 0 0.1 0 0 0 0.1 0 0-0.1 0.1-0.1 0 0 0.1 0 0.1-0.1 0.3-0.1 0.3 0 0.4 0.1 0.2 0.1 0.4 0.1 0.2 0 0.4-0.1 0 0 0.1-0.1 0.1 0 0.1 0 0.1 0 0.1 0 0.3 0 0.4 0.1 0 0 0.1 0 0 0 0.1 0.1 0 0 0.1 0 0 0 0.1 0v-0.3q-0.1 0-0.1 0-0.1 0-0.1 0-0.1 0-0.1 0-0.1 0-0.1 0 0-0.1-0.1-0.1 0 0-0.1 0 0 0-0.1 0 0 0-0.1 0-0.2 0-0.3 0.1-0.2 0-0.4 0-0.2 0-0.4 0 0-0.1-0.1-0.1 0 0-0.1 0 0 0-0.1 0 0 0-0.1 0 0 0-0.1 0-0.1 0-0.1 0-0.1 0-0.1 0.1-0.2 0-0.4 0z"/>
	<path class="s8" d="m26.3 32.9q0 0 0.1 0 0 0 0.1 0 0 0 0.1 0 0-0.1 0.1-0.1 0.1-0.1 0.3-0.1 0.3 0 0.4 0.1 0.2 0.1 0.4 0.1 0 0 0.1 0 0 0 0.1 0 0 0 0.1-0.1 0 0 0.1 0 0 0 0.1 0 0.1-0.1 0.1-0.1 0.1 0 0.1 0 0.3 0 0.4 0.1 0.2 0.1 0.4 0.1v-0.2q-0.1 0-0.1 0-0.1 0-0.1 0-0.1-0.1-0.1-0.1-0.1 0-0.1 0 0 0-0.1 0 0-0.1-0.1-0.1 0 0-0.1 0 0 0-0.1 0 0 0-0.1 0 0 0-0.1 0-0.1 0.1-0.1 0.1-0.1 0-0.1 0-0.1 0-0.1 0-0.1 0.1-0.1 0.1-0.1 0-0.1 0-0.2 0-0.4-0.1-0.1-0.1-0.4-0.1-0.2 0-0.3 0.1-0.2 0.1-0.4 0.1z"/>
	<path fill-rule="evenodd" class="s5" d="m26.3 32.9q0 0 0.1 0 0 0 0.1 0 0 0 0.1 0 0-0.1 0.1-0.1 0.1-0.1 0.3-0.1 0.3 0 0.4 0.1 0.2 0.1 0.4 0.1 0 0 0.1 0 0 0 0.1 0 0 0 0.1-0.1 0 0 0.1 0 0 0 0.1 0 0.1-0.1 0.1-0.1 0.1 0 0.1 0 0.3 0 0.4 0.1 0.2 0.1 0.4 0.1v-0.2q-0.1 0-0.1 0-0.1 0-0.1 0-0.1-0.1-0.1-0.1-0.1 0-0.1 0 0 0-0.1 0 0-0.1-0.1-0.1 0 0-0.1 0 0 0-0.1 0 0 0-0.1 0 0 0-0.1 0-0.1 0.1-0.1 0.1-0.1 0-0.1 0-0.1 0-0.1 0-0.1 0.1-0.1 0.1-0.1 0-0.1 0-0.2 0-0.4-0.1-0.1-0.1-0.4-0.1-0.2 0-0.3 0.1-0.2 0.1-0.4 0.1z"/>
	<path class="s4" d="m28.6 30.8v0.1c0 0.1 0.1 0.2 0.3 0.2h-2.2c0.1 0 0.3-0.1 0.3-0.2l-0.1-0.1z"/>
	<path fill-rule="evenodd" class="s3" d="m28.6 30.8v0.1c0 0.1 0.1 0.2 0.3 0.2h-2.2c0.1 0 0.3-0.1 0.3-0.2l-0.1-0.1z"/>
	<path class="s4" d="m27 30.7h1.6q0.1 0 0.1 0 0 0.1-0.1 0.1h-1.6q-0.1 0-0.1-0.1 0 0 0.1 0z"/>
	<path fill-rule="evenodd" class="s5" d="m27 30.7h1.6q0.1 0 0.1 0 0 0.1-0.1 0.1h-1.6q-0.1 0-0.1-0.1 0 0 0.1 0z"/>
	<path class="s4" d="m28.9 31.1v0.6h-2.2v-0.6z"/>
	<path fill-rule="evenodd" class="s5" d="m28.9 31.1v0.6h-2.2v-0.6z"/>
	<path class="s2" d="m29.1 28.7q0.3 0.1 0.3 0.3 0 0.1-0.2 0.2c-0.1 0.1-0.2 0.3-0.2 0.4q-0.1-0.1-0.1-0.2-0.1-0.2-0.1-0.3 0-0.1 0.1-0.2 0.1-0.2 0.2-0.2z"/>
	<path fill-rule="evenodd" class="s5" d="m29.1 28.7q0.3 0.1 0.3 0.3 0 0.1-0.2 0.2c-0.1 0.1-0.2 0.3-0.2 0.4q-0.1-0.1-0.1-0.2-0.1-0.2-0.1-0.3 0-0.1 0.1-0.2 0.1-0.2 0.2-0.2z"/>
	<path class="s9" d="m27 30.6h1.6v-7.7h-1.6v7.6z"/>
	<path class="s5" d="m28.3 22.9v7.6"/>
	<path class="s5" d="m28.1 22.9v7.6"/>
	<path fill-rule="evenodd" class="s5" d="m27 30.6h1.6v-7.7h-1.6v7.6z"/>
	<path class="s2" d="m25.4 25.8q0.3-0.1 0.6-0.2 0.3 0 0.6-0.1 0.3 0 0.6 0 0.3 0 0.6 0.1c0.9 0.1 1.6 0.5 1.5 0.8l0.4-0.8c0.1-0.3-0.7-0.7-1.8-0.9q-0.1 0-0.2 0-0.1-0.1-0.2-0.1-0.1 0-0.3 0-0.1 0-0.2 0c-0.7 0-1.2 0.1-1.6 0.2z"/>
	<path fill-rule="evenodd" class="s3" d="m25.4 25.8q0.3-0.1 0.6-0.2 0.3 0 0.6-0.1 0.3 0 0.6 0 0.3 0 0.6 0.1c0.9 0.1 1.6 0.5 1.5 0.8l0.4-0.8c0.1-0.3-0.7-0.7-1.8-0.9q-0.1 0-0.2 0-0.1-0.1-0.2-0.1-0.1 0-0.3 0-0.1 0-0.2 0c-0.7 0-1.2 0.1-1.6 0.2z"/>
	<path class="s2" d="m28.6 26.7c0.4 0 0.7-0.1 0.7-0.3q0.1-0.2-0.3-0.4-0.2 0-0.4 0z"/>
	<path fill-rule="evenodd" class="s5" d="m28.6 26.7c0.4 0 0.7-0.1 0.7-0.3q0.1-0.2-0.3-0.4-0.2 0-0.4 0z"/>
	<path class="s2" d="m27 26.2q-0.1 0-0.1 0-0.1 0-0.2 0-0.1 0-0.1 0.1-0.1 0-0.2 0v0.1c0 0.1 0.2 0.3 0.6 0.5v-0.8"/>
	<path class="s5" d="m27 26.2q-0.1 0-0.1 0-0.1 0-0.2 0-0.1 0-0.1 0.1-0.1 0-0.2 0v0.1c0 0.1 0.2 0.3 0.6 0.5v-0.8"/>
	<path class="s2" d="m29.5 28.2c0.1-0.1-0.3-0.4-0.9-0.6-0.3-0.1-0.5-0.2-0.8-0.3-0.8-0.4-1.4-0.8-1.4-0.9v-0.1c0 0.1-0.1 0.8-0.1 0.8-0.1 0.2 0.5 0.6 1.3 1 0.2 0.1 0.7 0.3 1 0.4 0.4 0.1 0.8 0.4 0.8 0.5z"/>
	<path fill-rule="evenodd" class="s3" d="m29.5 28.2c0.1-0.1-0.3-0.4-0.9-0.6-0.3-0.1-0.5-0.2-0.8-0.3-0.8-0.4-1.4-0.8-1.4-0.9v-0.1c0 0.1-0.1 0.8-0.1 0.8-0.1 0.2 0.5 0.6 1.3 1 0.2 0.1 0.7 0.3 1 0.4 0.4 0.1 0.8 0.4 0.8 0.5z"/>
	<path fill-rule="evenodd" class="s4" d="m26.3 25.5v-0.1q-0.1 0-0.1-0.1-0.1-0.1-0.1-0.1-0.1-0.1-0.1-0.2-0.1-0.1-0.1-0.1h0.2q0.1 0.2 0.3 0.4 0-0.1 0-0.1 0-0.1 0-0.2 0.1 0 0.1-0.1 0 0 0-0.1 0 0 0.1 0-0.1 0.3-0.2 0.6zm0.6-0.1h0.3v0.1h-0.4v-0.6h0.1zm0.7-0.5v0.6h-0.2l0.1-0.6q-0.1 0-0.1 0-0.1 0-0.1 0v-0.1l0.5 0.1v0.1zm0.4 0l0.3 0.1h0.1q0.1 0.1 0.1 0.2c0 0.1-0.1 0.1-0.2 0.1q0 0.1 0.1 0.3h-0.1l-0.1-0.2-0.1-0.1-0.1 0.3v-0.1q-0.1 0-0.1 0zm0.1 0.3q0.1 0.1 0.2 0v-0.1c0-0.1-0.1-0.1-0.2-0.1zm0.9 0.5l-0.2-0.1-0.2 0.1-0.1-0.1 0.6-0.4q0.1 0.1 0.1 0.1l-0.1 0.7v-0.1h-0.1zm0-0.1v-0.2l-0.2 0.1z"/>
	<path fill-rule="evenodd" class="s5" d="m18.2 19.2c0-0.1 0.1-0.2 0.2-0.2 0.1 0 0.2 0.1 0.2 0.2 0 0.2-0.1 0.2-0.2 0.2q-0.1 0-0.1 0 0 0-0.1-0.1 0 0 0-0.1z"/>
	<path class="s11" d="m20.6 17.5c0.6 0 1.2 0.1 1.5 0.3q0.2 0.1 0.4 0.1 0.2 0.1 0.4 0.1 0.1 0 0.3 0 0.2 0 0.4 0c0.3 0 0.6 0.1 1 0.3q0.1 0 0.2 0 0.1 0.1 0.2 0.2 0.1 0 0.2 0.1 0.1 0 0.2 0.1l-0.2 0.2v0.3l-0.4 0.5-0.2 0.2-0.5 0.4h-0.3l-0.1 0.2-3.1-0.4-3.2 0.4-0.1-0.2h-0.2l-0.5-0.4-0.2-0.2-0.4-0.5-0.1-0.3-0.1-0.2q0.1-0.1 0.2-0.1 0.1-0.1 0.1-0.1 0.1-0.1 0.2-0.2 0.1 0 0.2 0 0.2-0.1 0.3-0.1 0.1-0.1 0.2-0.1 0.2-0.1 0.3-0.1 0.1 0 0.3 0 0.3 0 0.6 0 0.1 0 0.2 0 0.1-0.1 0.2-0.1 0.1 0 0.2 0 0.1-0.1 0.2-0.1c0.4-0.2 0.9-0.3 1.6-0.3z"/>
	<path class="s12" d="m20.6 21.7q-1.8 0-3-0.3 0-0.1 0-0.1-0.1-0.1-0.1-0.1 0.1-0.1 0.1-0.1 0.4-0.1 0.8-0.2 0.3 0 0.7-0.1 0.4 0 0.8 0 0.3-0.1 0.7 0c1.2 0 2.3 0.1 3 0.3q0 0 0.1 0.1 0 0.1 0 0.1-0.1 0-0.1 0.1-1.2 0.3-3 0.3z"/>
	<path class="s2" d="m20.6 21.6c-1.1 0-2-0.2-2.7-0.4 0.7-0.2 1.6-0.2 2.7-0.3q0.4 0 0.7 0.1 0.4 0 0.7 0 0.3 0 0.7 0.1 0.3 0.1 0.7 0.1c-0.8 0.2-1.7 0.4-2.8 0.4z"/>
	<path class="s5" d="m20.7 21.6v-0.7"/>
	<path class="s5" d="m20.5 21.6v-0.7"/>
	<path class="s5" d="m20.4 21.6v-0.7"/>
	<path class="s5" d="m20.2 21.6v-0.7"/>
	<path class="s5" d="m20.1 21.6v-0.7"/>
	<path class="s5" d="m19.8 21.5v-0.5"/>
	<path class="s5" d="m19.9 21.5v-0.6"/>
	<path class="s5" d="m19.5 21.5v-0.5"/>
	<path class="s5" d="m19.7 21.5v-0.5"/>
	<path class="s5" d="m19.2 21.5v-0.5"/>
	<path class="s5" d="m19.3 21.5v-0.5"/>
	<path class="s5" d="m19.4 21.5v-0.5"/>
	<path class="s5" d="m19.1 21.5v-0.5"/>
	<path class="s5" d="m19 21.5v-0.5"/>
	<path class="s5" d="m18.9 21.4v-0.4"/>
	<path class="s5" d="m18.6 21.4v-0.3"/>
	<path class="s5" d="m18.7 21.4v-0.3"/>
	<path class="s5" d="m18.5 21.4v-0.3"/>
	<path class="s5" d="m18.4 21.4v-0.3"/>
	<path class="s5" d="m18.2 21.3v-0.2"/>
	<path class="s5" d="m18.1 21.3v-0.1"/>
	<path class="s5" d="m18 21.3v-0.1"/>
	<path class="s5" d="m21.4 21.5v-0.5"/>
	<path class="s5" d="m21.1 21.6v-0.7"/>
	<path class="s5" d="m20.9 21.6v-0.7"/>
	<path class="s12" d="m20.6 20.7q-0.4 0-0.8 0.1-0.3 0-0.7 0-0.4 0.1-0.8 0.2-0.3 0-0.7 0.1 0.2 0 0-0.3c-0.1-0.2-0.3-0.2-0.3-0.2 0.9-0.3 2-0.4 3.3-0.4q0.4 0 0.8 0 0.5 0 0.9 0.1 0.4 0 0.8 0.1 0.4 0.1 0.8 0.2c0.3 0.1-0.1 0-0.2 0.2-0.1 0.2-0.1 0.3-0.1 0.3-0.7-0.2-1.8-0.3-3-0.3"/>
	<path class="s12" d="m20.6 20.2c-1.3 0-2.4 0.1-3.3 0.4q-0.1 0-0.1 0 0-0.1 0-0.1 0 0 0-0.1 0 0 0.1 0 0.4-0.1 0.8-0.2 0.4-0.1 0.8-0.1 0.4-0.1 0.9-0.1 0.4 0 0.8 0c1.3 0 2.5 0.2 3.4 0.4q0.1 0 0 0.1 0 0.1-0.1 0.1c-0.8-0.3-2-0.4-3.3-0.4z"/>
	<path fill-rule="evenodd" class="s3" d="m20.6 21.6c-1.1 0-2-0.2-2.7-0.4 0.7-0.2 1.6-0.2 2.7-0.3q0.4 0 0.7 0.1 0.4 0 0.7 0 0.3 0 0.7 0.1 0.3 0.1 0.7 0.1c-0.8 0.2-1.7 0.4-2.8 0.4z"/>
	<path class="s13" d="m19.7 20.5q0-0.1 0.1-0.1c0.1 0 0.1 0 0.1 0.1q0 0.1-0.1 0.1-0.1 0-0.1 0 0-0.1 0-0.1z"/>
	<path class="s11" d="m20.6 20.6h-0.3q0 0-0.1-0.1 0-0.1 0-0.1 0.1 0 0.1 0h0.6c0.1 0 0.1 0 0.1 0.1 0 0 0 0.1-0.1 0.1z"/>
	<path class="s14" d="m19 20.7h-0.2q-0.1 0-0.1-0.1 0 0 0-0.1 0.1 0 0.1 0h0.2l0.2-0.1q0.1 0 0.2 0.1 0 0.1-0.1 0.1z"/>
	<path class="s13" d="m18.1 20.7q0-0.1 0.1-0.1 0.1 0 0.1 0.1 0 0.1-0.1 0.1 0 0-0.1-0.1z"/>
	<path class="s11" d="m17.4 20.9l0.1-0.2h0.4l-0.3 0.2z"/>
	<path class="s14" d="m22.2 20.7h0.2q0.1 0 0.1-0.1 0-0.1 0-0.1h-0.3l-0.2-0.1q-0.1 0-0.1 0 0 0.1 0 0.1 0 0.1 0.1 0.1z"/>
	<path class="s13" d="m21.3 20.5q0-0.1 0.1-0.1 0.1 0 0.1 0.1 0 0.1-0.1 0.1-0.1-0.1-0.1-0.1zm1.6 0.2q0-0.1 0.1-0.1 0.1 0 0.1 0.1 0 0.1-0.1 0.1 0 0-0.1-0.1z"/>
	<path class="s11" d="m23.8 20.9l-0.1-0.2h-0.3l0.2 0.2z"/>
	<path class="s5" d="m17.7 21.3c0.8-0.2 1.8-0.4 2.9-0.4 1.1 0 2.2 0.2 2.9 0.4"/>
	<path class="s4" d="m18.2 18.4l0.2 0.1 0.2-0.3q-0.1-0.1-0.2-0.2-0.1-0.1-0.1-0.1-0.1-0.1-0.1-0.2 0-0.2 0-0.3c0-0.4 0.5-0.7 1.2-0.7 0.3 0 0.6 0.1 0.8 0.2q0-0.1 0.1-0.2-0.1 0-0.3-0.1-0.1 0-0.2 0-0.1 0-0.2-0.1-0.1 0-0.2 0c-0.8 0-1.3 0.4-1.4 0.9q0 0.1 0 0.3 0 0.1 0.1 0.2 0 0.1 0.1 0.1 0 0.1 0.1 0.2z"/>
	<path fill-rule="evenodd" class="s5" d="m18.2 18.4l0.2 0.1 0.2-0.3q-0.1-0.1-0.2-0.2-0.1-0.1-0.1-0.1-0.1-0.1-0.1-0.2 0-0.2 0-0.3c0-0.4 0.5-0.7 1.2-0.7 0.3 0 0.6 0.1 0.8 0.2q0-0.1 0.1-0.2-0.1 0-0.3-0.1-0.1 0-0.2 0-0.1 0-0.2-0.1-0.1 0-0.2 0c-0.8 0-1.3 0.4-1.4 0.9q0 0.1 0 0.3 0 0.1 0.1 0.2 0 0.1 0.1 0.1 0 0.1 0.1 0.2z"/>
	<path class="s4" d="m18.2 18.4q0-0.1-0.1-0.2-0.1 0-0.1-0.1-0.1-0.1-0.1-0.2-0.1-0.1-0.1-0.2c0-0.4 0.2-0.7 0.6-0.8q-0.1 0-0.2 0.1 0 0.1-0.1 0.1 0 0.1 0 0.2-0.1 0.1-0.1 0.2 0 0.1 0 0.2 0.1 0.1 0.1 0.2 0 0.1 0.1 0.2 0.1 0 0.1 0.1z"/>
	<path fill-rule="evenodd" class="s5" d="m18.2 18.4q0-0.1-0.1-0.2-0.1 0-0.1-0.1-0.1-0.1-0.1-0.2-0.1-0.1-0.1-0.2c0-0.4 0.2-0.7 0.6-0.8q-0.1 0-0.2 0.1 0 0.1-0.1 0.1 0 0.1 0 0.2-0.1 0.1-0.1 0.2 0 0.1 0 0.2 0.1 0.1 0.1 0.2 0 0.1 0.1 0.2 0.1 0 0.1 0.1z"/>
	<path class="s4" d="m16 18.7q0 0-0.1-0.1 0-0.1-0.1-0.2 0 0 0-0.1 0-0.1 0-0.2 0-0.2 0.1-0.4c0.2-0.4 0.8-0.7 1.6-0.7q0.3 0 0.6 0.1l-0.1 0.1q-0.1 0-0.2 0 0 0-0.1 0 0 0-0.1 0-0.1 0-0.1 0c-0.7 0-1.3 0.3-1.5 0.6q0 0 0 0.1 0 0 0 0.1 0 0.1 0 0.1 0 0.1 0 0.2 0 0.1 0 0.1 0.1 0.1 0.1 0.2 0.1 0 0.1 0.1l-0.2 0.4-0.2-0.1z"/>
	<path fill-rule="evenodd" class="s5" d="m16 18.7q0 0-0.1-0.1 0-0.1-0.1-0.2 0 0 0-0.1 0-0.1 0-0.2 0-0.2 0.1-0.4c0.2-0.4 0.8-0.7 1.6-0.7q0.3 0 0.6 0.1l-0.1 0.1q-0.1 0-0.2 0 0 0-0.1 0 0 0-0.1 0-0.1 0-0.1 0c-0.7 0-1.3 0.3-1.5 0.6q0 0 0 0.1 0 0 0 0.1 0 0.1 0 0.1 0 0.1 0 0.2 0 0.1 0 0.1 0.1 0.1 0.1 0.2 0.1 0 0.1 0.1l-0.2 0.4-0.2-0.1z"/>
	<path class="s4" d="m16.3 17.3q-0.1 0.1-0.2 0.1 0 0.1-0.1 0.1 0 0.1-0.1 0.1 0 0.1 0 0.1-0.1 0.1-0.1 0.1 0 0.1 0 0.1 0 0.1 0 0.1 0 0.1 0 0.1 0 0.4 0.2 0.6l-0.1 0.3q-0.1-0.1-0.1-0.2-0.1-0.1-0.1-0.1 0-0.1-0.1-0.2 0-0.1 0-0.2c0-0.4 0.3-0.7 0.7-1z"/>
	<path fill-rule="evenodd" class="s5" d="m16.3 17.3q-0.1 0.1-0.2 0.1 0 0.1-0.1 0.1 0 0.1-0.1 0.1 0 0.1 0 0.1-0.1 0.1-0.1 0.1 0 0.1 0 0.1 0 0.1 0 0.1 0 0.1 0 0.1 0 0.4 0.2 0.6l-0.1 0.3q-0.1-0.1-0.1-0.2-0.1-0.1-0.1-0.1 0-0.1-0.1-0.2 0-0.1 0-0.2c0-0.4 0.3-0.7 0.7-1z"/>
	<path class="s4" d="m20.6 16.4c0.2 0 0.3 0.2 0.4 0.3q0 0.2 0 0.5v0.1c0 0.3 0 0.6 0.1 0.8l-0.5 0.5-0.5-0.5c0.1-0.2 0.1-0.5 0.1-0.8v-0.1q0-0.3 0.1-0.5c0-0.1 0.1-0.3 0.3-0.3z"/>
	<path fill-rule="evenodd" class="s5" d="m20.6 16.4c0.2 0 0.3 0.2 0.4 0.3q0 0.2 0 0.5v0.1c0 0.3 0 0.6 0.1 0.8l-0.5 0.5-0.5-0.5c0.1-0.2 0.1-0.5 0.1-0.8v-0.1q0-0.3 0.1-0.5c0-0.1 0.1-0.3 0.3-0.3z"/>
	<path class="s4" d="m20.6 16.6q0.2 0 0.2 0.1 0 0.2 0 0.5v0.1c0 0.3 0.1 0.6 0.1 0.7l-0.3 0.3-0.3-0.3c0-0.1 0.1-0.4 0.1-0.7v-0.1q0-0.1 0-0.1 0-0.1 0-0.2 0 0 0-0.1 0 0 0-0.1 0.1 0 0.1-0.1 0.1 0 0.1 0z"/>
	<path fill-rule="evenodd" class="s5" d="m20.6 16.6q0.2 0 0.2 0.1 0 0.2 0 0.5v0.1c0 0.3 0.1 0.6 0.1 0.7l-0.3 0.3-0.3-0.3c0-0.1 0.1-0.4 0.1-0.7v-0.1q0-0.1 0-0.1 0-0.1 0-0.2 0 0 0-0.1 0 0 0-0.1 0.1 0 0.1-0.1 0.1 0 0.1 0z"/>
	<path class="s4" d="m23 18.4l-0.2 0.1-0.2-0.3q0.1-0.1 0.2-0.2 0.1 0 0.1-0.1 0-0.1 0.1-0.2 0-0.1 0-0.2 0 0 0-0.1c0-0.4-0.5-0.7-1.2-0.7q-0.1 0-0.2 0-0.1 0-0.2 0-0.1 0.1-0.2 0.1-0.1 0.1-0.2 0.1 0 0 0-0.1 0 0 0-0.1 0.1 0 0.2-0.1 0.1 0 0.2 0 0.1 0 0.2-0.1 0.1 0 0.2 0c0.8 0 1.3 0.4 1.4 0.9q0 0.1 0 0.3 0 0.1-0.1 0.2 0 0.1-0.1 0.1 0 0.1-0.1 0.2z"/>
	<path fill-rule="evenodd" class="s5" d="m23 18.4l-0.2 0.1-0.2-0.3q0.1-0.1 0.2-0.2 0.1 0 0.1-0.1 0-0.1 0.1-0.2 0-0.1 0-0.2 0 0 0-0.1c0-0.4-0.5-0.7-1.2-0.7q-0.1 0-0.2 0-0.1 0-0.2 0-0.1 0.1-0.2 0.1-0.1 0.1-0.2 0.1 0 0 0-0.1 0 0 0-0.1 0.1 0 0.2-0.1 0.1 0 0.2 0 0.1 0 0.2-0.1 0.1 0 0.2 0c0.8 0 1.3 0.4 1.4 0.9q0 0.1 0 0.3 0 0.1-0.1 0.2 0 0.1-0.1 0.1 0 0.1-0.1 0.2z"/>
	<path class="s4" d="m23 18.4q0.1-0.1 0.1-0.2 0.1 0 0.2-0.1 0-0.1 0-0.2 0.1-0.1 0.1-0.2c0-0.4-0.2-0.7-0.6-0.8q0.1 0 0.2 0.1 0 0.1 0.1 0.1 0 0.1 0.1 0.2 0 0.1 0 0.2 0 0.1 0 0.2-0.1 0.1-0.1 0.2 0 0.1-0.1 0.2-0.1 0-0.1 0.1z"/>
	<path fill-rule="evenodd" class="s5" d="m23 18.4q0.1-0.1 0.1-0.2 0.1 0 0.2-0.1 0-0.1 0-0.2 0.1-0.1 0.1-0.2c0-0.4-0.2-0.7-0.6-0.8q0.1 0 0.2 0.1 0 0.1 0.1 0.1 0 0.1 0.1 0.2 0 0.1 0 0.2 0 0.1 0 0.2-0.1 0.1-0.1 0.2 0 0.1-0.1 0.2-0.1 0-0.1 0.1z"/>
	<path class="s4" d="m25.2 18.7q0.1-0.1 0.1-0.1 0-0.1 0.1-0.2 0 0 0-0.1 0-0.1 0-0.2 0 0 0-0.1 0 0 0-0.1 0 0 0-0.1 0 0-0.1-0.1c-0.2-0.4-0.8-0.7-1.6-0.7q0 0-0.1 0-0.1 0-0.2 0 0 0-0.1 0.1-0.1 0-0.2 0l0.1 0.1q0.1 0 0.2 0 0 0 0.1 0 0 0 0.1 0 0.1 0 0.1 0c0.7 0 1.3 0.3 1.5 0.6q0 0.2 0 0.3 0 0.1 0 0.2 0 0.1 0 0.1-0.1 0.1-0.1 0.2-0.1 0-0.1 0.1l0.2 0.4 0.2-0.1z"/>
	<path fill-rule="evenodd" class="s5" d="m25.2 18.7q0.1-0.1 0.1-0.1 0-0.1 0.1-0.2 0 0 0-0.1 0-0.1 0-0.2 0 0 0-0.1 0 0 0-0.1 0 0 0-0.1 0 0-0.1-0.1c-0.2-0.4-0.8-0.7-1.6-0.7q0 0-0.1 0-0.1 0-0.2 0 0 0-0.1 0.1-0.1 0-0.2 0l0.1 0.1q0.1 0 0.2 0 0 0 0.1 0 0 0 0.1 0 0.1 0 0.1 0c0.7 0 1.3 0.3 1.5 0.6q0 0.2 0 0.3 0 0.1 0 0.2 0 0.1 0 0.1-0.1 0.1-0.1 0.2-0.1 0-0.1 0.1l0.2 0.4 0.2-0.1z"/>
	<path class="s4" d="m24.9 17.3q0.1 0.1 0.2 0.1 0 0.1 0.1 0.1 0 0.1 0.1 0.1 0 0.1 0 0.1 0.1 0.1 0.1 0.1 0 0.1 0 0.1 0 0.1 0 0.1 0 0.1 0 0.1 0 0.1 0 0.2 0 0.1 0 0.1-0.1 0.1-0.1 0.2-0.1 0.1-0.1 0.1l0.2 0.3q0-0.1 0-0.2 0.1-0.1 0.1-0.1 0-0.1 0.1-0.2 0-0.1 0-0.2c0-0.4-0.3-0.7-0.7-1z"/>
	<path fill-rule="evenodd" class="s5" d="m24.9 17.3q0.1 0.1 0.2 0.1 0 0.1 0.1 0.1 0 0.1 0.1 0.1 0 0.1 0 0.1 0.1 0.1 0.1 0.1 0 0.1 0 0.1 0 0.1 0 0.1 0 0.1 0 0.1 0 0.1 0 0.2 0 0.1 0 0.1-0.1 0.1-0.1 0.2-0.1 0.1-0.1 0.1l0.2 0.3q0-0.1 0-0.2 0.1-0.1 0.1-0.1 0-0.1 0.1-0.2 0-0.1 0-0.2c0-0.4-0.3-0.7-0.7-1z"/>
	<path class="s6" d="m20.4 18.1c0-0.1 0.1-0.1 0.2-0.1 0.1 0 0.2 0 0.2 0.1 0 0.1-0.1 0.2-0.2 0.2q0 0-0.1 0 0-0.1-0.1-0.1 0 0 0-0.1z"/>
	<path fill-rule="evenodd" class="s5" d="m20.4 18.1c0-0.1 0.1-0.1 0.2-0.1 0.1 0 0.2 0 0.2 0.1 0 0.1-0.1 0.2-0.2 0.2q0 0-0.1 0 0-0.1-0.1-0.1 0 0 0-0.1z"/>
	<path class="s13" d="m20.4 17.8c0-0.1 0.1-0.2 0.2-0.2 0.1 0 0.2 0.1 0.2 0.2 0 0.1-0.1 0.2-0.2 0.2q0 0-0.1 0 0-0.1 0-0.1 0 0-0.1 0 0-0.1 0-0.1zm0.2-0.2c-0.1 0-0.1-0.1-0.1-0.2 0 0 0-0.1 0.1-0.1 0.1 0 0.2 0.1 0.2 0.1 0 0.1-0.1 0.2-0.2 0.2zm-0.1-0.5q0-0.1 0.1-0.1 0.1 0 0.1 0.1 0 0.1-0.1 0.1-0.1 0-0.1 0 0 0 0-0.1zm0-0.3q0-0.1 0.1-0.1 0.1 0 0.1 0.1 0 0.1-0.1 0.1 0 0-0.1 0 0-0.1 0-0.1z"/>
	<path class="s12" d="m20.6 19.2h0.1q0 0.1 0 0.2 0 0.1 0.1 0.2 0.1 0.1 0.2 0.2 0.1 0 0.2 0 0.1 0 0.1 0 0.1 0 0.2-0.1 0 0 0.1-0.1 0 0 0-0.1l0.1-0.2v0.2c0 0.2 0.3 0.4 0.5 0.4q0.1 0 0.2-0.1 0.1 0 0.1-0.1 0.1 0 0.1-0.1 0.1-0.1 0.1-0.2l0.1-0.2 0.1 0.2q0 0.1 0 0.1 0 0-0.1 0 0 0 0 0.1 0 0.1 0.1 0.2 0 0.1 0.1 0.1 0 0.1 0.1 0.1 0.1 0 0.2 0 0.2 0 0.4-0.1l0.1-0.2v0.2c0 0.1 0 0.3 0.2 0.3 0 0 0.1 0 0.4-0.2 0.2-0.1 0.3-0.3 0.3-0.3v0.2c0 0-0.2 0.3-0.4 0.4-0.1 0-0.2 0.1-0.4 0.1q-0.1 0-0.3-0.3 0 0 0 0.1-0.1 0-0.1 0-0.1 0-0.1 0-0.1 0-0.1 0-0.1 0-0.2 0-0.1 0-0.2-0.1 0 0-0.1-0.1-0.1-0.1-0.1-0.1-0.1 0.1-0.3 0.1-0.1 0.1-0.2 0.1-0.2 0-0.3-0.1-0.2-0.1-0.3-0.2 0 0.1-0.1 0.1 0 0-0.1 0.1 0 0-0.1 0 0 0-0.1 0-0.1 0-0.2 0-0.1 0-0.1-0.1-0.1 0-0.2-0.1 0 0-0.1-0.1 0 0.1-0.1 0.1-0.1 0.1-0.1 0.1-0.1 0.1-0.2 0.1-0.1 0-0.2 0 0 0-0.1 0 0 0-0.1 0-0.1-0.1-0.1-0.1-0.1 0-0.1-0.1-0.1 0.1-0.3 0.2-0.1 0.1-0.2 0.1-0.2 0-0.3-0.1-0.2 0-0.3-0.1 0 0-0.1 0.1 0 0.1-0.1 0.1-0.1 0.1-0.2 0.1-0.1 0-0.2 0-0.1 0-0.1 0-0.1 0-0.1 0-0.1-0.1-0.1-0.1-0.2 0.3-0.3 0.3c-0.1 0-0.3-0.1-0.4-0.1-0.2-0.1-0.4-0.4-0.4-0.4v-0.2c0 0 0.2 0.2 0.4 0.3 0.2 0.2 0.4 0.2 0.4 0.2 0.1 0 0.2-0.2 0.2-0.3v-0.2l0.1 0.2q0.1 0.1 0.1 0.1 0.1 0 0.1 0 0.1 0 0.1 0.1c0.3 0 0.5-0.2 0.5-0.5q0-0.1 0-0.1 0-0.1-0.1-0.1l0.1-0.2 0.2 0.2c0 0.3 0.2 0.5 0.4 0.5 0.3 0 0.5-0.2 0.5-0.4v-0.2l0.1 0.2q0 0.1 0.1 0.1 0 0.1 0.1 0.1 0 0.1 0.1 0.1 0.1 0 0.1 0 0.2 0 0.3 0 0.1-0.1 0.1-0.2 0.1-0.1 0.1-0.2 0-0.1 0-0.2z"/>
	<path fill-rule="evenodd" class="s13" d="m23.7 19.9c0 0-0.1-0.1 0-0.2 0-0.1 0.1-0.1 0.1-0.1 0.1 0 0.1 0.1 0.1 0.2-0.1 0-0.1 0.1-0.2 0.1zm-2-0.4c-0.1 0-0.1-0.1-0.1-0.1 0-0.1 0-0.2 0.1-0.2 0.1 0 0.1 0.1 0.1 0.2 0 0 0 0.1-0.1 0.1zm-2.3-0.1c0-0.1 0.1-0.2 0.1-0.2q0.1 0 0.1 0.2 0 0.1 0 0.1-0.1 0-0.2-0.1zm-2 0.4q0-0.2 0-0.2 0.1 0 0.2 0.1c0 0.1 0 0.2-0.1 0.2z"/>
	<path fill-rule="evenodd" class="s12" d="m18.3 18.4q0 0 0 0.1 0.1 0 0.1 0 0 0.1 0.1 0.1 0.1 0 0.1 0c0 0.1 0 0.3 0 0.4l-0.1 0.1q-0.1 0-0.1 0-0.1 0-0.1 0 0 0 0 0-0.1 0-0.1-0.1l-0.2-0.2v-0.1c0 0 0 0 0.1 0q0.1 0 0.1 0 0 0 0-0.1 0-0.1 0-0.1 0-0.1 0.1-0.1zm0 0.7q0 0.1 0 0.1-0.1 0-0.1 0.1 0.1 0 0.1 0 0 0 0 0.1l-0.1 0.1c-0.1 0-0.2 0.1-0.2 0.1h-0.1v-0.1q-0.1 0-0.1 0-0.1 0-0.1 0 0 0-0.1-0.1 0 0-0.1 0 0.1 0 0.1-0.1 0 0 0.1 0 0-0.1 0-0.1 0.1 0 0.1 0 0 0 0-0.1c0 0 0.2 0 0.3 0q0.1 0 0.2 0zm0.3 0.3q0 0 0.1 0 0 0 0.1 0c0 0 0.1 0 0.2 0q0-0.1 0-0.1 0.1 0 0.1 0 0 0 0.1-0.1 0.1-0.1 0.1-0.1 0 0-0.1 0 0-0.1-0.1-0.1-0.1 0-0.1 0 0 0 0-0.1c-0.1 0-0.2 0-0.2 0q-0.1 0.1-0.1 0.1h-0.1q0 0.1 0 0.1 0 0.1 0 0.1 0 0.1 0 0.1 0 0 0 0.1z"/>
	<path class="s11" d="m18.2 19.2c0-0.1 0.1-0.2 0.2-0.2 0.1 0 0.2 0.1 0.2 0.2 0 0.2-0.1 0.2-0.2 0.2q-0.1 0-0.1 0 0 0-0.1-0.1 0 0 0-0.1z"/>
	<path class="s12" d="m20.6 18.1q0.1 0 0.1 0.1 0.1 0.1 0.1 0.1 0 0.1 0 0.1c0 0.1 0 0 0.1 0q0.1 0 0.1 0v0.1l-0.1 0.3q-0.1 0-0.1 0 0 0.1 0 0.1 0 0-0.1 0-0.1 0-0.1 0-0.1 0-0.1 0c0 0-0.1 0-0.1-0.1l-0.1-0.3-0.1-0.1h0.1q0.1 0 0.1 0c0-0.1 0.1-0.2 0.2-0.3z"/>
	<path fill-rule="evenodd" class="s12" d="m20.5 19.2c0 0-0.1 0.1-0.2 0.1-0.1 0-0.2 0.1-0.3 0.1h-0.1v-0.1l0.1-0.1q-0.3 0-0.4-0.1 0-0.1 0.1-0.1 0 0 0.1-0.1 0 0 0.1 0 0 0 0.1 0l-0.1-0.1v-0.1l0.1 0.1q0.2 0 0.3 0c0.1 0.1 0.2 0.1 0.2 0.1q-0.1 0.1-0.1 0.2 0 0 0 0.1 0 0 0.1 0zm0.3 0q0 0 0-0.1 0-0.1 0-0.1 0 0 0-0.1c0 0 0.1 0 0.2-0.1q0 0 0.1 0 0.1 0 0.1 0l0.1-0.1v0.2c0.1 0 0.2 0.1 0.3 0.2q-0.1 0.1-0.1 0.1-0.1 0-0.1 0-0.1 0-0.1 0 0 0 0 0.1 0 0.1 0 0.1h-0.1l-0.2-0.1c-0.1 0-0.2-0.1-0.2-0.1zm2.2-0.8q0 0 0 0.1 0 0 0.1 0.1 0 0.1 0 0.1 0 0 0.1 0h0.1l-0.1 0.1c0 0.1-0.1 0.2-0.1 0.2v0.1q-0.1 0-0.1 0v0.1q-0.1-0.1-0.1-0.1-0.1 0-0.1 0 0 0-0.1 0l-0.1-0.1q0-0.2 0-0.3v-0.1q0 0 0.1 0l0.1 0.1q0-0.1 0-0.1 0 0 0-0.1 0.1 0 0.1-0.1 0 0 0.1 0zm-0.1 1q0.1-0.1 0.1-0.1 0 0 0-0.1l0.1-0.1c0 0 0.3 0 0.4 0q-0.1 0.1-0.1 0.1 0.1 0 0.1 0 0.1 0 0.1 0.1 0 0 0.1 0 0 0 0 0.1 0 0-0.1 0 0 0 0 0.1-0.1 0-0.1 0-0.1 0-0.1 0v0.1h-0.1l-0.2-0.1c-0.1-0.1-0.2-0.1-0.2-0.1zm-0.2-0.1q-0.1 0-0.1-0.1 0.1-0.1 0.1-0.1c0 0 0 0-0.1-0.1-0.1-0.1-0.2-0.1-0.2-0.1q0 0-0.1 0 0 0.1 0 0.1-0.1 0-0.1 0 0 0-0.1 0 0 0-0.1 0 0 0.1-0.1 0.1 0.1 0.1 0.3 0.2 0 0 0 0.1c0 0 0.2 0 0.3 0q0.1 0 0.1 0 0 0 0-0.1 0 0 0.1 0z"/>
	<path fill-rule="evenodd" class="s11" d="m22.6 19.2c0-0.1 0.1-0.2 0.2-0.2 0.1 0 0.2 0.1 0.2 0.2q0 0.1 0 0.1 0 0.1 0 0.1-0.1 0-0.1 0-0.1 0-0.1 0 0 0-0.1 0-0.1 0-0.1-0.1 0 0 0-0.1zm2.3 0.5c0.1 0 0.1 0.1 0 0.2-0.1 0.1-0.2 0.1-0.2 0q-0.1-0.1 0-0.2c0.1-0.1 0.2-0.1 0.2 0z"/>
	<path fill-rule="evenodd" class="s12" d="m24.7 19.7q0 0 0.1 0-0.1-0.1-0.1-0.2 0 0-0.1 0 0-0.1 0-0.1 0 0-0.1 0 0 0 0-0.1h-0.2q0 0 0 0.1 0 0-0.1 0 0 0-0.1 0 0 0-0.1 0 0 0 0 0.1 0 0.1 0.1 0.1 0.1 0.1 0.1 0.1h-0.1q0 0 0 0.1c0.1 0 0.5 0 0.5 0zm0.1 0q0 0 0-0.1 0 0 0 0.1 0 0 0 0zm0-0.1q0.1 0 0.1 0.1c0 0 0.1-0.2 0.3-0.3 0.1 0 0.3 0 0.3 0q0-0.1 0-0.1 0-0.1-0.1-0.1 0-0.1-0.1-0.1 0 0-0.1 0-0.1 0-0.1 0 0 0-0.1 0.1v-0.1c0 0-0.2 0-0.2 0.2-0.1 0.1 0 0.2 0 0.3zm-8.2 0.2q0.1 0 0.1 0c0 0 0.4 0 0.5 0l-0.1-0.1h-0.1q0.1 0 0.1-0.1 0 0 0.1 0 0 0 0-0.1 0.1 0 0.1 0-0.1-0.1-0.1-0.1-0.1 0-0.1 0 0 0-0.1 0 0 0-0.1 0v-0.1h-0.1q-0.1 0.1-0.1 0.1-0.1 0-0.1 0.1 0 0-0.1 0 0-0.1 0-0.2c-0.1-0.2-0.2-0.2-0.2-0.2v0.1q-0.1-0.1-0.3-0.1 0 0-0.1 0 0 0.1-0.1 0.1 0 0 0 0.1-0.1 0-0.1 0.1c0 0 0.2 0 0.4 0 0.1 0.1 0.2 0.3 0.2 0.3 0.1-0.1 0.2-0.1 0.2 0q0.1 0.1 0.1 0.1z"/>
	<path class="s11" d="m16.3 19.7q0.1-0.1 0.2 0c0.1 0.1 0.1 0.2 0.1 0.2-0.1 0.1-0.2 0.1-0.2 0-0.1-0.1-0.1-0.2-0.1-0.2zm4.1-0.6c0-0.1 0.1-0.2 0.2-0.2 0.1 0 0.2 0.1 0.2 0.2 0 0.1-0.1 0.2-0.2 0.2q0 0-0.1-0.1-0.1 0-0.1-0.1z"/>
	<path class="s15" d="m20.2 16.1c0-0.3 0.2-0.4 0.4-0.4 0.3 0 0.4 0.1 0.4 0.4 0 0.2-0.2 0.4-0.4 0.4q-0.1 0-0.2-0.1 0 0-0.1-0.1-0.1 0-0.1-0.1 0-0.1 0-0.1z"/>
	<path class="s12" d="m20.5 14.9v0.3h-0.2v0.2h0.2v0.6h-0.3v0.1q0 0 0 0.1h0.8q0-0.1 0-0.1v-0.1h-0.3v-0.6h0.3v-0.3h-0.3v-0.2z"/>
	<path class="s9" d="m20.7 33.1q-0.5 0-1-0.1-0.4 0-0.9-0.2-0.4-0.1-0.9-0.2-0.4-0.2-0.8-0.4-0.3-0.1-0.5-0.3-0.3-0.2-0.4-0.5-0.2-0.3-0.3-0.6-0.1-0.3-0.1-0.6v-3.2h9.7v3.2q0 0.3-0.1 0.6-0.1 0.3-0.3 0.6-0.2 0.3-0.4 0.5-0.2 0.2-0.5 0.3-0.4 0.2-0.9 0.4-0.4 0.1-0.8 0.2-0.5 0.2-0.9 0.2-0.5 0.1-0.9 0.1z"/>
	<path fill-rule="evenodd" class="s5" d="m20.7 33.1q-0.5 0-1-0.1-0.4 0-0.9-0.2-0.4-0.1-0.9-0.2-0.4-0.2-0.8-0.4-0.3-0.1-0.5-0.3-0.3-0.2-0.4-0.5-0.2-0.3-0.3-0.6-0.1-0.3-0.1-0.6v-3.2h9.7v3.2q0 0.3-0.1 0.6-0.1 0.3-0.3 0.6-0.2 0.3-0.4 0.5-0.2 0.2-0.5 0.3-0.4 0.2-0.9 0.4-0.4 0.1-0.8 0.2-0.5 0.2-0.9 0.2-0.5 0.1-0.9 0.1z"/>
	<path class="s9" d="m25.5 21.7v5.3h-4.9v-5.3z"/>
	<path fill-rule="evenodd" class="s5" d="m25.5 21.7v5.3h-4.9v-5.3z"/>
	<path class="s2" d="m20.6 30.2c0 1.3-1 2.3-2.4 2.3-1.3 0-2.4-1-2.4-2.3v-3.2h4.8z"/>
	<path class="s12" d="m16.9 32.1c0.1 0.1 0.3 0.2 0.5 0.3v-5.5h-0.5z"/>
	<path class="s16" d="m15.8 30.2q0 0.2 0 0.4 0.1 0.2 0.1 0.4 0.1 0.1 0.2 0.3 0.1 0.2 0.3 0.4v-4.8h-0.6z"/>
	<path class="s17" d="m17.9 32.5q0.1 0 0.2 0 0 0 0.1 0 0.1 0 0.2 0 0 0 0.1 0v-5.6h-0.6z"/>
	<path class="s12" d="m19 32.4q0.1-0.1 0.2-0.1 0 0 0.1-0.1 0.1 0 0.1 0 0.1-0.1 0.2-0.1v-5.2h-0.6z"/>
	<path class="s2" d="m15.8 27h4.8v-5.3h-4.8z"/>
	<path fill-rule="evenodd" class="s5" d="m15.8 27h4.8v-5.3h-4.8z"/>
	<path class="s12" d="m20.1 31.6c0.2-0.2 0.5-0.7 0.5-1.2l0.1-3.5h-0.6z"/>
	<path class="s5" d="m20.6 30.2c0 1.3-1 2.3-2.4 2.3-1.3 0-2.4-1-2.4-2.3v-3.2h4.8z"/>
	<path class="s2" d="m25.5 27v3.2c0 1.3-1.1 2.3-2.4 2.3-1.4 0-2.5-1-2.5-2.3v-3.2z"/>
	<path class="s5" d="m25.5 27v3.2c0 1.3-1.1 2.3-2.4 2.3-1.4 0-2.5-1-2.5-2.3v-3.2z"/>
	<path fill-rule="evenodd" class="s4" d="m22.1 29.4v0.1h0.3v-0.1h1.3v0.1h0.3v0.2h-0.5v-0.2h-0.2q0 0.1 0 0.1l0.3 0.4 0.2-0.1 0.3 0.4-0.1 0.1 0.3 0.4q0 0 0-0.1 0.1 0 0.1 0 0.1 0 0.1-0.1 0 0 0-0.1l-0.1-0.1c0 0 0-0.3 0-0.2v-0.2l0.2-0.1v-0.2q-0.2 0-0.2-0.2h-0.4v-0.1h0.5q0 0.1 0 0.1 0 0.1 0.2 0.1 0 0 0-0.1v-0.1h0.2q0 0.1 0 0.1 0 0.1 0 0.1-0.1 0-0.1 0.1 0 0-0.1 0v0.2l0.2 0.1v0.4l-0.2 0.1q0 0 0 0.1 0 0-0.1 0.1 0 0.1 0 0.1 0 0.1 0 0.1 0.1 0.1 0.1 0.1 0 0.1-0.1 0.1 0 0 0 0.1-0.1 0.1-0.3 0 0 0.1-0.1 0.1 0 0.1 0 0.1-0.1 0-0.1 0.1v0.1q0 0.1-0.1 0.1 0 0-0.1 0 0 0.1-0.1 0.1 0 0-0.1 0l-0.1-0.1q0 0-0.1 0 0 0-0.1 0.1 0 0-0.1 0 0 0 0 0.1-0.1 0-0.1 0 0 0.1-0.1 0.1 0 0-0.1 0-0.1 0-0.1-0.1-0.1 0-0.1 0 0-0.1 0-0.1-0.1 0-0.1 0-0.1 0-0.1-0.1-0.1 0-0.2 0l-0.1 0.1q-0.1 0-0.1 0-0.1-0.1-0.1-0.1-0.1 0-0.1 0-0.1-0.1-0.1-0.1c0 0 0-0.2 0-0.1q0.1 0 0.1 0 0.1 0.1 0.1 0.1 0.1 0 0.2 0 0 0.1 0 0.1l0.1-0.2q-0.1 0-0.1 0-0.1-0.1-0.1-0.1-0.1 0-0.1-0.1l0.1-0.1q0 0 0.1 0.1 0 0 0.1 0 0 0.1 0.1 0.1 0 0 0.1 0l-0.1 0.2q0.2 0 0.3 0 0.1 0 0.1-0.1 0 0 0.1 0v-0.7h0.1v-0.2h-0.1v-0.9h-0.1l-0.3 0.4 0.1 0.1-0.3 0.4-0.2-0.1 0.3-0.3-0.2-0.1-0.2 0.2 0.1 0.1-0.4 0.4q0.1 0.2 0 0.3 0 0.1 0.1 0.1 0 0 0.1 0.1 0.1 0.1 0.1 0.1l-0.1 0.1q0 0-0.1-0.1 0 0-0.1 0 0-0.1 0-0.1-0.1 0-0.1-0.1-0.2 0-0.3 0 0-0.1 0-0.1-0.1-0.1-0.1-0.1 0-0.1 0-0.1 0.1-0.1 0.1-0.1 0-0.1 0-0.1-0.1-0.1-0.1-0.1 0-0.1 0-0.1h0.1q0 0-0.1-0.1h0.1q-0.1-0.1-0.1-0.1h0.1l0.1 0.2 0.1-0.1c0 0 0-0.3 0-0.2v-0.2l-0.1-0.1v0.2h-0.1c0 0.1 0 0.2 0 0.2l0.1 0.2q0 0.1 0 0.1 0 0.1 0 0.1 0.1 0 0.2 0l0.3-0.3-0.1-0.1 0.3-0.4 0.2 0.1 0.4-0.4h-0.3v0.1h-0.5v-0.2h-0.3q-0.1 0.1-0.1 0.1 0 0.1-0.1 0.1v0.2h-0.1v0.2h-0.1v0.1q0 0 0 0.1 0 0.1 0 0.2h-0.1v-0.4l0.1-0.1v-0.3q0 0-0.1 0 0-0.1 0-0.1 0 0-0.1-0.1 0 0 0.1-0.1h0.1v0.1q0 0 0.1 0.1 0.1 0 0.1-0.1v-0.1zm2.4 1.1l0.1-0.2h-0.1q0 0.1 0 0.1 0 0.1 0 0.1zm0.2-0.2q0 0 0-0.1v-0.1h-0.1v0.1 0.1zm-1.6 1.2q0.1 0 0.2 0.1 0 0 0.1 0 0 0 0.1 0 0.1-0.1 0.2-0.1v0.1q0.1 0 0.2 0 0 0 0.1-0.1l-0.1-0.1q0 0 0.1-0.1 0 0 0.1 0 0-0.1 0-0.1 0.1 0 0.1-0.1 0-0.1-0.1-0.1 0 0 0.1-0.1 0 0 0-0.1l-0.4-0.3v-0.1l0.1-0.1-0.2-0.2-0.1 0.1-0.5-0.5v0.7l0.2 0.1v0.4h-0.2zm0.8-0.9h-0.2l-0.3-0.3 0.1-0.1zm-0.5 0.8q0.1 0 0.1 0 0.1-0.1 0.1-0.1 0.1 0 0.1 0 0.1-0.1 0.1-0.1l0.1 0.1q0 0-0.1 0.1 0 0-0.1 0-0.1 0.1-0.1 0.1-0.1 0-0.1 0zm-1.9-0.4q0 0 0 0.1 0 0 0.1 0 0.1 0 0.1-0.1 0 0 0-0.1c-0.1 0-0.2 0-0.2 0q0 0.1 0 0.1zm2.8-0.1q0 0-0.1 0 0 0 0 0.1 0 0 0.1 0 0 0.1 0 0.1 0.1 0 0.1 0 0-0.1 0-0.1 0.1 0 0.1 0 0 0-0.1-0.1 0 0-0.1 0zm-1.5 0.9q0 0 0.1 0 0.1 0 0.1-0.1 0 0 0-0.1-0.1 0-0.1 0-0.1 0-0.1 0.1 0 0 0 0.1zm0-1.4v0.5h-0.1v-0.4z"/>
	<path fill-rule="evenodd" class="s4" d="m21.2 29.4c0-0.1 0.1-0.1 0.1-0.2v-0.4h-0.1v-0.4l0.1-0.1v-0.4q0 0-0.1 0 0 0 0-0.1-0.1-0.1-0.1-0.1 0-0.1 0.1-0.1 0-0.1 0-0.1 0.1 0 0.1-0.1 0.1 0 0.1 0 0.1 0 0.1 0 0 0.1 0.1 0.1 0 0.1 0.1 0.1h0.3v-0.1h0.5v0.1h0.3q0 0 0-0.1 0 0 0.1 0 0 0 0-0.1 0.1 0 0.1 0c0.1 0 0.2 0.1 0.3 0.2h0.2l0.1-0.1h0.4l0.1 0.1h0.3q0 0 0-0.1 0 0 0.1 0 0 0 0-0.1 0.1 0 0.1 0 0.1 0 0.1 0 0.1 0.1 0.1 0.1 0 0 0.1 0.1 0 0 0 0.1 0 0 0 0.1 0 0-0.1 0 0 0.1 0 0.1-0.1 0-0.1 0v0.4l0.2 0.1v0.4h-0.2v0.4q0.2 0.1 0.2 0.2c0 0-0.2 0-0.3 0q0 0-0.1 0 0 0-0.1 0 0.1-0.1 0.2-0.2v-0.4h-0.2v-0.4l0.2-0.1v-0.4q0 0-0.1 0l-0.5 0.6 0.1 0.1-0.3 0.4-0.1-0.1-0.4 0.4v0.1q-0.2 0-0.5 0l-0.4-0.5-0.1-0.1 0.1-0.1-0.2-0.2-0.1 0.1-0.6-0.6v0.4h0.1v0.4l-0.1 0.1v0.4q0.1 0 0.2 0.1-0.3 0-0.3 0-0.1 0-0.1 0zm0.9-1.6h0.3v-0.2h-0.3zm-0.6 0.9v-0.3h-0.2v0.3zm1.8-0.9q0 0-0.1 0.1l-0.1 0.2 0.2 0.1v0.4h-0.2v0.6h0.1l0.5-0.5 0.1 0.1 0.2-0.2-0.2-0.1-0.3 0.3-0.1-0.1 0.3-0.3h0.2l0.5-0.6h-0.3v0.1h-0.5v-0.1zm0.7 0.8v-0.1zm-0.3 0.6h0.5v0.2q-0.3 0-0.5 0zm1.2-0.5v-0.2h-0.2v0.2zm-0.8-0.9v-0.2h-0.3v0.2zm-1 0.2q0 0-0.1 0 0-0.1 0-0.1 0 0-0.1 0 0-0.1 0-0.1h-0.3v0.2h-0.5v-0.2h-0.3v0.1l0.5 0.6 0.2-0.1 0.3 0.3-0.1 0.1 0.4 0.5v-0.6l-0.2-0.1v-0.4h0.2zm0.1 0.6l0.1-0.3h-0.2v0.3zm-1.1 0.7h0.5v0.1q-0.3 0-0.5 0zm0-0.8l0.3 0.3v0.1l-0.1 0.1-0.3-0.3zm-0.6-0.7q0 0 0.1 0 0.1 0 0.1-0.1 0 0-0.1-0.1-0.1 0-0.1 0.1 0 0 0 0.1zm3.2 0q0.1 0 0.1 0 0.1 0 0.1-0.1 0 0 0-0.1-0.1 0-0.1 0-0.1 0-0.1 0.1 0 0 0 0.1zm-1.6 0q0.1 0 0.1 0 0.1 0 0.1-0.1 0 0-0.1-0.1-0.1 0-0.1 0.1 0 0 0 0.1z"/>
	<path fill-rule="evenodd" class="s18" d="m23.3 31.6q0 0 0.1 0 0 0 0.1 0 0 0 0.1 0 0-0.1 0-0.1l0.1 0.2q0 0-0.1 0 0 0-0.1 0 0 0-0.1 0.1-0.1 0-0.1 0 0 0 0 0.1-0.1 0-0.1 0 0 0.1-0.1 0.1 0 0-0.1 0 0 0-0.1 0 0 0 0-0.1-0.1 0-0.1 0 0-0.1 0-0.1-0.1 0-0.1 0-0.1 0-0.2-0.1 0 0-0.1 0l-0.1 0.1q0 0-0.1 0 0 0-0.1-0.1 0 0-0.1 0 0 0-0.1-0.1l0.1-0.1q0 0.1 0 0.1 0 0 0.1 0v-0.1q0 0.1 0.1 0.1 0.1 0 0.1 0.1l0.1-0.2q-0.1 0-0.1 0-0.1-0.1-0.1-0.1-0.1 0-0.2-0.1l0.2-0.1q0 0 0.1 0.1 0 0 0.1 0 0 0.1 0.1 0.1 0 0 0.1 0l-0.1 0.2q0.2 0 0.3 0 0 0 0.1-0.1 0 0 0.1 0v-0.7h0.1v0.7q0.1 0 0.2 0.1zm-1.3-0.1q-0.1 0-0.1 0 0 0 0-0.1-0.1 0-0.1-0.1-0.1 0-0.1 0-0.1 0-0.3-0.1 0 0 0-0.1 0 0-0.1-0.1 0 0 0.1-0.1c0 0 0-0.1 0-0.2q0 0-0.1-0.1 0 0 0-0.1h-0.1l-0.1-0.5h0.2v-0.3q0 0-0.1 0 0 0 0-0.1-0.1 0-0.1 0 0-0.1 0-0.1c0-0.1 0.1-0.2 0.2-0.3v-0.5h0.2v0.6q0.1 0 0.1 0.1h0.5v0.2h-0.5q0 0 0 0.1-0.1 0-0.1 0v0.3q0 0 0 0.1h-0.2q0 0.2 0 0.3h0.2q0 0.1 0 0.1 0 0.1 0 0.1 0 0 0 0.1 0 0 0.1 0.1 0 0 0.1 0l0.4-0.5 0.1 0.1-0.4 0.5q0.1 0.1 0 0.3 0.1 0 0.1 0 0 0.1 0.1 0.1 0 0 0 0.1 0.1 0 0.1 0v0.1q0 0 0 0-0.1 0-0.1 0zm0.8-1.9q0-0.1 0-0.1h-0.4v-0.1h0.4l-0.5-0.6 0.1-0.1 0.5 0.5v-0.7h0.2v0.7l0.5-0.5 0.1 0.1-0.4 0.5v0.1h0.4v0.1h-0.4q0 0.1 0 0.1l0.4 0.5-0.1 0.1-0.5-0.5v0.9h-0.1v-0.9h-0.1l-0.4 0.5-0.2-0.1zm-1.3-1.7v0.6h-0.1v-0.6q-0.1 0-0.1 0 0 0-0.1 0 0-0.1 0-0.1 0-0.1 0-0.1 0 0 0-0.1 0 0 0.1-0.1 0 0 0.1 0 0 0 0.1 0 0.1 0 0.1 0 0 0 0.1 0.1h0.4v0.2h-0.4v0.1l0.6 0.6-0.1 0.1-0.6-0.7zm0 2.6q0-0.1 0-0.1c0-0.1 0-0.2 0-0.3v-0.1h0.1v0.2c0-0.1 0.1 0.2 0.1 0.2zm0 0.6q0 0.1 0.1 0.1 0 0 0.1 0 0 0 0-0.1 0.1 0 0-0.1-0.1-0.1-0.2 0 0 0.1 0 0.1zm0-0.1z"/>
	<path fill-rule="evenodd" class="s18" d="m22.6 30.1l0.1 0.1-0.3 0.4-0.2-0.1zm-0.5 0.3l-0.1-0.1 0.3-0.4 0.2 0.1zm-0.7-1q0.1 0 0.1 0.1 0 0.1-0.1 0.1-0.1 0-0.1-0.1 0-0.1 0.1-0.1zm2.6 1.9q0.1 0 0.1-0.1 0 0 0.1-0.1 0 0-0.1 0 0-0.1 0-0.1 0 0 0-0.1 0 0 0.1 0l-0.4-0.5 0.1-0.1 0.4 0.5q0.1 0 0.1 0 0-0.1 0-0.1 0.1 0 0.1 0 0-0.1 0-0.1 0-0.1 0-0.1l-0.2-0.1c0 0 0.1-0.3 0.1-0.2v-0.2h0.1v-0.3q-0.1 0-0.1-0.1h-0.5v-0.2h0.5q0-0.1 0.1-0.2v-0.4h0.1v-0.1h0.1v0.5c0.1 0.1 0.2 0.2 0.2 0.3q0 0.1-0.1 0.1 0 0.1 0 0.1-0.1 0-0.1 0v0.3h0.2l-0.1 0.5h-0.1q0 0 0 0.1-0.1 0.1-0.1 0.1 0 0.1 0 0.1 0 0.1 0 0.1 0.1 0.1 0.1 0.1 0 0.1-0.1 0.1 0 0.1 0 0.1-0.2 0.1-0.3 0 0 0.1-0.1 0.1 0 0.1-0.1 0.1 0 0 0 0.1v0.1q0 0.1-0.1 0.1 0 0-0.1 0 0 0.1-0.1 0.1 0 0-0.1 0l-0.1-0.1q0 0 0.1 0 0.1-0.1 0.1-0.1 0.1 0 0.1-0.1v0.1q0.1-0.1 0.1-0.1 0 0-0.1 0v-0.1q-0.1 0.1-0.2 0.1 0 0-0.1 0.1-0.1 0-0.1 0l-0.1-0.1q0.1-0.1 0.1-0.1 0.1 0 0.2 0 0 0 0-0.1 0.1 0 0.1 0l0.2 0.1q0-0.1 0-0.1zm0.5-2.6h0.1v-0.2h-0.1v-0.3l-0.1 0.1v0.4l0.1 0.1zm0.2 1.4h-0.2v0.2q0 0 0 0 0-0.1 0-0.1l0.2 0.2c0-0.1 0-0.3 0-0.3zm-0.2 0.8q0 0-0.1 0 0 0-0.1 0 0 0 0 0.1 0 0.1 0 0.1 0.1 0 0.1 0 0 0 0.1 0 0 0 0-0.1 0-0.1 0-0.1zm0.2-2.4h-0.1v-0.3h-0.1v-0.3l-0.6 0.7-0.1-0.1 0.6-0.7h-0.5v-0.2h0.5q0 0 0-0.1 0 0 0.1 0 0.1-0.1 0.1-0.1 0.1 0 0.1 0.1 0 0 0.1 0 0 0 0 0.1 0.1 0 0.1 0.1 0 0-0.1 0.1 0 0.1 0 0.1-0.1 0-0.1 0zm-1.6-0.2h-0.2v-0.3q-0.1 0-0.1 0 0-0.1 0-0.1 0 0-0.1 0h-0.4v-0.2h0.4q0.1-0.2 0.3-0.2c0.1 0 0.2 0.1 0.2 0.2h0.4v0.1h-0.4q0 0.1 0 0.1 0 0.1-0.1 0.1zm-1.7 0.6l-0.2-0.1v-0.4h0.2zm0.2-0.6l0.1 0.1v0.4l-0.1 0.1zm3.1 2.2z"/>
	<path fill-rule="evenodd" class="s18" d="m24.7 28.3l0.2 0.1v0.4h-0.2zm-0.8 2.2l-0.2 0.1-0.3-0.4 0.1-0.1zm-0.2-0.5l0.1-0.1 0.3 0.4-0.1 0.1zm-1.4-1.6l0.1-0.1 0.3 0.4-0.1 0.1zm0.3 0.5l-0.2 0.1-0.3-0.4 0.1-0.1zm1.1-0.1l-0.1-0.1 0.3-0.4 0.2 0.1zm0.5-0.3l0.1 0.1-0.3 0.3h-0.2zm-2 0.9v-0.2h0.5v0.2zm0.6 0.1l-0.1 0.2h-0.4l-0.1-0.2zm-1.1-1.9q0.1 0 0.1 0.1 0 0.1-0.1 0.1-0.1 0-0.1-0.1 0-0.1 0.1-0.1zm1.1 0.2v0.1h-0.5v-0.1zm-0.6-0.2l0.1-0.1h0.4l0.1 0.1zm2.6 1.8c0.1 0 0.2 0 0.2 0.1l-0.1 0.1q-0.1 0-0.1 0 0-0.1-0.1-0.1c0-0.1 0.1-0.1 0.1-0.1zm-1 0v-0.2h0.5v0.2zm0.5 0.2v0.1h-0.5v-0.1zm-1.2 2.1q0 0 0.2 0 0 0 0.1 0-0.1 0.1-0.1 0.2-0.1 0-0.1-0.1-0.1 0-0.1-0.1zm0.2-1.3l0.2 0.1v0.4l-0.2 0.1zm-0.1 0.5h-0.2v-0.5h0.2zm1.5-3.3q0.1-0.1 0.1-0.1 0.1 0 0.1 0 0 0 0.1 0.1-0.1 0.1-0.1 0.1-0.1 0-0.1 0-0.1-0.1-0.1-0.1zm-1.6 0q0-0.1 0.1-0.1 0.1 0 0.1 0 0 0 0 0.1 0.1 0 0 0 0 0.1 0 0.1-0.1 0-0.1 0 0 0-0.1 0 0-0.1 0-0.1zm1.2 0.1v0.1h-0.5v-0.1zm-0.6-0.2v-0.1h0.5l0.1 0.1zm-0.7 1.1l-0.1-0.1v-0.4l0.1-0.1zm0.2-0.5h0.2v0.5h-0.2z"/>
	<path class="s7" d="m22.8 29.5q0-0.1 0-0.1 0-0.1 0-0.1 0.1 0 0.1-0.1 0.1 0 0.1 0 0.1 0 0.1 0 0.1 0.1 0.1 0.1 0 0 0.1 0.1 0 0 0 0.1 0 0 0 0.1-0.1 0-0.1 0 0 0.1-0.1 0.1 0 0-0.1 0c-0.1 0-0.2-0.1-0.2-0.2z"/>
	<path class="s19" d="m23.1 23v-0.1h-0.2q-0.1 0-0.1-0.1 0 0-0.1 0 0 0-0.1 0c0-0.1-0.1-0.1-0.1-0.2-0.2 0-0.3 0.1-0.3 0.1 0 0 0.1 0 0.2 0.1 0.1 0.1 0.2 0.1 0.2 0.1 0.1 0.1 0.3 0 0.3 0.1z"/>
	<path fill-rule="evenodd" class="s5" d="m23.1 23v-0.1h-0.2q-0.1 0-0.1-0.1 0 0-0.1 0 0 0-0.1 0c0-0.1-0.1-0.1-0.1-0.2-0.2 0-0.3 0.1-0.3 0.1 0 0 0.1 0 0.2 0.1 0.1 0.1 0.2 0.1 0.2 0.1 0.1 0.1 0.3 0 0.3 0.1z"/>
	<path class="s20" d="m23.8 22.8v0.1c0 0.1 0 0.1 0 0.1q0 0.1 0 0.1l0.1 0.1h-0.1l-0.1-0.1v0.1l0.1 0.1 0.1 0.2v0.1c0 0 0-0.1-0.1-0.1h-0.1c0 0 0.1 0 0.1 0.1 0 0.1-0.1 0.2-0.1 0.2v-0.1l-0.1-0.1c0 0 0 0.1 0 0.2v0.2l-0.1-0.1-0.1-0.1 0.1 0.1c0 0.1 0 0.3 0.1 0.5 0.1 0.1 0.3 0.4 0.6 0.3 0.3-0.1 0.2-0.5 0.1-0.7q0 0 0-0.1 0-0.1-0.1-0.1 0-0.1 0-0.1 0-0.1 0-0.1c0-0.1 0.1-0.3 0.1-0.4q0 0 0-0.1 0-0.1 0-0.1 0-0.1 0-0.1c0-0.1 0-0.2 0.1-0.2q0-0.1 0-0.1v-0.2l0.1 0.2v0.1c0 0 0-0.1 0.1-0.2 0.1 0 0.2-0.1 0.2-0.1 0 0 0 0.1 0 0.2l-0.2 0.2h0.1 0.1q0 0-0.1 0.1c-0.1 0.1-0.1 0.2-0.1 0.3-0.1 0-0.1 0-0.2 0.1-0.1 0.1 0 0.4 0 0.5 0 0 0.2 0.4 0.2 0.5 0 0.1 0 0.3-0.2 0.5-0.1 0.1-0.3 0.1-0.3 0.1-0.1 0-0.1 0.1-0.1 0.3 0 0.1 0 0.2 0.1 0.2 0 0.1 0.1 0 0.1 0.1q0.1 0.1 0 0.1c0 0.1 0 0.1-0.1 0.2v0.2c0 0.1 0 0.1 0 0.2 0 0 0.1 0.1 0 0.1h-0.1-0.1q0 0 0-0.1-0.1 0-0.1 0v0.1c0 0-0.1 0-0.1-0.1h-0.1l0.1-0.1c0 0 0.1 0 0 0q0-0.1 0 0c0 0-0.1 0-0.1-0.1 0-0.1 0-0.1 0-0.1 0.1-0.1 0.1 0 0.2 0q0 0 0.1-0.1c0 0 0-0.1-0.1-0.1 0-0.1 0-0.1-0.1-0.1v-0.1 0.2h-0.1c0-0.1 0-0.2 0-0.2v0.2h-0.1q0 0 0-0.1-0.1 0-0.1 0v-0.2q0 0 0-0.1v-0.1h-0.1c-0.1 0-0.2-0.1-0.2 0q0 0.1 0 0.3 0.1 0.1 0.1 0.2 0 0-0.1 0 0 0.1 0 0.1h-0.1q0 0 0-0.1-0.1 0-0.1 0h-0.1-0.1c-0.1 0-0.1 0-0.1 0.1 0 0 0 0-0.1 0-0.1 0-0.1 0-0.1 0 0-0.1 0-0.1 0-0.1q-0.1 0-0.1 0-0.1 0-0.1-0.1c0-0.1 0-0.1 0-0.1 0.1 0 0.2 0 0.2 0q0 0 0-0.1c-0.1 0-0.1 0-0.1-0.1h0.1c0 0 0-0.1 0.1-0.1 0 0.1 0 0.1 0 0.2 0.1 0 0.1 0.1 0.2 0.1q0.2-0.1 0.2-0.1l-0.1-0.1v-0.1c0 0 0 0 0 0.1v-0.2q-0.1 0-0.1 0v0.1c0 0-0.1 0-0.1-0.1 0.1-0.1 0-0.2 0.1-0.2 0 0 0-0.2 0.2-0.2h0.2 0.2c0 0-0.3-0.1-0.3-0.2q-0.1 0-0.1 0 0 0 0-0.1-0.1 0-0.1 0 0-0.1 0-0.1l-0.1-0.1q0 0-0.1 0 0 0-0.1 0 0 0 0 0.1l-0.1 0.1v-0.1-0.1c0 0 0 0.1-0.1 0.2l-0.1 0.1v-0.1-0.1c0 0 0 0.1-0.1 0.1-0.1 0-0.2 0-0.2 0q0 0.1 0 0.2h-0.1q-0.1 0-0.1 0v-0.1c0 0 0.1 0 0-0.1v0.1c-0.1 0-0.1 0-0.1-0.1q0 0 0-0.1h0.1q0-0.1-0.1-0.1 0 0 0-0.1c0.1 0 0.1-0.1 0.1-0.1 0.1 0.1 0.1 0.1 0.1 0.1q0 0 0.1 0 0 0 0.1 0l0.2-0.1 0.1-0.1-0.1-0.1-0.1-0.1q0 0-0.1 0 0 0-0.1 0 0-0.1 0-0.1-0.1 0-0.1 0c0.1 0 0.1-0.1 0.1-0.1h0.1-0.2-0.1-0.1l0.1-0.1h0.1c0 0 0 0-0.1 0v-0.2h-0.1-0.1l-0.1-0.1v-0.1h0.2c0 0-0.1 0-0.1-0.1-0.1 0-0.1 0-0.1 0l0.1-0.1c0 0 0-0.1 0.1-0.1 0 0.1 0 0.2 0.1 0.2 0 0 0-0.1 0-0.2 0.1 0 0.1 0 0.1 0 0.1 0 0.1 0 0.1 0q0 0.1 0 0.1c-0.1 0.1-0.1 0.1-0.1 0.2 0.1 0 0.1 0.1 0.2 0.1l0.1 0.1c0.1 0 0.2 0.1 0.2 0.1l0.1 0.1q0 0 0.1 0c0.1 0 0.2 0 0.3-0.1 0 0 0.1 0 0.1-0.1l-0.1-0.1q0-0.1 0.1 0c0.1 0 0.2 0 0.2-0.1 0-0.1 0-0.2-0.1-0.2-0.1 0-0.2 0-0.2-0.1 0-0.1 0-0.1 0-0.1q0-0.1 0.1-0.1 0.2 0 0.2 0c0 0 0-0.1 0.1-0.1h0.1c0 0 0.2 0 0.3 0.1q0 0.1 0 0.1 0.1 0 0.1 0 0 0.1 0.1 0.1z"/>
	<path class="s21" d="m22.8 22.7v-0.1h0.1q0 0-0.1 0.1z"/>
	<path fill-rule="evenodd" class="s5" d="m22.8 22.7v-0.1h0.1q0 0-0.1 0.1z"/>
	<path class="s21" d="m23.2 22.5h0.1c0.1 0.1 0.1 0.1 0.1 0.1h-0.1-0.1z"/>
	<path fill-rule="evenodd" class="s5" d="m23.2 22.5h0.1c0.1 0.1 0.1 0.1 0.1 0.1h-0.1-0.1z"/>
	<path class="s5" d="m23.7 23.1q0-0.1 0-0.1"/>
	<path class="s19" d="m21.7 22.7h0.1 0.1c0 0 0 0 0-0.1 0-0.1-0.1-0.1-0.1-0.1 0 0 0 0 0 0.1q-0.1 0.1-0.1 0.1z"/>
	<path fill-rule="evenodd" class="s5" d="m21.7 22.7h0.1 0.1c0 0 0 0 0-0.1 0-0.1-0.1-0.1-0.1-0.1 0 0 0 0 0 0.1q-0.1 0.1-0.1 0.1z"/>
	<path class="s19" d="m21.5 22.8c0 0 0-0.1-0.1-0.1-0.1 0-0.1 0.1-0.1 0.1h0.1v0.1l0.1-0.1z"/>
	<path fill-rule="evenodd" class="s5" d="m21.5 22.8c0 0 0-0.1-0.1-0.1-0.1 0-0.1 0.1-0.1 0.1h0.1v0.1l0.1-0.1z"/>
	<path class="s19" d="m21.4 23.1h-0.1c0 0.1 0 0.1 0 0.1 0 0 0 0 0.1 0h0.1v-0.1z"/>
	<path fill-rule="evenodd" class="s5" d="m21.4 23.1h-0.1c0 0.1 0 0.1 0 0.1 0 0 0 0 0.1 0h0.1v-0.1z"/>
	<path class="s21" d="m22.8 23.1l0.1-0.1z"/>
	<path class="s5" d="m22.8 23.1l0.1-0.1h-0.1"/>
	<path class="s21" d="m22.9 23.1v-0.1h0.1z"/>
	<path class="s5" d="m22.9 23.1v-0.1h0.1-0.1"/>
	<path class="s21" d="m22.9 22.7v0.1z"/>
	<path class="s5" d="m22.9 22.7v0.1z"/>
	<path class="s21" d=""/>
	<path class="s5" d=""/>
	<path class="s5" d="m22.4 23.4c0 0 0 0-0.1 0 0 0.1 0 0.1 0 0.1 0 0 0 0 0.1 0h0.2 0.1l-0.1 0.1v0.1c0 0.1 0 0.2 0 0.2h0.1q0-0.1 0.1-0.1l0.1-0.1v0.1l0.1 0.2v-0.1c0.1 0 0.1 0 0.1 0l0.1-0.1c0 0 0 0 0 0.1l0.1 0.1c0 0 0 0 0-0.1q0.1 0 0.1-0.1"/>
	<path class="s5" d="m22.3 23.9l0.1-0.1 0.1-0.1h0.1"/>
	<path class="s5" d="m22.7 24.2l0.2-0.1q0 0 0-0.1 0 0 0.1 0"/>
	<path class="s19" d="m21.7 24h-0.1c-0.1 0-0.2 0.1-0.2 0.1h0.1q0.1 0 0.1 0z"/>
	<path fill-rule="evenodd" class="s5" d="m21.7 24h-0.1c-0.1 0-0.2 0.1-0.2 0.1h0.1q0.1 0 0.1 0z"/>
	<path class="s19" d="m21.6 24.3c0 0-0.1 0-0.1 0.1-0.1 0-0.1 0.1-0.1 0.1l0.1-0.1 0.1 0.1v-0.1z"/>
	<path fill-rule="evenodd" class="s5" d="m21.6 24.3c0 0-0.1 0-0.1 0.1-0.1 0-0.1 0.1-0.1 0.1l0.1-0.1 0.1 0.1v-0.1z"/>
	<path class="s19" d="m21.7 24.6c0 0 0 0.1 0.1 0.1 0 0.1 0.1 0.1 0.1 0.1l-0.1-0.1 0.1-0.1h-0.1z"/>
	<path class="s5" d="m23.3 24.7c0 0 0.2 0.1 0.2 0.2 0 0.1-0.1 0.3-0.1 0.3"/>
	<path fill-rule="evenodd" class="s5" d="m21.7 24.6c0 0 0 0.1 0.1 0.1 0 0.1 0.1 0.1 0.1 0.1l-0.1-0.1 0.1-0.1h-0.1z"/>
	<path class="s19" d="m22.4 25.3c0 0 0-0.1-0.1-0.1-0.1 0-0.1 0.1-0.1 0.1h0.1z"/>
	<path fill-rule="evenodd" class="s5" d="m22.4 25.3c0 0 0-0.1-0.1-0.1-0.1 0-0.1 0.1-0.1 0.1h0.1z"/>
	<path class="s19" d="m22.2 25.5c0 0-0.1 0-0.1 0.1-0.1 0-0.1 0.1-0.1 0.1l0.1-0.1c0.1 0 0.1 0.1 0.1 0.1v-0.1z"/>
	<path fill-rule="evenodd" class="s5" d="m22.2 25.5c0 0-0.1 0-0.1 0.1-0.1 0-0.1 0.1-0.1 0.1l0.1-0.1c0.1 0 0.1 0.1 0.1 0.1v-0.1z"/>
	<path class="s19" d="m22.4 25.8v0.1c0 0.1 0.1 0.1 0.1 0.1 0 0 0 0 0-0.1l0.1-0.1z"/>
	<path fill-rule="evenodd" class="s5" d="m22.4 25.8v0.1c0 0.1 0.1 0.1 0.1 0.1 0 0 0 0 0-0.1l0.1-0.1z"/>
	<path class="s19" d="m23.6 25.9h-0.1c-0.1 0.1-0.1 0.2-0.1 0.2l0.1-0.1c0.1 0 0.1 0.1 0.1 0.1v-0.1z"/>
	<path fill-rule="evenodd" class="s5" d="m23.6 25.9h-0.1c-0.1 0.1-0.1 0.2-0.1 0.2l0.1-0.1c0.1 0 0.1 0.1 0.1 0.1v-0.1z"/>
	<path class="s19" d="m23.6 26.2v0.1l0.1 0.1c0 0 0 0 0-0.1h0.1-0.1q0-0.1 0-0.1-0.1 0-0.1 0z"/>
	<path fill-rule="evenodd" class="s5" d="m23.6 26.2v0.1l0.1 0.1c0 0 0 0 0-0.1h0.1-0.1q0-0.1 0-0.1-0.1 0-0.1 0z"/>
	<path class="s19" d="m23.9 26.3c0 0 0 0.1 0.1 0.1q0.1 0.1 0.1 0.1l-0.1-0.1c0.1-0.1 0.1-0.1 0.1-0.1h-0.1z"/>
	<path fill-rule="evenodd" class="s5" d="m23.9 26.3c0 0 0 0.1 0.1 0.1q0.1 0.1 0.1 0.1l-0.1-0.1c0.1-0.1 0.1-0.1 0.1-0.1h-0.1z"/>
	<path class="s22" d="m20.9 31.6q0.3 0.1 0.3 0.4c0 0.2-0.2 0.4-0.5 0.4-0.3 0-0.5-0.2-0.5-0.4 0-0.2 0.1-0.3 0.3-0.4h-0.1v-0.1h0.1l0.1 0.1v-0.1q0.1 0 0.1 0l0.1 0.1v-0.1h0.1q0 0 0 0.1z"/>
	<path fill-rule="evenodd" class="s14" d="m20.1 32.4c-0.2-0.1-0.5 0-0.6 0l0.2 0.1c0.1 0.1 0.2 0.2 0.3 0.2 0.3 0.1 0.6 0 0.6 0 0 0-0.4-0.3-0.5-0.3zm1.2 0.3c0.2 0 0.4-0.1 0.4-0.2h0.2c-0.2-0.1-0.4-0.1-0.7-0.1-0.2 0-0.5 0.3-0.5 0.3 0.1 0 0.4 0 0.6 0z"/>
	<path class="s11" d="m20.7 32.4q-0.1-0.1-0.1-0.2-0.1-0.1-0.1-0.2 0-0.1 0.1-0.2 0-0.1 0.1-0.1 0.1 0.1 0.1 0.1 0 0.1 0 0.1 0 0.1 0 0.1 0 0.1 0 0.1 0 0.1 0 0.1 0 0.1-0.1 0.1 0 0 0 0.1z"/>
	<path class="s14" d="m20.6 32.9q0 0 0-0.3v-0.2h0.1c0 0 0 0.1 0 0.2v0.3z"/>
	<path class="s6" d="m25.4 19.1c0-0.1 0.1-0.1 0.1-0.1 0.1 0 0.1 0 0.1 0.1q0 0.1-0.1 0.1 0 0-0.1-0.1z"/>
	<path fill-rule="evenodd" class="s5" d="m25.4 19.1c0-0.1 0.1-0.1 0.1-0.1 0.1 0 0.1 0 0.1 0.1q0 0.1-0.1 0.1 0 0-0.1-0.1z"/>
	<path class="s6" d="m25.5 18.8q0.1-0.1 0.2-0.1 0 0 0 0.1 0 0.1 0 0.1-0.1 0-0.1 0 0-0.1 0-0.1"/>
	<path fill-rule="evenodd" class="s5" d="m25.5 18.8q0.1-0.1 0.2-0.1 0 0 0 0.1 0 0.1 0 0.1-0.1 0-0.1 0 0-0.1 0-0.1z"/>
	<path class="s6" d="m25.6 18.5l0.1-0.1c0.1 0 0.1 0.1 0.1 0.1 0 0.1 0 0.1-0.1 0.1q0 0-0.1 0 0-0.1 0-0.1z"/>
	<path fill-rule="evenodd" class="s5" d="m25.6 18.5l0.1-0.1c0.1 0 0.1 0.1 0.1 0.1 0 0.1 0 0.1-0.1 0.1q0 0-0.1 0 0-0.1 0-0.1z"/>
	<path class="s6" d="m25.7 18.2c0 0 0-0.1 0.1-0.1l0.1 0.1q-0.1 0.1-0.1 0.1-0.1 0-0.1 0 0 0 0-0.1z"/>
	<path fill-rule="evenodd" class="s5" d="m25.7 18.2c0 0 0-0.1 0.1-0.1l0.1 0.1q-0.1 0.1-0.1 0.1-0.1 0-0.1 0 0 0 0-0.1z"/>
	<path class="s6" d="m25.6 17.9q0-0.1 0.1-0.1 0.1 0 0.1 0.1 0 0.1-0.1 0.1 0 0-0.1 0 0 0 0-0.1z"/>
	<path fill-rule="evenodd" class="s5" d="m25.6 17.9q0-0.1 0.1-0.1 0.1 0 0.1 0.1 0 0.1-0.1 0.1 0 0-0.1 0 0 0 0-0.1z"/>
	<path class="s6" d="m25.4 17.6l0.1-0.1q0.1 0 0.1 0.1 0 0.1-0.1 0.1 0 0-0.1 0 0 0 0-0.1z"/>
	<path fill-rule="evenodd" class="s5" d="m25.4 17.6l0.1-0.1q0.1 0 0.1 0.1 0 0.1-0.1 0.1 0 0-0.1 0 0 0 0-0.1z"/>
	<path class="s6" d="m25.2 17.4q0-0.1 0.1-0.1 0.1 0 0.1 0.1 0 0.1-0.1 0.1-0.1 0-0.1 0 0-0.1 0-0.1z"/>
	<path fill-rule="evenodd" class="s5" d="m25.2 17.4q0-0.1 0.1-0.1 0.1 0 0.1 0.1 0 0.1-0.1 0.1-0.1 0-0.1 0 0-0.1 0-0.1z"/>
	<path class="s6" d="m24.9 17.2c0-0.1 0.1-0.1 0.2-0.1q0 0 0.1 0.1-0.1 0-0.1 0.1-0.1 0-0.1-0.1"/>
	<path fill-rule="evenodd" class="s5" d="m24.9 17.2c0-0.1 0.1-0.1 0.2-0.1q0 0 0.1 0.1-0.1 0-0.1 0.1-0.1 0-0.1-0.1z"/>
	<path class="s6" d="m24.7 17q0-0.1 0.1-0.1 0 0 0.1 0.1-0.1 0.1-0.1 0.1-0.1 0-0.1 0 0-0.1 0-0.1z"/>
	<path fill-rule="evenodd" class="s5" d="m24.7 17q0-0.1 0.1-0.1 0 0 0.1 0.1-0.1 0.1-0.1 0.1-0.1 0-0.1 0 0-0.1 0-0.1z"/>
	<path class="s6" d="m24.3 16.9l0.1-0.1q0.1 0 0.1 0 0 0.1 0 0.1 0 0.1 0 0.1 0 0-0.1 0 0 0-0.1-0.1z"/>
	<path fill-rule="evenodd" class="s5" d="m24.3 16.9l0.1-0.1q0.1 0 0.1 0 0 0.1 0 0.1 0 0.1 0 0.1 0 0-0.1 0 0 0-0.1-0.1z"/>
	<path class="s6" d="m24 16.9q0-0.1 0.1-0.1 0.1 0 0.1 0.1 0 0-0.1 0.1 0-0.1 0-0.1-0.1 0-0.1 0z"/>
	<path fill-rule="evenodd" class="s5" d="m24 16.9q0-0.1 0.1-0.1 0.1 0 0.1 0.1 0 0-0.1 0.1 0-0.1 0-0.1-0.1 0-0.1 0z"/>
	<path class="s6" d="m23.7 16.8q0-0.1 0.1-0.1 0.1 0 0.1 0.1 0 0.1-0.1 0.1-0.1 0-0.1 0 0-0.1 0-0.1z"/>
	<path fill-rule="evenodd" class="s5" d="m23.7 16.8q0-0.1 0.1-0.1 0.1 0 0.1 0.1 0 0.1-0.1 0.1-0.1 0-0.1 0 0-0.1 0-0.1z"/>
	<path class="s6" d="m23.3 16.9q0-0.1 0.1-0.1 0.1 0 0.1 0.1 0 0-0.1 0.1 0-0.1 0-0.1 0 0-0.1 0z"/>
	<path fill-rule="evenodd" class="s5" d="m23.3 16.9q0-0.1 0.1-0.1 0.1 0 0.1 0.1 0 0-0.1 0.1 0-0.1 0-0.1 0 0-0.1 0z"/>
	<path class="s6" d="m23 16.9q0-0.1 0.1-0.1 0.1 0 0.1 0.1 0 0-0.1 0.1 0 0 0-0.1 0 0-0.1 0z"/>
	<path fill-rule="evenodd" class="s5" d="m23 16.9q0-0.1 0.1-0.1 0.1 0 0.1 0.1 0 0-0.1 0.1 0 0 0-0.1 0 0-0.1 0z"/>
	<path class="s13" d="m23.2 17.1c0 0 0-0.1 0.1-0.1q0.1 0 0.1 0.1 0 0.1-0.1 0.1 0 0-0.1 0 0-0.1 0-0.1zm0 0.3q0-0.1 0.1-0.1 0.1 0 0.1 0.1 0 0.1-0.1 0.1 0 0-0.1 0 0-0.1 0-0.1zm0 0.3l0.1-0.1q0.1 0 0.1 0.1 0 0.1 0 0.1 0 0-0.1 0 0-0.1 0-0.1m-0.2 0.3c0 0 0.1-0.1 0.2-0.1q0.1 0 0.1 0.1 0 0.1-0.1 0.1-0.1 0-0.1 0 0 0 0-0.1m-0.2 0.3c0-0.1 0-0.1 0.1-0.1q0.1 0 0.1 0.1l-0.1 0.1q-0.1 0-0.1-0.1z"/>
	<path class="s6" d="m22.8 16.7c0-0.1 0-0.1 0.1-0.1q0.1 0 0.1 0.1 0 0-0.1 0 0 0 0 0.1 0-0.1-0.1-0.1z"/>
	<path fill-rule="evenodd" class="s5" d="m22.8 16.7c0-0.1 0-0.1 0.1-0.1q0.1 0 0.1 0.1 0 0-0.1 0 0 0 0 0.1 0-0.1-0.1-0.1z"/>
	<path class="s6" d="m22.5 16.5q0-0.1 0.1-0.1 0.1 0 0.1 0.1 0 0.1-0.1 0.1 0 0-0.1 0 0 0 0-0.1z"/>
	<path fill-rule="evenodd" class="s5" d="m22.5 16.5q0-0.1 0.1-0.1 0.1 0 0.1 0.1 0 0.1-0.1 0.1 0 0-0.1 0 0 0 0-0.1z"/>
	<path class="s6" d="m22.3 16.5q-0.1 0-0.1-0.1 0-0.1 0.1-0.1 0.1 0 0.1 0.1 0 0.1-0.1 0.1z"/>
	<path fill-rule="evenodd" class="s5" d="m22.3 16.5q-0.1 0-0.1-0.1 0-0.1 0.1-0.1 0.1 0 0.1 0.1 0 0.1-0.1 0.1z"/>
	<path class="s6" d="m21.8 16.3l0.1-0.1c0.1 0 0.1 0.1 0.1 0.1 0 0.1 0 0.1-0.1 0.1q-0.1 0-0.1 0 0 0 0-0.1z"/>
	<path fill-rule="evenodd" class="s5" d="m21.8 16.3l0.1-0.1c0.1 0 0.1 0.1 0.1 0.1 0 0.1 0 0.1-0.1 0.1q-0.1 0-0.1 0 0 0 0-0.1z"/>
	<path class="s6" d="m21.5 16.4q0-0.1 0.1-0.1 0.1 0 0.1 0.1 0 0-0.1 0.1 0-0.1 0-0.1 0 0-0.1 0z"/>
	<path fill-rule="evenodd" class="s5" d="m21.5 16.4q0-0.1 0.1-0.1 0.1 0 0.1 0.1 0 0-0.1 0.1 0-0.1 0-0.1 0 0-0.1 0z"/>
	<path class="s6" d="m21.2 16.4c0 0 0-0.1 0.1-0.1q0.1 0 0.1 0.1 0 0.1-0.1 0.1 0 0-0.1 0 0 0 0-0.1z"/>
	<path fill-rule="evenodd" class="s5" d="m21.2 16.4c0 0 0-0.1 0.1-0.1q0.1 0 0.1 0.1 0 0.1-0.1 0.1 0 0-0.1 0 0 0 0-0.1z"/>
	<path class="s6" d="m20.9 16.5c0 0 0-0.1 0.1-0.1l0.1 0.1c0 0.1-0.1 0.1-0.1 0.1q-0.1 0-0.1 0 0-0.1 0-0.1z"/>
	<path fill-rule="evenodd" class="s5" d="m20.9 16.5c0 0 0-0.1 0.1-0.1l0.1 0.1c0 0.1-0.1 0.1-0.1 0.1q-0.1 0-0.1 0 0-0.1 0-0.1z"/>
	<path class="s6" d="m15.6 19.1q0-0.1 0.1-0.1 0.1 0 0.1 0.1 0 0.1-0.1 0.1-0.1 0-0.1-0.1z"/>
	<path fill-rule="evenodd" class="s5" d="m15.6 19.1q0-0.1 0.1-0.1 0.1 0 0.1 0.1 0 0.1-0.1 0.1-0.1 0-0.1-0.1z"/>
	<path class="s6" d="m15.5 18.8q0-0.1 0.1-0.1 0 0 0.1 0.1-0.1 0.1-0.1 0.1-0.1 0-0.1 0 0-0.1 0-0.1z"/>
	<path fill-rule="evenodd" class="s5" d="m15.5 18.8q0-0.1 0.1-0.1 0 0 0.1 0.1-0.1 0.1-0.1 0.1-0.1 0-0.1 0 0-0.1 0-0.1z"/>
	<path class="s6" d="m15.4 18.5c0 0 0-0.1 0.1-0.1q0.1 0 0.1 0.1 0 0.1-0.1 0.1-0.1 0-0.1 0 0-0.1 0-0.1z"/>
	<path fill-rule="evenodd" class="s5" d="m15.4 18.5c0 0 0-0.1 0.1-0.1q0.1 0 0.1 0.1 0 0.1-0.1 0.1-0.1 0-0.1 0 0-0.1 0-0.1z"/>
	<path class="s6" d="m15.3 18.2l0.1-0.1c0.1 0 0.1 0.1 0.1 0.1q0 0.1 0 0.1-0.1 0-0.1 0 0 0 0-0.1"/>
	<path fill-rule="evenodd" class="s5" d="m15.3 18.2l0.1-0.1c0.1 0 0.1 0.1 0.1 0.1q0 0.1 0 0.1-0.1 0-0.1 0 0 0 0-0.1z"/>
	<path class="s6" d="m15.4 17.9q0-0.1 0.1-0.1 0.1 0 0.1 0.1 0 0.1-0.1 0.1 0 0-0.1 0 0 0 0-0.1z"/>
	<path fill-rule="evenodd" class="s5" d="m15.4 17.9q0-0.1 0.1-0.1 0.1 0 0.1 0.1 0 0.1-0.1 0.1 0 0-0.1 0 0 0 0-0.1z"/>
	<path class="s6" d="m15.6 17.6c0 0 0-0.1 0.1-0.1l0.1 0.1c0 0.1-0.1 0.1-0.1 0.1q-0.1 0-0.1 0 0 0 0-0.1z"/>
	<path fill-rule="evenodd" class="s5" d="m15.6 17.6c0 0 0-0.1 0.1-0.1l0.1 0.1c0 0.1-0.1 0.1-0.1 0.1q-0.1 0-0.1 0 0 0 0-0.1z"/>
	<path class="s6" d="m15.8 17.4q0-0.1 0.1-0.1 0.1 0 0.1 0.1 0 0.1-0.1 0.1-0.1 0-0.1 0 0-0.1 0-0.1z"/>
	<path fill-rule="evenodd" class="s5" d="m15.8 17.4q0-0.1 0.1-0.1 0.1 0 0.1 0.1 0 0.1-0.1 0.1-0.1 0-0.1 0 0-0.1 0-0.1z"/>
	<path class="s6" d="m16.1 17.2q0-0.1 0.1-0.1 0 0 0 0.1 0 0.1 0 0.1-0.1 0-0.1 0 0-0.1 0-0.1 0 0-0.1 0z"/>
	<path fill-rule="evenodd" class="s5" d="m16.1 17.2q0-0.1 0.1-0.1 0 0 0 0.1 0 0.1 0 0.1-0.1 0-0.1 0 0-0.1 0-0.1 0 0-0.1 0z"/>
	<path class="s6" d="m16.4 17q0-0.1 0.1-0.1 0 0 0.1 0.1-0.1 0.1-0.1 0.1-0.1 0-0.1 0 0-0.1 0-0.1z"/>
	<path fill-rule="evenodd" class="s5" d="m16.4 17q0-0.1 0.1-0.1 0 0 0.1 0.1-0.1 0.1-0.1 0.1-0.1 0-0.1 0 0-0.1 0-0.1z"/>
	<path class="s6" d="m16.7 16.9c0 0 0-0.1 0.1-0.1q0.1 0.1 0.1 0.1 0 0.1-0.1 0.1-0.1 0-0.1 0 0 0 0-0.1z"/>
	<path fill-rule="evenodd" class="s5" d="m16.7 16.9c0 0 0-0.1 0.1-0.1q0.1 0.1 0.1 0.1 0 0.1-0.1 0.1-0.1 0-0.1 0 0 0 0-0.1z"/>
	<path class="s6" d="m17 16.9c0-0.1 0.1-0.1 0.1-0.1q0.1 0 0.1 0 0 0 0 0.1 0 0-0.1 0.1-0.1-0.1-0.1-0.1z"/>
	<path fill-rule="evenodd" class="s5" d="m17 16.9c0-0.1 0.1-0.1 0.1-0.1q0.1 0 0.1 0 0 0 0 0.1 0 0-0.1 0.1-0.1-0.1-0.1-0.1z"/>
	<path class="s6" d="m17.3 16.8q0-0.1 0.1-0.1 0.1 0 0.1 0.1 0 0.1-0.1 0.1 0 0-0.1 0 0-0.1 0-0.1z"/>
	<path fill-rule="evenodd" class="s5" d="m17.3 16.8q0-0.1 0.1-0.1 0.1 0 0.1 0.1 0 0.1-0.1 0.1 0 0-0.1 0 0-0.1 0-0.1z"/>
	<path class="s6" d="m17.7 16.9q0-0.1 0.1-0.1 0.1 0 0.1 0.1 0 0-0.1 0.1-0.1 0-0.1-0.1z"/>
	<path fill-rule="evenodd" class="s5" d="m17.7 16.9q0-0.1 0.1-0.1 0.1 0 0.1 0.1 0 0-0.1 0.1-0.1 0-0.1-0.1z"/>
	<path class="s6" d="m18 16.9q0-0.1 0.1-0.1 0.1 0 0.1 0.1 0 0-0.1 0.1 0-0.1 0-0.1-0.1 0-0.1 0z"/>
	<path fill-rule="evenodd" class="s5" d="m18 16.9q0-0.1 0.1-0.1 0.1 0 0.1 0.1 0 0-0.1 0.1 0-0.1 0-0.1-0.1 0-0.1 0z"/>
	<path class="s13" d="m17.8 17.1l0.1-0.1q0.1 0 0.1 0.1 0 0.1-0.1 0.1-0.1 0-0.1 0 0-0.1 0-0.1zm0 0.3q0-0.1 0.1-0.1 0.1 0 0.1 0.1 0 0.1-0.1 0.1-0.1 0-0.1 0 0-0.1 0-0.1zm-0.1 0.3l0.1-0.1q0.1 0 0.1 0.1 0 0.1 0 0.1-0.1 0-0.1 0 0-0.1-0.1-0.1zm0.1 0.3l0.1-0.1c0.1 0 0.1 0.1 0.1 0.1q0 0.1-0.1 0.1 0 0-0.1 0 0-0.1 0-0.1zm0.2 0.3c0-0.1 0.1-0.1 0.1-0.1q0.1 0 0.1 0 0 0 0 0.1 0 0.1-0.1 0.1 0 0-0.1-0.1z"/>
	<path class="s6" d="m18.2 16.7c0-0.1 0.1-0.1 0.1-0.1q0.1 0 0.1 0 0 0 0 0.1 0 0-0.1 0.1 0-0.1 0-0.1-0.1 0-0.1 0z"/>
	<path fill-rule="evenodd" class="s5" d="m18.2 16.7c0-0.1 0.1-0.1 0.1-0.1q0.1 0 0.1 0 0 0 0 0.1 0 0-0.1 0.1 0-0.1 0-0.1-0.1 0-0.1 0z"/>
	<path class="s6" d="m18.5 16.5q0-0.1 0.1-0.1 0.1 0 0.1 0.1 0 0.1-0.1 0.1 0 0-0.1 0 0 0 0-0.1z"/>
	<path fill-rule="evenodd" class="s5" d="m18.5 16.5q0-0.1 0.1-0.1 0.1 0 0.1 0.1 0 0.1-0.1 0.1 0 0-0.1 0 0 0 0-0.1z"/>
	<path class="s6" d="m18.8 16.4q0-0.1 0.1-0.1 0.1 0 0.1 0.1 0 0.1-0.1 0.1-0.1 0-0.1-0.1z"/>
	<path fill-rule="evenodd" class="s5" d="m18.8 16.4q0-0.1 0.1-0.1 0.1 0 0.1 0.1 0 0.1-0.1 0.1-0.1 0-0.1-0.1z"/>
	<path class="s6" d="m19.2 16.3c0 0 0-0.1 0.1-0.1q0.1 0.1 0.1 0.1 0 0.1-0.1 0.1 0 0-0.1 0 0 0 0-0.1z"/>
	<path fill-rule="evenodd" class="s5" d="m19.2 16.3c0 0 0-0.1 0.1-0.1q0.1 0.1 0.1 0.1 0 0.1-0.1 0.1 0 0-0.1 0 0 0 0-0.1z"/>
	<path class="s6" d="m19.5 16.4q0-0.1 0.1-0.1 0.1 0 0.1 0.1 0 0-0.1 0.1 0-0.1 0-0.1-0.1 0-0.1 0z"/>
	<path fill-rule="evenodd" class="s5" d="m19.5 16.4q0-0.1 0.1-0.1 0.1 0 0.1 0.1 0 0-0.1 0.1 0-0.1 0-0.1-0.1 0-0.1 0z"/>
	<path class="s6" d="m19.8 16.4l0.1-0.1q0.1 0 0.1 0.1 0 0.1-0.1 0.1-0.1 0-0.1-0.1z"/>
	<path fill-rule="evenodd" class="s5" d="m19.8 16.4l0.1-0.1q0.1 0 0.1 0.1 0 0.1-0.1 0.1-0.1 0-0.1-0.1z"/>
	<path class="s6" d="m20.1 16.5l0.1-0.1q0.1 0 0.1 0.1 0 0.1-0.1 0.1 0 0-0.1-0.1z"/>
	<path fill-rule="evenodd" class="s5" d="m20.1 16.5l0.1-0.1q0.1 0 0.1 0.1 0 0.1-0.1 0.1 0 0-0.1-0.1z"/>
	<path fill-rule="evenodd" class="s12" d="m17.5 22.9h-0.1v-0.1h-0.2v0.4h0.2v0.2h-0.4v0.7h0.2v1.4h-0.3v0.8h2.7v-0.8h-0.4v-1.4h0.2v-0.7h-0.3v-0.2h0.1v-0.4h-0.1v0.1h-0.1v-0.1h-0.2v0.1h-0.1v-0.1h-0.1v0.4h0.1v0.2h-0.3v-0.8h0.2v-0.3h-0.2v0.1h-0.1v-0.1h-0.1v0.1h-0.1v-0.1h-0.2v0.3h0.2v0.8h-0.4v-0.2h0.2v-0.4h-0.2v0.1h-0.1v-0.1h-0.1zm-0.6 3.4h2.7m-2.7-0.2h2.7m-2.7-0.2h2.7m-2.7-0.2h2.7m-2.7-0.2h2.7m-2.4-0.1h2m-2-0.2h2m-2-0.2h2m-2-0.2h2m-2-0.2h2m-2-0.1h2m-2-0.2h2m-2.2-0.2h2.4m-2.4-0.2h2.4m-2.4-0.1h2.4m-2.4-0.2h2.4m-2-0.2h1.7m-1-0.2h0.3m-0.3-0.2h0.3m-0.3-0.1h0.3m-0.3-0.2h0.3m-0.5-0.2h0.7m-1.2 0.7h0.3m-0.5-0.2h0.7m-0.7 3.3v-0.2m0-0.2v-0.2m-0.2 0.2v0.2m0.4 0v-0.2m0.1 0.4v-0.2m0-0.2v-0.2m0-0.2v-0.1m0-0.2v-0.2m-0.1 0.7v-0.2m-0.4 0.2v-0.2m0.7 0v0.2m0.2-0.2v-0.1m-0.5-0.2v0.2m0.3-0.2v0.2m0.4-0.2v0.2m-0.2-0.2v-0.2m0.2-0.2v0.2m0-0.5v0.2m-0.2-0.4v0.2m0.2-0.4v0.2m-0.4-0.2v0.2m-0.3-0.2v0.2m-0.2-0.4v0.2m0.4-0.2v0.2m0.3-0.2v0.2m0.2-0.3v0.1m-0.4-0.1v0.1m-0.3-0.1v0.1m-0.2-0.3v0.2m0.7-0.2v0.2m-0.3-0.6v0.2m1.5-0.2h-0.4m0.5-0.2h-0.6m0.6 3.3v-0.2m0-0.2v-0.2m0.2 0.2v0.2m-0.3 0v-0.2m-0.2 0.4v-0.2m0-0.2v-0.2m0-0.2v-0.1m0-0.2v-0.2m0.2 0.7v-0.2m0.3 0.2v-0.2m-0.7 0v0.2m-0.1-0.2v-0.1m0.5-0.2v0.2m-0.4-0.2v0.2m-0.3-0.2v0.2m0.2-0.2v-0.2m-0.2-0.2v0.2m0-0.5v0.1m0.2-0.3v0.2m-0.2-0.4v0.2m0.3-0.2v0.2m0.4-0.2v0.2m0.1-0.4v0.2m-0.3-0.2v0.2m-0.3-0.2v0.2m-0.2-0.3v0.1m0.3-0.1v0.1m0.4-0.1v0.1m0.1-0.3v0.2m-0.6-0.2v0.2m0.3-0.6v0.2m-0.7 1.8v-0.2m0-0.5v-0.2m0 0.5v-0.2m0-0.5v-0.2m0-0.1v-0.2m0-0.4v-0.2m0-0.1v-0.2m-0.8 0.5h0.3m0.4-0.6h0.3m0.3 0.6h0.4"/>
	<path class="s12" d="m18.7 26.3v-0.5c0-0.1-0.1-0.4-0.5-0.4-0.4 0-0.4 0.3-0.4 0.4v0.5z"/>
	<path fill-rule="evenodd" class="s12" d="m17.9 25.8h-0.2c0-0.1 0-0.2 0.1-0.3l0.2 0.2zm0.6-0.1l0.2-0.2c0 0.1 0.1 0.2 0.1 0.3h-0.3zm-0.3-0.1l-0.2-0.2c0 0 0.2 0 0.3 0q0 0 0.1 0l-0.1 0.2zm-0.7-0.6v-0.5c0-0.1 0.1-0.2 0.2-0.2 0.2 0 0.3 0.1 0.3 0.2v0.5zm1.1 0v-0.5c0-0.1 0.1-0.2 0.3-0.2 0.1 0 0.2 0.1 0.2 0.2v0.5zm-0.5-1.2v-0.4h0.4l-0.1 0.4zm0.7 0v-0.4h0.4v0.4zm-1.4 0v-0.4h0.4v0.4z"/>
	<path fill-rule="evenodd" class="s23" d="m17.9 26.3v-0.4c0-0.1 0.1-0.3 0.3-0.3 0.3 0 0.3 0.2 0.3 0.3v0.4zm-0.1-1.3h-0.4v-0.4c0-0.1 0.1-0.2 0.2-0.2 0.2 0 0.2 0.1 0.2 0.2zm0.8-0.5c0-0.1 0.1-0.2 0.2-0.2 0.2 0 0.2 0.1 0.2 0.2v0.5h-0.4z"/>
	<path class="s2" d="m20.6 28.7c-0.8 0-1.5-0.8-1.5-1.7 0-1 0.7-1.8 1.5-1.8 0.9 0 1.6 0.8 1.6 1.8 0 0.9-0.7 1.7-1.6 1.7z"/>
	<path fill-rule="evenodd" class="s5" d="m20.6 28.7c-0.8 0-1.5-0.8-1.5-1.7 0-1 0.7-1.8 1.5-1.8 0.9 0 1.6 0.8 1.6 1.8 0 0.9-0.7 1.7-1.6 1.7z"/>
	<path class="s8" d="m20.6 28.3c-0.6 0-1.1-0.6-1.1-1.3 0-0.7 0.5-1.3 1.1-1.3 0.6 0 1.1 0.6 1.1 1.3 0 0.7-0.5 1.3-1.1 1.3z"/>
	<path fill-rule="evenodd" class="s5" d="m20.6 28.3c-0.6 0-1.1-0.6-1.1-1.3 0-0.7 0.5-1.3 1.1-1.3 0.6 0 1.1 0.6 1.1 1.3 0 0.7-0.5 1.3-1.1 1.3z"/>
	<path class="s4" d="m20.1 26.1c0 0-0.1 0.1-0.1 0.3q0 0.1 0 0.1 0 0.1 0 0.1 0-0.1-0.1-0.1c-0.1 0-0.1 0.1-0.1 0.1v0.1 0.1q0.1 0 0.1 0 0.1 0 0.1 0.1h-0.1v0.1h0.1l-0.1 0.1h0.1l0.1 0.1 0.1-0.1h0.1l-0.1-0.1h0.1v-0.1h-0.1q0-0.1 0-0.1 0.1 0 0.1 0 0.1 0 0.1 0l0.1-0.1v-0.1q0 0-0.1 0 0-0.1 0-0.1 0 0-0.1 0-0.1 0-0.1 0.1c0 0 0.1-0.1 0.1-0.2 0-0.2-0.2-0.3-0.2-0.3z"/>
	<path fill-rule="evenodd" class="s3" d="m20.1 26.1c0 0-0.1 0.1-0.1 0.3q0 0.1 0 0.1 0 0.1 0 0.1 0-0.1-0.1-0.1c-0.1 0-0.1 0.1-0.1 0.1v0.1 0.1q0.1 0 0.1 0 0.1 0 0.1 0.1h-0.1v0.1h0.1l-0.1 0.1h0.1l0.1 0.1 0.1-0.1h0.1l-0.1-0.1h0.1v-0.1h-0.1q0-0.1 0-0.1 0.1 0 0.1 0 0.1 0 0.1 0l0.1-0.1v-0.1q0 0-0.1 0 0-0.1 0-0.1 0 0-0.1 0-0.1 0-0.1 0.1c0 0 0.1-0.1 0.1-0.2 0-0.2-0.2-0.3-0.2-0.3z"/>
	<path class="s4" d="m20.3 26.9v0.1h-0.4v-0.1z"/>
	<path fill-rule="evenodd" class="s5" d="m20.3 26.9v0.1h-0.4v-0.1z"/>
	<path class="s4" d="m21.1 26.1c0 0-0.1 0.1-0.1 0.3 0 0.1 0.1 0.2 0.1 0.2q-0.1-0.1-0.2-0.1c-0.1 0-0.1 0.1-0.1 0.1v0.1l0.1 0.1q0 0 0.1 0 0 0 0.1 0 0 0.1 0 0.1h-0.2v0.1h0.1v0.1h0.1v0.1l0.1-0.1h0.1l-0.1-0.1h0.1v-0.1h-0.1q0-0.1 0-0.1 0.1 0 0.1 0 0.1 0 0.1 0l0.1-0.1v-0.1q-0.1-0.1-0.1-0.1-0.1 0-0.2 0.1c0 0 0.1-0.1 0.1-0.2 0-0.2-0.2-0.3-0.2-0.3z"/>
	<path fill-rule="evenodd" class="s3" d="m21.1 26.1c0 0-0.1 0.1-0.1 0.3 0 0.1 0.1 0.2 0.1 0.2q-0.1-0.1-0.2-0.1c-0.1 0-0.1 0.1-0.1 0.1v0.1l0.1 0.1q0 0 0.1 0 0 0 0.1 0 0 0.1 0 0.1h-0.2v0.1h0.1v0.1h0.1v0.1l0.1-0.1h0.1l-0.1-0.1h0.1v-0.1h-0.1q0-0.1 0-0.1 0.1 0 0.1 0 0.1 0 0.1 0l0.1-0.1v-0.1q-0.1-0.1-0.1-0.1-0.1 0-0.2 0.1c0 0 0.1-0.1 0.1-0.2 0-0.2-0.2-0.3-0.2-0.3z"/>
	<path class="s4" d="m21.4 26.9v0.1h-0.5v-0.1z"/>
	<path fill-rule="evenodd" class="s5" d="m21.4 26.9v0.1h-0.5v-0.1z"/>
	<path class="s4" d="m20.6 27c0 0-0.1 0.1-0.1 0.2 0 0.2 0.1 0.3 0.1 0.3q-0.1-0.1-0.2-0.1-0.1 0-0.1 0.1v0.1 0.1q0.1-0.1 0.1-0.1 0.1 0 0.1 0 0 0.1 0 0.1 0.1 0 0.1 0 0 0.1 0 0.1 0 0-0.1 0h-0.1v0.1h0.1l-0.1 0.1h0.1l0.1 0.1 0.1-0.1h0.1l-0.1-0.1h0.1v-0.1h-0.1q0 0 0-0.1 0 0 0.1 0 0 0 0-0.1 0.1 0 0.1 0.1l0.1-0.1v-0.1q0 0-0.1-0.1-0.2 0-0.2 0.1c0 0 0.1-0.1 0.1-0.3 0-0.1-0.2-0.2-0.2-0.2z"/>
	<path fill-rule="evenodd" class="s3" d="m20.6 27c0 0-0.1 0.1-0.1 0.2 0 0.2 0.1 0.3 0.1 0.3q-0.1-0.1-0.2-0.1-0.1 0-0.1 0.1v0.1 0.1q0.1-0.1 0.1-0.1 0.1 0 0.1 0 0 0.1 0 0.1 0.1 0 0.1 0 0 0.1 0 0.1 0 0-0.1 0h-0.1v0.1h0.1l-0.1 0.1h0.1l0.1 0.1 0.1-0.1h0.1l-0.1-0.1h0.1v-0.1h-0.1q0 0 0-0.1 0 0 0.1 0 0 0 0-0.1 0.1 0 0.1 0.1l0.1-0.1v-0.1q0 0-0.1-0.1-0.2 0-0.2 0.1c0 0 0.1-0.1 0.1-0.3 0-0.1-0.2-0.2-0.2-0.2z"/>
	<path class="s4" d="m20.8 27.8v0.1h-0.4v-0.1z"/>
	<path fill-rule="evenodd" class="s5" d="m20.8 27.8v0.1h-0.4v-0.1z"/>
	<path class="s4" d="m23.8 22.3h-0.1q0 0 0 0.1 0 0-0.1 0 0-0.1 0-0.1-0.1 0-0.1 0v-0.1q0 0.1-0.1 0.1 0 0 0-0.1c0 0.1-0.1-0.1-0.1-0.1 0 0 0 0.1 0 0.2v0.1q0 0 0.1 0 0 0 0.1 0 0 0.1 0 0.1 0.1 0 0.1 0 0 0.1 0.1 0.1 0 0.1 0.1 0.1 0 0 0 0.1l0.1-0.1c0.1 0 0.2 0 0.2 0-0.1 0-0.2 0-0.2-0.1v-0.1q-0.1 0.1-0.1 0-0.1 0-0.1 0 0-0.1 0-0.1h0.1z"/>
	<path fill-rule="evenodd" class="s5" d="m23.8 22.3h-0.1q0 0 0 0.1 0 0-0.1 0 0-0.1 0-0.1-0.1 0-0.1 0v-0.1q0 0.1-0.1 0.1 0 0 0-0.1c0 0.1-0.1-0.1-0.1-0.1 0 0 0 0.1 0 0.2v0.1q0 0 0.1 0 0 0 0.1 0 0 0.1 0 0.1 0.1 0 0.1 0 0 0.1 0.1 0.1 0 0.1 0.1 0.1 0 0 0 0.1l0.1-0.1c0.1 0 0.2 0 0.2 0-0.1 0-0.2 0-0.2-0.1v-0.1q-0.1 0.1-0.1 0-0.1 0-0.1 0 0-0.1 0-0.1h0.1z"/>
	<path class="s21" d="m23.5 22.4h0.1q-0.1 0 0 0"/>
	<path fill-rule="evenodd" class="s5" d="m23.5 22.4h0.1q-0.1 0 0 0z"/>
	<path class="s21" d="m23.6 22.5v-0.1l0.1 0.1z"/>
	<path fill-rule="evenodd" class="s5" d="m23.6 22.5v-0.1l0.1 0.1z"/>
	<path class="s21" d="m23.5 22.4h-0.1q0 0 0-0.1z"/>
	<path fill-rule="evenodd" class="s5" d="m23.5 22.4h-0.1q0 0 0-0.1z"/>
	<path class="s21" d="m23.4 22.3z"/>
	<path fill-rule="evenodd" class="s5" d="m23.4 22.3z"/>
	<path class="s21" d="m23.7 22.6v-0.1z"/>
	<path fill-rule="evenodd" class="s5" d="m23.7 22.6v-0.1z"/>
	<path class="s21" d="m23.8 22.6z"/>
	<path fill-rule="evenodd" class="s5" d="m23.8 22.6z"/>
	<path class="s21" d=""/>
	<path class="s5" d=""/>
	<path class="s4" d="m23.6 22.1l-0.1 0.1h0.1z"/>
	<path class="s5" d="m23.6 22.1l-0.1 0.1h0.1z"/>
	<path class="s4" d="m23.5 22.2h0.1l-0.1-0.1z"/>
	<path fill-rule="evenodd" class="s5" d="m23.5 22.2h0.1l-0.1-0.1z"/>
	<path class="s4" d="m23.6 22.3l-0.1-0.1h0.2z"/>
	<path class="s5" d="m23.6 22.3l-0.1-0.1h0.2v0.1"/>
	<path class="s4" d="m23.5 22.2q0 0 0.1 0 0 0-0.1 0z"/>
	<path fill-rule="evenodd" class="s5" d="m23.5 22.2q0 0 0.1 0 0 0-0.1 0z"/>
	<path class="s4" d="m23.3 22.1v-0.1c0.1 0 0 0.1 0 0.1z"/>
	<path fill-rule="evenodd" class="s5" d="m23.3 22.1v-0.1c0.1 0 0 0.1 0 0.1z"/>
	<path class="s4" d="m23.4 22.1v0.1l-0.1-0.1z"/>
	<path fill-rule="evenodd" class="s5" d="m23.4 22.1v0.1l-0.1-0.1z"/>
	<path class="s4" d="m23.3 22.1z"/>
	<path fill-rule="evenodd" class="s5" d="m23.3 22.1z"/>
	<path class="s4" d="m23.8 22.3v-0.1l-0.1 0.1h0.1 0.1z"/>
	<path fill-rule="evenodd" class="s5" d="m23.8 22.3v-0.1l-0.1 0.1h0.1 0.1z"/>
	<path class="s4" d="m23.7 22.3l0.1 0.1v-0.1z"/>
	<path fill-rule="evenodd" class="s5" d="m23.7 22.3l0.1 0.1v-0.1z"/>
	<path class="s4" d="m23.8 22.4h-0.1v-0.1h0.1l0.1 0.1z"/>
	<path fill-rule="evenodd" class="s5" d="m23.8 22.4h-0.1v-0.1h0.1l0.1 0.1z"/>
	<path class="s4" d="m23.7 22.3h0.1q0 0 0 0.1 0 0-0.1 0 0-0.1 0-0.1z"/>
	<path fill-rule="evenodd" class="s5" d="m23.7 22.3h0.1q0 0 0 0.1 0 0-0.1 0 0-0.1 0-0.1z"/>
	<path class="s4" d="m24 22.4v0.1h-0.1z"/>
	<path fill-rule="evenodd" class="s5" d="m24 22.4v0.1h-0.1z"/>
	<path class="s4" d="m24 22.6l-0.1-0.1h0.1z"/>
	<path class="s5" d="m24 22.6l-0.1-0.1h0.1z"/>
	<path class="s4" d="m23.9 22.4l-0.1 0.1h0.1z"/>
	<path fill-rule="evenodd" class="s5" d="m23.9 22.4l-0.1 0.1h0.1z"/>
	<path class="s4" d="m24 22.5q-0.1 0-0.1 0 0 0 0.1 0z"/>
	<path fill-rule="evenodd" class="s5" d="m24 22.5q-0.1 0-0.1 0 0 0 0.1 0z"/>
	<path class="s4" d="m24.1 22.7h0.1c0-0.1-0.1 0-0.1 0z"/>
	<path fill-rule="evenodd" class="s5" d="m24.1 22.7h0.1c0-0.1-0.1 0-0.1 0z"/>
	<path class="s4" d="m24 22.6v0.1h0.1v-0.1z"/>
	<path fill-rule="evenodd" class="s5" d="m24 22.6v0.1h0.1v-0.1z"/>
	<path class="s4" d="m24.1 22.7q-0.1 0 0 0z"/>
	<path class="s5" d="m27.9 20.5v0.1h-0.2v-0.1h0.1v-0.1h-0.1v-0.1h0.1 0.1v0.1h-0.1v0.1z"/>
	<path fill-rule="evenodd" class="s5" d="m24.1 22.7q-0.1 0 0 0z"/>
	<path fill-rule="evenodd" class="s24" d="m13.4 21.7v-0.1m0 0.1v-0.1m0 0.1v-0.1m0 0.1v-0.1"/>
	<path fill-rule="evenodd" class="s5" d="m13.3 21.7v-0.1m0 0.1v-0.1m0 0.1v-0.1m-0.1 0.1v-0.1m0 0.1v-0.1m-0.1 0.1v-0.1m0.1 0.1v-0.1m0 0.1v-0.1m-0.1 0.1v-0.1m0 0.1v-0.1m0 0.1v-0.1m-0.1 0.1v-0.1m0.1 0.1v-0.1m-0.1 0.1v-0.1m0 0.1v-0.1m0 0.1v-0.1m-0.1 0.1v-0.1"/>
	<path class="s5" d="m12.9 21.7v-0.1"/>
	<path fill-rule="evenodd" class="s24" d="m13.6 21.7v-0.1m-0.1 0.1v-0.1m0 0.1v-0.1m14.3 0.1v-0.1m-0.1 0.1v-0.1m0 0.1v-0.1m0 0.1v-0.1"/>
	<path fill-rule="evenodd" class="s5" d="m27.7 21.7v-0.1m-0.1 0.1v-0.1m0 0.1v-0.1m0 0.1v-0.1m0 0.1v-0.1m-0.1 0.1v-0.1m0 0.1v-0.1m0 0.1v-0.1m0 0.1v-0.1m-0.1 0.1v-0.1m0 0.1v-0.1m0 0.1v-0.1m0 0.1v-0.1m0 0.1v-0.1m-0.1 0.1v-0.1m0 0.1v-0.1m0 0.1v-0.1"/>
	<path class="s5" d="m27.3 21.7v-0.1"/>
	<path fill-rule="evenodd" class="s24" d="m27.9 21.7v-0.1m0 0.1v-0.1m-0.1 0.1v-0.1"/>
</svg>