<svg version="1.2" xmlns="http://www.w3.org/2000/svg" viewBox="0 0 32 24" width="32" height="24"><defs><clipPath clipPathUnits="userSpaceOnUse" id="cp1"><path d="m32.01 0v24h-32.01v-24z"/></clipPath></defs><style>.a{fill:#fff}.b{fill:#da0000}.c{fill:#239f40}.d{fill:#d90000}.e{fill:#239e3f}</style><g clip-path="url(#cp1)"><path fill-rule="evenodd" class="a" d="m37 0v24h-42v-24z"/><path fill-rule="evenodd" class="b" d="m37 16.1v7.9h-42v-7.9z"/><path fill-rule="evenodd" class="a" d="m5.3 16.4v0.2h-2.3v-0.1zm-1.8 0.8v0.1h-0.1v-0.1zm1.8 0v0.1h-0.5v-0.1zm0.4-0.8v0.9h-0.2v-0.9z"/><path fill-rule="evenodd" class="a" d="m6.5 17.3v0.1h-0.9v-0.2zm-1.6-0.3h0.1v0.5h-0.1z"/><path fill-rule="evenodd" class="a" d="m6.5 16.4v1h-0.2v-0.9zm-0.3 0v0.9h-0.3v-0.9zm-2.2 0.3v0.2h-0.8v-0.2zm1.8 0v0.2h-0.8v-0.2z"/><path fill-rule="evenodd" class="a" d="m4.8 16.9h0.2v0.5h-0.2z"/><path fill-rule="evenodd" class="a" d="m4.8 16.9h0.2v0.5h-0.2z"/><path fill-rule="evenodd" class="a" d="m4.8 16.9h0.2v0.5h-0.2zm-1.7 0v0.5h-0.1v-0.5zm1.4 0v0.5h-0.2v-0.5zm-0.7 0v0.5h-0.2v-0.5z"/><path fill-rule="evenodd" class="a" d="m4.5 17.3v0.1h-0.8l0.1-0.2zm0-0.3v0.1h-0.5v-0.1z"/><path fill-rule="evenodd" class="a" d="m1.5 16.4v0.2h-2.3v-0.1zm-1.9 0.8h0.1v0.1h-0.2zm2 0v0.1h-0.5v-0.1zm0.4-0.8v0.9h-0.1v-0.9z"/><path fill-rule="evenodd" class="a" d="m2.7 17.3v0.1h-0.9v-0.2zm-1.4-0.3v0.5h-0.2v-0.5z"/><path fill-rule="evenodd" class="a" d="m2.7 16.4v1h-0.1v-0.9zm-0.4 0v0.9h-0.2v-0.9zm-2.2 0.3v0.2h-0.9v-0.2zm1.9 0v0.2h-0.9v-0.2z"/><path fill-rule="evenodd" class="a" d="m1.2 16.9v0.5h-0.1v-0.5z"/><path fill-rule="evenodd" class="a" d="m1.2 16.9v0.5h-0.1v-0.5z"/><path fill-rule="evenodd" class="a" d="m1.2 16.9v0.5h-0.1v-0.5zm-1.9 0v0.5h-0.2v-0.5zm1.4 0v0.5h-0.2v-0.5zm-0.7 0v0.5h-0.1v-0.5z"/><path fill-rule="evenodd" class="a" d="m0.7 17.3v0.1h-0.7v-0.2zm0-0.3v0.1h-0.4v-0.1z"/><path fill-rule="evenodd" class="a" d="m9.1 16.4v0.2h-2.3v-0.1zm-1.8 0.8v0.1h-0.2v-0.1zm1.8 0v0.1h-0.5v-0.1zm0.5-0.8v0.9h-0.2v-0.9z"/><path fill-rule="evenodd" class="a" d="m10.2 17.3v0.1h-0.8v-0.2zm-1.5-0.3v0.5h-0.2v-0.5z"/><path fill-rule="evenodd" class="a" d="m10.3 16.4l-0.1 1h-0.1v-0.9zm-0.6 0h0.2v0.9h-0.2zm-2.1 0.4v0.1h-0.8v-0.1zm1.8 0v0.1h-0.8v-0.1z"/><path fill-rule="evenodd" class="a" d="m8.8 16.9l-0.1 0.5h-0.1v-0.5z"/><path fill-rule="evenodd" class="a" d="m8.8 16.9l-0.1 0.5h-0.1v-0.5z"/><path fill-rule="evenodd" class="a" d="m8.8 16.9l-0.1 0.5h-0.1v-0.5zm-1.9 0v0.5h-0.1v-0.5zm1.3 0v0.5h-0.2v-0.5zm-0.6 0v0.5h-0.2v-0.5z"/><path fill-rule="evenodd" class="a" d="m8.2 17.3v0.1h-0.7v-0.2zm0.1-0.3v0.1h-0.5v-0.1z"/><path fill-rule="evenodd" class="a" d="m35.5 16.4v0.2h-2.3v-0.1zm-1.8 0.8v0.1h-0.1v-0.1zm1.8 0v0.1h-0.5v-0.1zm0.2-0.8h0.2v0.9h-0.2z"/><path fill-rule="evenodd" class="a" d="m36.6 17.3v0.1h-0.8v-0.2zm-1.7-0.3h0.2v0.5h-0.2z"/><path fill-rule="evenodd" class="a" d="m36.5 16.4l0.2 0.1v0.9h-0.2zm-0.2 0v0.9h-0.2v-0.9zm-2.2 0.4v0.1h-0.9v-0.1zm1.9 0v0.1h-0.9v-0.1z"/><path fill-rule="evenodd" class="a" d="m35.2 16.9v0.5h-0.1v-0.5z"/><path fill-rule="evenodd" class="a" d="m35.2 16.9v0.5h-0.1v-0.5z"/><path fill-rule="evenodd" class="a" d="m35.2 16.9v0.5h-0.1v-0.5zm-1.9 0v0.5h-0.1v-0.5zm1.3 0v0.5h-0.2v-0.5zm-0.6 0v0.5h-0.2v-0.5z"/><path fill-rule="evenodd" class="a" d="m34.6 17.3v0.1h-0.7v-0.2zm0.1-0.3v0.1h-0.5v-0.1z"/><path fill-rule="evenodd" class="a" d="m10.5 16.4l2.3 0.1v0.1h-2.3zm0.5 0.8v0.1h-0.2v-0.1zm1.9 0v0.1h-0.5v-0.1zm0.4-0.8v0.9h-0.1v-0.9z"/><path fill-rule="evenodd" class="a" d="m14 17.3v0.1h-0.9v-0.2zm-1.4-0.3v0.5h-0.2v-0.5z"/><path fill-rule="evenodd" class="a" d="m14 16.4v1h-0.2v-0.9zm-0.4 0v0.9h-0.1v-0.9zm-2.3 0.3v0.2h-0.8v-0.2zm1.8 0v0.2h-0.8v-0.2z"/><path fill-rule="evenodd" class="a" d="m12.5 16.9v0.5h-0.2v-0.5z"/><path fill-rule="evenodd" class="a" d="m12.5 16.9v0.5h-0.2v-0.5z"/><path fill-rule="evenodd" class="a" d="m12.5 16.9v0.5h-0.2v-0.5zm-1.8 0v0.5h-0.2v-0.5zm1.4 0v0.5h-0.2v-0.5zm-0.7 0v0.5h-0.1v-0.5z"/><path fill-rule="evenodd" class="a" d="m11.9 17.3v0.1h-0.7v-0.2zm0.1-0.3v0.1h-0.4v-0.1z"/><path fill-rule="evenodd" class="a" d="m16.6 16.4v0.2h-2.3v-0.1zm-1.8 0.8v0.1h-0.2v-0.1zm1.8 0v0.1h-0.4v-0.1zm0.4-0.8v0.9h-0.2v-0.9z"/><path fill-rule="evenodd" class="a" d="m17.8 17.3l-0.1 0.1h-0.8v-0.2zm-1.5-0.3v0.5h-0.2v-0.5z"/><path fill-rule="evenodd" class="a" d="m17.8 16.4v1h-0.1v-0.9zm-0.4 0v0.9h-0.2v-0.9zm-2.3 0.3v0.2h-0.8v-0.2zm1.8 0v0.2h-0.8v-0.2z"/><path fill-rule="evenodd" class="a" d="m16.3 16.9v0.5h-0.1v-0.5z"/><path fill-rule="evenodd" class="a" d="m16.3 16.9v0.5h-0.1v-0.5z"/><path fill-rule="evenodd" class="a" d="m16.3 16.9v0.5h-0.2v-0.5zm-1.8 0v0.5h-0.2v-0.5zm1.4 0v0.5h-0.2v-0.5zm-0.8 0h0.2v0.5h-0.2z"/><path fill-rule="evenodd" class="a" d="m15.8 17.3l-0.1 0.1h-0.7v-0.2zm0.1-0.3v0.1h-0.4v-0.1z"/><path fill-rule="evenodd" class="c" d="m37 0v7.9h-42v-7.9z"/><path fill-rule="evenodd" class="a" d="m20.4 16.4v0.2h-2.3v-0.1zm-1.8 0.8v0.1h-0.2v-0.1zm1.9 0v0.1h-0.5v-0.1zm0.4-0.8v0.9h-0.1v-0.9z"/><path fill-rule="evenodd" class="a" d="m21.6 17.3l-0.1 0.1h-0.8v-0.2zm-1.7-0.3h0.2v0.5h-0.2z"/><path fill-rule="evenodd" class="a" d="m21.6 16.4v1h-0.1v-0.9zm-0.4 0v0.9h-0.2v-0.9zm-2.2 0.3v0.2h-0.9v-0.2zm1.8 0v0.2h-0.8v-0.2z"/><path fill-rule="evenodd" class="a" d="m20.1 16.9v0.5h-0.1v-0.5z"/><path fill-rule="evenodd" class="a" d="m20.1 16.9v0.5h-0.1v-0.5z"/><path fill-rule="evenodd" class="a" d="m20 16.9v0.5h0.1v-0.5zm-1.9 0v0.5h0.2v-0.5zm1.3 0v0.5h0.2v-0.5zm-0.7 0v0.5h0.1v-0.5z"/><path fill-rule="evenodd" class="a" d="m19.6 17.3l-0.1 0.1h-0.7v-0.2zm0.1-0.3v0.1h-0.4v-0.1z"/><path fill-rule="evenodd" class="a" d="m24.2 16.4v0.2h-2.3v-0.1zm-1.8 0.8v0.1h-0.2v-0.1zm1.9 0v0.1h-0.5v-0.1zm0.3-0.8v0.9h-0.1v-0.9z"/><path fill-rule="evenodd" class="a" d="m25.4 17.3v0.1h-0.9v-0.2zm-1.5-0.3v0.5h-0.1v-0.5z"/><path fill-rule="evenodd" class="a" d="m25.4 16.4v1h-0.2v-0.9zm-0.4 0v0.9h-0.1v-0.9zm-2.3 0.3v0.2h-0.9v-0.2zm1.9 0v0.2h-0.9v-0.2z"/><path fill-rule="evenodd" class="a" d="m23.9 16.9v0.5h-0.1v-0.5z"/><path fill-rule="evenodd" class="a" d="m23.9 16.9v0.5h-0.1v-0.5z"/><path fill-rule="evenodd" class="a" d="m23.9 16.9v0.5h-0.1v-0.5zm-1.9 0v0.5h-0.2v-0.5zm1.4 0v0.5h-0.2v-0.5zm-0.8 0h0.2v0.5h-0.2z"/><path fill-rule="evenodd" class="a" d="m23.4 17.3v0.1h-0.7v-0.2zm0-0.3v0.1h-0.4v-0.1z"/><path fill-rule="evenodd" class="a" d="m27.9 16.4l0.1 0.2h-2.4v-0.1zm-1.8 0.8v0.1h-0.1v-0.1zm1.8 0v0.1h-0.4v-0.1zm0.4-0.8v0.9h-0.2v-0.9z"/><path fill-rule="evenodd" class="a" d="m29.1 17.3v0.1h-0.9v-0.2zm-1.4-0.3v0.5h-0.1v-0.5z"/><path fill-rule="evenodd" class="a" d="m29.1 16.4v1h-0.1v-0.9zm-0.4 0v0.9h-0.1v-0.9zm-2.3 0.3v0.2h-0.9v-0.2zm1.9 0v0.2h-0.9v-0.2z"/><path fill-rule="evenodd" class="a" d="m27.6 16.9v0.5h-0.1v-0.5z"/><path fill-rule="evenodd" class="a" d="m27.6 16.9v0.5h-0.1v-0.5z"/><path fill-rule="evenodd" class="a" d="m27.6 16.9v0.5h-0.1v-0.5zm-1.8 0v0.5h-0.2v-0.5zm1.3 0v0.5h-0.1v-0.5zm-0.7 0v0.5h-0.2v-0.5z"/><path fill-rule="evenodd" class="a" d="m27.1 17.3v0.1h-0.7v-0.2zm0-0.3v0.1h-0.4v-0.1z"/><path fill-rule="evenodd" class="a" d="m31.8 16.4l-0.1 0.2h-2.3v-0.1zm-1.7 0.8v0.1h-0.2v-0.1zm1.8 0v0.1h-0.4v-0.1zm0.4-0.8v0.9h-0.2v-0.9z"/><path fill-rule="evenodd" class="a" d="m33 17.3v0.1h-0.9v-0.2zm-1.5-0.3v0.5h-0.1v-0.5z"/><path fill-rule="evenodd" class="a" d="m33 16.4v1h-0.2v-0.9zm-0.4 0v0.9h-0.1v-0.9zm-2.3 0.3v0.2h-0.8v-0.2zm1.8 0v0.2h-0.8v-0.2z"/><path fill-rule="evenodd" class="a" d="m31.4 16.9l0.1 0.5h-0.2v-0.5z"/><path fill-rule="evenodd" class="a" d="m31.4 16.9l0.1 0.5h-0.2v-0.5z"/><path fill-rule="evenodd" class="a" d="m31.4 16.9l0.1 0.5h-0.2v-0.5zm-1.8 0v0.5h-0.2v-0.5zm1.4 0v0.5h-0.2v-0.5zm-0.6 0v0.5h-0.2v-0.5z"/><path fill-rule="evenodd" class="a" d="m30.9 17.3l0.1 0.1h-0.7v-0.2zm0-0.3v0.1h-0.5v-0.1z"/><path fill-rule="evenodd" class="a" d="m-2.3 16.4v0.2h-2.3v-0.1zm-1.8 0.8v0.1h-0.2v-0.1zm1.8 0v0.1h-0.5v-0.1zm0.5-0.8v0.9h-0.2v-0.9z"/><path fill-rule="evenodd" class="a" d="m-1.1 17.3v0.1h-0.9v-0.2zm-1.5-0.3v0.5h-0.1v-0.5z"/><path fill-rule="evenodd" class="a" d="m-1.1 16.4v1h-0.1v-0.9zm-0.4 0v0.9h-0.2v-0.9zm-2.3 0.3v0.2h-0.8v-0.2zm1.8 0v0.2h-0.8v-0.2z"/><path fill-rule="evenodd" class="a" d="m-2.6 16.9v0.5h-0.1v-0.5z"/><path fill-rule="evenodd" class="a" d="m-2.6 16.9v0.5h-0.1v-0.5z"/><path fill-rule="evenodd" class="a" d="m-2.6 16.9v0.5h-0.1v-0.5zm-1.9 0v0.5h-0.1v-0.5zm1.3 0v0.5h-0.1v-0.5zm-0.7 0v0.5h-0.1v-0.5z"/><path fill-rule="evenodd" class="a" d="m-3.1 17.3v0.1h-0.7v-0.2zm0-0.3v0.1h-0.4v-0.1z"/><path fill-rule="evenodd" class="a" d="m5.3 6.7v0.2h-2.3v-0.2zm-1.8 0.8v0.2h-0.1v-0.2zm1.8 0v0.2h-0.5v-0.2zm0.4-0.8v1h-0.2v-1z"/><path fill-rule="evenodd" class="a" d="m6.5 7.5v0.2h-0.9v-0.2zm-1.6-0.3h0.1v0.5h-0.1z"/><path fill-rule="evenodd" class="a" d="m6.5 6.7v1h-0.2v-1zm-0.3 0v1h-0.3v-1zm-2.2 0.4v0.2h-0.8v-0.2zm1.8 0v0.2h-0.8v-0.2z"/><path fill-rule="evenodd" class="a" d="m4.8 7.2h0.2v0.5h-0.2z"/><path fill-rule="evenodd" class="a" d="m4.8 7.2h0.2v0.5h-0.2z"/><path fill-rule="evenodd" class="a" d="m4.8 7.2h0.2v0.5h-0.2zm-1.7-0.1v0.6h-0.1v-0.6zm1.4 0v0.6h-0.2v-0.6zm-0.7 0v0.6h-0.1v-0.6z"/><path fill-rule="evenodd" class="a" d="m4.5 7.5v0.2h-0.8l0.1-0.2zm0-0.4v0.2h-0.5v-0.2z"/><path fill-rule="evenodd" class="a" d="m1.5 6.7v0.2h-2.3v-0.2zm-1.9 0.8h0.1v0.2h-0.2zm2 0v0.1h-0.5v-0.1zm0.4-0.8v0.9h-0.1v-0.9z"/><path fill-rule="evenodd" class="a" d="m2.7 7.5v0.2h-0.9v-0.2zm-1.4-0.3v0.5h-0.2v-0.5z"/><path fill-rule="evenodd" class="a" d="m2.7 6.7v1h-0.1v-1zm-0.4 0v1h-0.2v-1zm-2.2 0.4v0.2h-0.9v-0.2zm1.9 0v0.2h-0.9v-0.2z"/><path fill-rule="evenodd" class="a" d="m1.2 7.2v0.5h-0.1v-0.5z"/><path fill-rule="evenodd" class="a" d="m1.2 7.2v0.5h-0.1v-0.5z"/><path fill-rule="evenodd" class="a" d="m1.2 7.2v0.5h-0.1v-0.5zm-1.9 0v0.5h-0.2v-0.5zm1.4 0v0.5h-0.2v-0.5zm-0.7 0v0.5h-0.1v-0.5z"/><path fill-rule="evenodd" class="a" d="m0.7 7.5v0.2h-0.7v-0.2zm0-0.4v0.2h-0.4v-0.2z"/><path fill-rule="evenodd" class="a" d="m9.1 6.7v0.2h-2.3v-0.2zm-1.8 0.8v0.2h-0.2v-0.2zm1.8 0v0.2h-0.5v-0.2zm0.5-0.8v1h-0.2v-1z"/><path fill-rule="evenodd" class="a" d="m10.2 7.5v0.2h-0.8v-0.2zm-1.5-0.3v0.5h-0.2v-0.5z"/><path fill-rule="evenodd" class="a" d="m10.3 6.7l-0.1 1h-0.1v-1zm-0.6 0h0.2v1h-0.2zm-2.1 0.4v0.1h-0.8v-0.1zm1.8 0v0.1h-0.8v-0.1z"/><path fill-rule="evenodd" class="a" d="m8.8 7.2l-0.1 0.5h-0.1v-0.5z"/><path fill-rule="evenodd" class="a" d="m8.8 7.2l-0.1 0.5h-0.1v-0.5z"/><path fill-rule="evenodd" class="a" d="m8.6 7.2v0.5h0.2v-0.5zm-1.9 0v0.5h0.2v-0.5zm1.3 0v0.5h0.2v-0.5zm-0.7 0v0.5h0.2v-0.5z"/><path fill-rule="evenodd" class="a" d="m8.2 7.5v0.2h-0.7v-0.2zm0.1-0.4v0.2h-0.5v-0.2z"/><path fill-rule="evenodd" class="a" d="m35.5 6.7v0.2h-2.3v-0.2zm-1.8 0.8v0.2h-0.1v-0.2zm1.8 0v0.2h-0.5v-0.2zm0.2-0.8h0.2v1h-0.2z"/><path fill-rule="evenodd" class="a" d="m36.6 7.5v0.2h-0.8v-0.2zm-1.7-0.3h0.2v0.5h-0.2z"/><path fill-rule="evenodd" class="a" d="m36.5 6.7h0.2v1h-0.2zm-0.2 0v0.9h-0.2v-0.9zm-2.2 0.4v0.1h-0.9v-0.1zm1.9 0v0.1h-0.9v-0.1z"/><path fill-rule="evenodd" class="a" d="m35.2 7.2v0.5h-0.1v-0.5z"/><path fill-rule="evenodd" class="a" d="m35.2 7.2v0.5h-0.1v-0.5z"/><path fill-rule="evenodd" class="a" d="m35.2 7.2v0.5h-0.1v-0.5zm-1.9 0v0.5h-0.1v-0.5zm1.3 0v0.5h-0.2v-0.5zm-0.6 0v0.5h-0.2v-0.5z"/><path fill-rule="evenodd" class="a" d="m34.6 7.5v0.2h-0.7v-0.2zm0.1-0.4v0.2h-0.5v-0.2z"/><path fill-rule="evenodd" class="a" d="m10.5 6.7h2.3v0.2h-2.3zm0.5 0.8v0.2h-0.2v-0.2zm1.9 0v0.2h-0.5v-0.2zm0.4-0.8v1h-0.1v-1z"/><path fill-rule="evenodd" class="a" d="m14 7.5v0.2h-0.9v-0.2zm-1.4-0.3v0.5h-0.2v-0.5z"/><path fill-rule="evenodd" class="a" d="m14 6.7v1h-0.2v-1zm-0.4 0v1h-0.1v-1zm-2.3 0.4v0.2h-0.8v-0.2zm1.8 0v0.2h-0.8v-0.2z"/><path fill-rule="evenodd" class="a" d="m12.5 7.2v0.5h-0.2v-0.5z"/><path fill-rule="evenodd" class="a" d="m12.5 7.2v0.5h-0.2v-0.5z"/><path fill-rule="evenodd" class="a" d="m12.5 7.2v0.5h-0.2v-0.5zm-1.8 0v0.5h-0.2v-0.5zm1.4 0v0.5h-0.2v-0.5zm-0.7 0v0.5h-0.1v-0.5z"/><path fill-rule="evenodd" class="a" d="m11.9 7.5v0.2h-0.7v-0.2zm0.1-0.4v0.2h-0.4v-0.2z"/><path fill-rule="evenodd" class="a" d="m16.6 6.7v0.2h-2.3v-0.2zm-1.8 0.8v0.2h-0.2v-0.2zm1.8 0v0.2h-0.4v-0.2zm0.4-0.8v1h-0.2v-1z"/><path fill-rule="evenodd" class="a" d="m17.8 7.5l-0.1 0.2h-0.8v-0.2zm-1.5-0.3v0.5h-0.2v-0.5z"/><path fill-rule="evenodd" class="a" d="m17.8 6.7v1h-0.1v-1zm-0.4 0v1h-0.2v-1zm-2.3 0.4v0.2h-0.8v-0.2zm1.8 0v0.2h-0.8v-0.2z"/><path fill-rule="evenodd" class="a" d="m16.3 7.2v0.5h-0.1v-0.5z"/><path fill-rule="evenodd" class="a" d="m16.3 7.2v0.5h-0.1v-0.5z"/><path fill-rule="evenodd" class="a" d="m16.3 7.2v0.5h-0.2v-0.5zm-1.8 0v0.5h-0.2v-0.5zm1.4 0v0.5h-0.2v-0.5zm-0.8 0h0.2v0.5h-0.2z"/><path fill-rule="evenodd" class="a" d="m15.8 7.5l-0.1 0.2h-0.7v-0.2zm0.1-0.4v0.2h-0.4v-0.2z"/><path fill-rule="evenodd" class="a" d="m20.4 6.7v0.2h-2.3v-0.2zm-1.8 0.8v0.2h-0.2v-0.2zm1.9 0v0.2h-0.5v-0.2zm0.4-0.8v1h-0.1v-1z"/><path fill-rule="evenodd" class="a" d="m21.6 7.5l-0.1 0.2h-0.8v-0.2zm-1.7-0.3h0.2v0.5h-0.2z"/><path fill-rule="evenodd" class="a" d="m21.6 6.7v1h-0.1v-1zm-0.4 0v1h-0.2v-1zm-2.2 0.4v0.2h-0.9v-0.2zm1.8 0v0.2h-0.8v-0.2z"/><path fill-rule="evenodd" class="a" d="m20.1 7.2v0.5h-0.1v-0.5z"/><path fill-rule="evenodd" class="a" d="m20.1 7.2v0.5h-0.1v-0.5z"/><path fill-rule="evenodd" class="a" d="m20.1 7.2v0.5h-0.1v-0.5zm-1.9 0v0.5h-0.1v-0.5zm1.3 0v0.5h-0.1v-0.5zm-0.7 0v0.5h-0.2v-0.5z"/><path fill-rule="evenodd" class="a" d="m19.6 7.5l-0.1 0.2h-0.7v-0.2zm0.1-0.4v0.2h-0.4v-0.2z"/><path fill-rule="evenodd" class="a" d="m24.2 6.7v0.2h-2.3v-0.2zm-1.8 0.8v0.2h-0.2v-0.2zm1.9 0v0.2h-0.5v-0.2zm0.3-0.8v1h-0.1v-1z"/><path fill-rule="evenodd" class="a" d="m25.4 7.5v0.2h-0.9v-0.2zm-1.5-0.3v0.5h-0.1v-0.5z"/><path fill-rule="evenodd" class="a" d="m25.4 6.7v1h-0.2v-1zm-0.4 0v1h-0.1v-1zm-2.3 0.4v0.2h-0.9v-0.2zm1.9 0v0.2h-0.9v-0.2z"/><path fill-rule="evenodd" class="a" d="m23.9 7.2v0.5h-0.1v-0.5z"/><path fill-rule="evenodd" class="a" d="m23.9 7.2v0.5h-0.1v-0.5z"/><path fill-rule="evenodd" class="a" d="m23.9 7.2v0.5h-0.1v-0.5zm-1.9 0v0.5h-0.2v-0.5zm1.4 0v0.5h-0.2v-0.5zm-0.8 0h0.2v0.5h-0.2z"/><path fill-rule="evenodd" class="a" d="m23.4 7.5v0.2h-0.7v-0.2zm0-0.4v0.2h-0.4v-0.2z"/><path fill-rule="evenodd" class="a" d="m27.9 6.7l0.1 0.2h-2.4v-0.2zm-1.8 0.8v0.2h-0.1v-0.2zm1.8 0v0.2h-0.4v-0.2zm0.4-0.8v1h-0.2v-1z"/><path fill-rule="evenodd" class="a" d="m29.1 7.5v0.2h-0.9v-0.2zm-1.4-0.3v0.5h-0.1v-0.5z"/><path fill-rule="evenodd" class="a" d="m29.1 6.7v1h-0.1v-1zm-0.4 0v1h-0.1v-1zm-2.3 0.4v0.2h-0.9v-0.2zm1.9 0v0.2h-0.9v-0.2z"/><path fill-rule="evenodd" class="a" d="m27.6 7.2v0.5h-0.1v-0.5z"/><path fill-rule="evenodd" class="a" d="m27.6 7.2v0.5h-0.1v-0.5z"/><path fill-rule="evenodd" class="a" d="m27.6 7.2v0.5h-0.1v-0.5zm-1.8 0v0.5h-0.2v-0.5zm1.3 0v0.5h-0.1v-0.5zm-0.7 0v0.5h-0.2v-0.5z"/><path fill-rule="evenodd" class="a" d="m27.1 7.5v0.2h-0.7v-0.2zm0-0.4v0.2h-0.4v-0.2z"/><path fill-rule="evenodd" class="a" d="m31.8 6.7l-0.1 0.2h-2.3v-0.2zm-1.7 0.8v0.2h-0.2v-0.2zm1.8 0v0.2h-0.4v-0.2zm0.4-0.8v1h-0.2v-1z"/><path fill-rule="evenodd" class="a" d="m33 7.5v0.2h-0.9v-0.2zm-1.5-0.3v0.5h-0.1v-0.5z"/><path fill-rule="evenodd" class="a" d="m33 6.7v1h-0.2v-1zm-0.4 0v1h-0.1v-1zm-2.3 0.4v0.2h-0.8v-0.2zm1.8 0v0.2h-0.8v-0.2z"/><path fill-rule="evenodd" class="a" d="m31.4 7.2l0.1 0.5h-0.2v-0.5z"/><path fill-rule="evenodd" class="a" d="m31.4 7.2l0.1 0.5h-0.2v-0.5z"/><path fill-rule="evenodd" class="a" d="m31.4 7.2l0.1 0.5h-0.2v-0.5zm-1.8 0v0.5h-0.2v-0.5zm1.4 0v0.5h-0.2v-0.5zm-0.6 0v0.5h-0.2v-0.5z"/><path fill-rule="evenodd" class="a" d="m30.9 7.5l0.1 0.2h-0.7v-0.2zm0-0.4v0.2h-0.5v-0.2z"/><path fill-rule="evenodd" class="a" d="m-2.3 6.7v0.2h-2.3v-0.2zm-1.8 0.8v0.2h-0.2v-0.2zm1.8 0v0.2h-0.5v-0.2zm0.5-0.8v1h-0.2v-1z"/><path fill-rule="evenodd" class="a" d="m-1.1 7.5v0.2h-0.9v-0.2zm-1.5-0.3v0.5h-0.1v-0.5z"/><path fill-rule="evenodd" class="a" d="m-1.1 6.7v1h-0.1v-1zm-0.4 0v1h-0.2v-1zm-2.3 0.4v0.2h-0.8v-0.2zm1.8 0v0.2h-0.8v-0.2z"/><path fill-rule="evenodd" class="a" d="m-2.6 7.2v0.5h-0.1v-0.5z"/><path fill-rule="evenodd" class="a" d="m-2.6 7.2v0.5h-0.1v-0.5z"/><path fill-rule="evenodd" class="a" d="m-2.6 7.2v0.5h-0.1v-0.5zm-1.9 0v0.5h-0.2v-0.5zm1.4 0v0.5h-0.2v-0.5zm-0.7 0v0.5h-0.1v-0.5z"/><path fill-rule="evenodd" class="a" d="m-3.1 7.5v0.2h-0.7v-0.2zm0-0.4v0.2h-0.4v-0.2z"/><path fill-rule="evenodd" class="d" d="m1.1 15.9l-0.1 0.5h-0.2v-0.5zm7.5 0v0.5h-0.3v-0.5zm-13.3 0v0.5h-0.2v-0.5zm3.8 0v0.5h-0.3v-0.5zm3.8 0v0.5h-0.3v-0.5zm1.9 0v0.5h-0.3v-0.5zm1.9 0v0.5h-0.3v-0.5zm3.8 0v0.5h-0.3v-0.5zm9.3 0h0.3v0.5h-0.3zm-7.3 0v0.5h-0.4v-0.5zm1.9 0v0.5h-0.3v-0.5zm1.6 0h0.3v0.5h-0.3zm2.2 0v0.5h-0.3v-0.5zm15.2 0v0.5h-0.3v-0.5zm-11.3 0v0.5h-0.3v-0.5zm1.8 0v0.5h-0.2v-0.5zm1.9 0v0.5h-0.3v-0.5zm1.8 0v0.5h-0.2v-0.5zm1.9 0v0.5h-0.3v-0.5zm1.9 0v0.5h-0.3v-0.5zm5.6 0v0.5h-0.2v-0.5zm-1.9 0v0.5h-0.2v-0.5zm-38 0v0.5h-0.2v-0.5z"/><path fill-rule="evenodd" class="e" d="m1.1 7.6l-0.1 0.5h-0.2v-0.5zm7.5 0v0.5h-0.3v-0.5zm-13.3 0v0.5h-0.2v-0.5zm3.8 0v0.5h-0.3v-0.5zm3.8 0v0.5h-0.3v-0.5zm1.9 0v0.5h-0.3v-0.5zm1.9 0v0.5h-0.3v-0.5zm3.8 0v0.5h-0.3v-0.5zm9.3 0h0.3v0.5h-0.3zm-7.3 0v0.5h-0.4v-0.5zm1.9 0v0.5h-0.3v-0.5zm1.6 0h0.3v0.5h-0.3zm2.2 0v0.5h-0.3v-0.5zm15.2 0v0.5h-0.3v-0.5zm-11.3 0v0.5h-0.3v-0.5zm1.8 0v0.5h-0.2v-0.5zm1.9 0v0.5h-0.3v-0.5zm1.8 0v0.5h-0.2v-0.5zm1.9 0v0.5h-0.3v-0.5zm1.9 0v0.5h-0.3v-0.5zm5.6 0v0.5h-0.2v-0.5zm-1.9 0v0.5h-0.2v-0.5zm-38 0v0.5h-0.2v-0.5z"/><path fill-rule="evenodd" class="b" d="m17.1 9.3c0.4 0.4 1.6 3.1-0.7 4.9-1.1 0.8-0.4 0.8-0.4 1 1.8-1 2.4-2.2 2.4-3.4-0.1-1.1-0.7-2.2-1.3-2.6z"/><path fill-rule="evenodd" class="b" d="m17.4 9.2q0.6 0.3 1.1 1c0.2 0.4 0.4 0.9 0.5 1.4q0.1 0.8-0.1 1.5-0.3 0.8-0.8 1.3c1.3-0.3 2.9-4-0.7-5.2zm-3.5 5.2q-0.5-0.5-0.7-1.3-0.3-0.8-0.1-1.5c0-0.5 0.2-1 0.5-1.4q0.4-0.7 1.1-1.1c-3.7 1.2-2 5-0.8 5.3z"/><path fill-rule="evenodd" class="b" d="m14.9 9.3c-0.4 0.4-1.7 3.1 0.7 4.9 1.1 0.8 0.5 0.8 0.4 1-1.8-1-2.4-2.2-2.4-3.4 0.1-1.1 0.7-2.2 1.3-2.6z"/><path fill-rule="evenodd" class="b" d="m18.3 14.9c-0.8 0-1.6-0.1-2.3-0.4 0.2 0.2 0.2 0.3 0.4 0.6 0.6 0.1 1.4 0.1 1.8-0.2zm-2.5 0.1c0.1-0.2 0.2-0.3 0.3-0.5-0.6 0.3-1.5 0.4-2.2 0.4 0.4 0.3 1.3 0.2 1.9 0.1zm0.3-6c0 0.2 1 0.4 0.9-0.5-0.2 0.3-0.6 0.3-0.9 0.2-0.4 0.2-0.8 0.1-0.9-0.2-0.2 0.7 0.5 0.9 0.9 0.5z"/><path fill-rule="evenodd" class="b" d="m16 15.6l0.4-0.5v-5.6l-0.4-0.4-0.4 0.4 0.1 5.7z"/></g></svg>