<svg version="1.2" xmlns="http://www.w3.org/2000/svg" viewBox="0 0 64 48" width="32" height="24">
	<title>fa</title>
	<defs>
		<clipPath clipPathUnits="userSpaceOnUse" id="cp1">
			<path d="m64.01 0v48h-64.01v-48z"/>
		</clipPath>
	</defs>
	<style>
		.s0 { fill: #ffffff } 
		.s1 { fill: #da0000 } 
		.s2 { fill: #239f40 } 
		.s3 { fill: #d90000 } 
		.s4 { fill: #239e3f } 
	</style>
	<g id="Clip-Path" clip-path="url(#cp1)">
		<g>
			<path fill-rule="evenodd" class="s0" d="m74 0v48h-84v-48z"/>
			<path fill-rule="evenodd" class="s1" d="m74 32.2v15.8h-84v-15.8z"/>
			<path fill-rule="evenodd" class="s0" d="m10.6 32.9v0.3h-4.6v-0.3zm-3.6 1.6v0.3h-0.3v-0.3zm3.6 0v0.3h-0.9v-0.3zm0.8-1.6v1.9h-0.4v-1.9z"/>
			<path fill-rule="evenodd" class="s0" d="m12.9 34.5v0.3h-1.7v-0.3zm-3.3-0.8h0.3v1.1h-0.3z"/>
			<path fill-rule="evenodd" class="s0" d="m13 32.9v1.9h-0.4v-1.9zm-0.7 0v1.9h-0.4v-1.9zm-4.5 0.8v0.3h-1.7v-0.3zm3.7 0v0.3h-1.7v-0.3z"/>
			<path fill-rule="evenodd" class="s0" d="m9.7 33.7h0.3v1.1h-0.3z"/>
			<path fill-rule="evenodd" class="s0" d="m9.7 33.7h0.3v1.1h-0.3z"/>
			<path fill-rule="evenodd" class="s0" d="m9.7 33.7h0.3v1.1h-0.3zm-3.4 0v1h-0.3v-1zm2.7 0v1h-0.3v-1zm-1.4 0v1h-0.3v-1z"/>
			<path fill-rule="evenodd" class="s0" d="m8.9 34.5v0.3h-1.4v-0.3zm0.1-0.8v0.3h-0.9v-0.3z"/>
			<path fill-rule="evenodd" class="s0" d="m3 32.9v0.3h-4.6v-0.3zm-3.9 1.6h0.3v0.3h-0.3zm3.9 0v0.3h-0.9v-0.3zm0.8-1.6v1.9h-0.3v-1.9z"/>
			<path fill-rule="evenodd" class="s0" d="m5.4 34.5v0.3h-1.8v-0.3zm-2.9-0.8v1.1h-0.3v-1.1z"/>
			<path fill-rule="evenodd" class="s0" d="m5.4 32.9v1.9h-0.3v-1.9zm-0.8 0v1.9h-0.3v-1.9zm-4.5 0.8v0.3h-1.7v-0.3zm3.7 0v0.3h-1.7v-0.3z"/>
			<path fill-rule="evenodd" class="s0" d="m2.4 33.7v1.1h-0.3v-1.1z"/>
			<path fill-rule="evenodd" class="s0" d="m2.4 33.7v1.1h-0.3v-1.1z"/>
			<path fill-rule="evenodd" class="s0" d="m2.4 33.7v1.1h-0.3v-1.1zm-3.7 0v1.1h-0.3v-1.1zm2.8 0v1.1h-0.4v-1.1zm-1.5 0v1.1h-0.3v-1.1z"/>
			<path fill-rule="evenodd" class="s0" d="m1.3 34.5v0.3h-1.4v-0.3zm0.1-0.8v0.3h-0.9v-0.3z"/>
			<path fill-rule="evenodd" class="s0" d="m18.1 32.9v0.3h-4.6v-0.3zm-3.6 1.6v0.3h-0.3v-0.3zm3.6 0v0.3h-1v-0.3zm0.9-1.6v1.9h-0.4v-1.9z"/>
			<path fill-rule="evenodd" class="s0" d="m20.4 34.5v0.3h-1.7v-0.3zm-3-0.8v1.1h-0.3v-1.1z"/>
			<path fill-rule="evenodd" class="s0" d="m20.5 32.9v1.9h-0.4v-1.9zm-1.1 0h0.4v1.9h-0.4zm-4.2 0.7v0.3h-1.7v-0.3zm3.7 0v0.3h-1.7v-0.3z"/>
			<path fill-rule="evenodd" class="s0" d="m17.5 33.7v1.1h-0.3v-1.1z"/>
			<path fill-rule="evenodd" class="s0" d="m17.5 33.7v1.1h-0.3v-1.1z"/>
			<path fill-rule="evenodd" class="s0" d="m17.5 33.7v1.1h-0.3v-1.1zm-3.7 0v1.1h-0.3v-1.1zm2.7 0v1.1h-0.4v-1.1zm-1.3 0v1.1h-0.3v-1.1z"/>
			<path fill-rule="evenodd" class="s0" d="m16.4 34.5v0.3h-1.4v-0.3zm0.1-0.8v0.3h-0.9v-0.3z"/>
			<path fill-rule="evenodd" class="s0" d="m71 32.9v0.3h-4.6v-0.3zm-3.6 1.6v0.3h-0.3v-0.3zm3.6 0v0.3h-1v-0.3zm0.5-1.6h0.4v1.9h-0.4z"/>
			<path fill-rule="evenodd" class="s0" d="m73.3 34.5v0.3h-1.7v-0.3zm-3.3-0.8h0.3v1.1h-0.3z"/>
			<path fill-rule="evenodd" class="s0" d="m73.1 32.9h0.3v1.9h-0.3zm-0.5 0v1.9h-0.3v-1.9zm-4.6 0.7v0.3h-1.7v-0.3zm3.7 0v0.3h-1.7v-0.3z"/>
			<path fill-rule="evenodd" class="s0" d="m70.4 33.7v1.1h-0.3v-1.1z"/>
			<path fill-rule="evenodd" class="s0" d="m70.4 33.7v1.1h-0.3v-1.1z"/>
			<path fill-rule="evenodd" class="s0" d="m70.4 33.7v1.1h-0.3v-1.1zm-3.7 0v1.1h-0.3v-1.1zm2.7 0v1.1h-0.4v-1.1zm-1.3 0v1.1h-0.3v-1.1z"/>
			<path fill-rule="evenodd" class="s0" d="m69.3 34.5v0.3h-1.4v-0.3zm0.1-0.8v0.3h-0.9v-0.3z"/>
			<path fill-rule="evenodd" class="s0" d="m21 32.9h4.6v0.3h-4.6zm1 1.6v0.3h-0.3v-0.3zm3.6 0v0.3h-0.9v-0.3zm0.8-1.6v1.9h-0.3v-1.9z"/>
			<path fill-rule="evenodd" class="s0" d="m28 34.5v0.3h-1.8v-0.3zm-2.9-0.8v1.1h-0.3v-1.1z"/>
			<path fill-rule="evenodd" class="s0" d="m28 32.9v1.9h-0.3v-1.9zm-0.8 0v1.9h-0.3v-1.9zm-4.5 0.8v0.3h-1.7v-0.3zm3.7 0v0.3h-1.7v-0.3z"/>
			<path fill-rule="evenodd" class="s0" d="m25 33.7v1.1h-0.3v-1.1z"/>
			<path fill-rule="evenodd" class="s0" d="m25 33.7v1.1h-0.3v-1.1z"/>
			<path fill-rule="evenodd" class="s0" d="m25 33.7v1.1h-0.3v-1.1zm-3.7 0v1.1h-0.3v-1.1zm2.7 0v1.1h-0.3v-1.1zm-1.4 0v1.1h-0.3v-1.1z"/>
			<path fill-rule="evenodd" class="s0" d="m23.9 34.5v0.3h-1.4v-0.3zm0.1-0.8v0.3h-0.9v-0.3z"/>
			<path fill-rule="evenodd" class="s0" d="m33.2 32.9v0.3h-4.6v-0.3zm-3.6 1.6v0.3h-0.3v-0.3zm3.6 0v0.3h-0.9v-0.3zm0.8-1.6v1.9h-0.3v-1.9z"/>
			<path fill-rule="evenodd" class="s0" d="m35.5 34.5v0.3h-1.7v-0.3zm-3-0.8v1.1h-0.3v-1.1z"/>
			<path fill-rule="evenodd" class="s0" d="m35.6 32.9v1.9h-0.3v-1.9zm-0.8 0v1.9h-0.4v-1.9zm-4.5 0.8v0.3h-1.7v-0.3zm3.7 0v0.3h-1.7v-0.3z"/>
			<path fill-rule="evenodd" class="s0" d="m32.6 33.7v1.1h-0.3v-1.1z"/>
			<path fill-rule="evenodd" class="s0" d="m32.6 33.7v1.1h-0.3v-1.1z"/>
			<path fill-rule="evenodd" class="s0" d="m32.6 33.7v1.1h-0.3v-1.1zm-3.7 0v1.1h-0.3v-1.1zm2.7 0v1.1h-0.3v-1.1zm-1.6 0h0.3v1.1h-0.3z"/>
			<path fill-rule="evenodd" class="s0" d="m31.5 34.5v0.3h-1.4v-0.3zm0.1-0.8v0.3h-0.9v-0.3z"/>
			<path fill-rule="evenodd" class="s2" d="m74 0v15.8h-84v-15.8z"/>
			<path fill-rule="evenodd" class="s0" d="m40.8 32.9v0.3h-4.6v-0.3zm-3.6 1.6v0.3h-0.3v-0.3zm3.6 0v0.3h-0.9v-0.3zm0.8-1.6v1.9h-0.3v-1.9z"/>
			<path fill-rule="evenodd" class="s0" d="m43.1 34.5v0.3h-1.7v-0.3zm-3.3-0.8h0.4v1.1h-0.4z"/>
			<path fill-rule="evenodd" class="s0" d="m43.2 32.9v1.9h-0.3v-1.9zm-0.8 0v1.9h-0.3v-1.9zm-4.5 0.8v0.3h-1.7v-0.3zm3.6 0v0.3h-1.6v-0.3z"/>
			<path fill-rule="evenodd" class="s0" d="m40.2 33.7v1.1h-0.3v-1.1z"/>
			<path fill-rule="evenodd" class="s0" d="m40.2 33.7v1.1h-0.3v-1.1z"/>
			<path fill-rule="evenodd" class="s0" d="m39.9 33.7v1.1h0.3v-1.1zm-3.7 0v1.1h0.3v-1.1zm2.7 0v1.1h0.3v-1.1zm-1.4 0v1.1h0.3v-1.1z"/>
			<path fill-rule="evenodd" class="s0" d="m39.1 34.5v0.3h-1.4v-0.3zm0.1-0.8v0.3h-0.9v-0.3z"/>
			<path fill-rule="evenodd" class="s0" d="m48.4 32.9v0.3h-4.6v-0.3zm-3.6 1.6v0.3h-0.4v-0.3zm3.7 0v0.3h-1v-0.3zm0.8-1.6v1.9h-0.3v-1.9z"/>
			<path fill-rule="evenodd" class="s0" d="m50.7 34.5v0.3h-1.8v-0.3zm-2.9-0.8v1.1h-0.3v-1.1z"/>
			<path fill-rule="evenodd" class="s0" d="m50.8 32.9v1.9h-0.4v-1.9zm-0.7 0v1.9h-0.4v-1.9zm-4.5 0.8v0.3h-1.7v-0.3zm3.7 0v0.3h-1.7v-0.3z"/>
			<path fill-rule="evenodd" class="s0" d="m47.8 33.7v1.1h-0.3v-1.1z"/>
			<path fill-rule="evenodd" class="s0" d="m47.8 33.7v1.1h-0.3v-1.1z"/>
			<path fill-rule="evenodd" class="s0" d="m47.8 33.7v1.1h-0.3v-1.1zm-3.7 0v1.1h-0.4v-1.1zm2.7 0v1.1h-0.3v-1.1zm-1.6 0h0.3v1.1h-0.3z"/>
			<path fill-rule="evenodd" class="s0" d="m46.7 34.5v0.3h-1.4v-0.3zm0.1-0.8v0.3h-0.9v-0.3z"/>
			<path fill-rule="evenodd" class="s0" d="m55.9 32.9v0.3h-4.6v-0.3zm-3.6 1.6v0.3h-0.3v-0.3zm3.6 0v0.3h-0.9v-0.3zm0.8-1.6v1.9h-0.3v-1.9z"/>
			<path fill-rule="evenodd" class="s0" d="m58.3 34.5v0.3h-1.8v-0.3zm-2.9-0.8v1.1h-0.3v-1.1z"/>
			<path fill-rule="evenodd" class="s0" d="m58.3 32.9v1.9h-0.3v-1.9zm-0.8 0v1.9h-0.3v-1.9zm-4.5 0.8v0.3h-1.7v-0.3zm3.7 0v0.3h-1.7v-0.3z"/>
			<path fill-rule="evenodd" class="s0" d="m55.3 33.7v1.1h-0.3v-1.1z"/>
			<path fill-rule="evenodd" class="s0" d="m55.3 33.7v1.1h-0.3v-1.1z"/>
			<path fill-rule="evenodd" class="s0" d="m55.3 33.7v1.1h-0.3v-1.1zm-3.6 0v1.1h-0.4v-1.1zm2.6 0v1.1h-0.3v-1.1zm-1.3 0v1.1h-0.4v-1.1z"/>
			<path fill-rule="evenodd" class="s0" d="m54.3 34.5v0.3h-1.5v-0.3zm0.1-0.8v0.3h-0.9v-0.3z"/>
			<path fill-rule="evenodd" class="s0" d="m63.5 32.9v0.3h-4.6v-0.3zm-3.5 1.6v0.3h-0.4v-0.3zm3.6 0v0.3h-0.9v-0.3zm0.8-1.6v1.9h-0.3v-1.9z"/>
			<path fill-rule="evenodd" class="s0" d="m65.9 34.5v0.3h-1.8v-0.3zm-2.9-0.8v1.1h-0.3v-1.1z"/>
			<path fill-rule="evenodd" class="s0" d="m65.9 32.9v1.9h-0.3v-1.9zm-0.8 0v1.9h-0.3v-1.9zm-4.5 0.8v0.3h-1.7v-0.3zm3.7 0v0.3h-1.7v-0.3z"/>
			<path fill-rule="evenodd" class="s0" d="m62.9 33.7v1.1h-0.3v-1.1z"/>
			<path fill-rule="evenodd" class="s0" d="m62.9 33.7v1.1h-0.3v-1.1z"/>
			<path fill-rule="evenodd" class="s0" d="m62.9 33.7v1.1h-0.3v-1.1zm-3.6 0v1.1h-0.4v-1.1zm2.8 0v1.1h-0.4v-1.1zm-1.3 0v1.1h-0.3v-1.1z"/>
			<path fill-rule="evenodd" class="s0" d="m61.9 34.5v0.3h-1.4v-0.3zm0-0.8v0.3h-0.9v-0.3z"/>
			<path fill-rule="evenodd" class="s0" d="m-4.6 32.9v0.3h-4.6v-0.3zm-3.6 1.6v0.3h-0.3v-0.3zm3.6 0v0.3h-1v-0.3zm0.9-1.6v1.9h-0.4v-1.9z"/>
			<path fill-rule="evenodd" class="s0" d="m-2.3 34.5v0.3h-1.7v-0.3zm-3-0.8v1.1h-0.3v-1.1z"/>
			<path fill-rule="evenodd" class="s0" d="m-2.2 32.9v1.9h-0.3v-1.9zm-0.8 0v1.9h-0.4v-1.9zm-4.5 0.8v0.3h-1.7v-0.3zm3.7 0v0.3h-1.6v-0.3z"/>
			<path fill-rule="evenodd" class="s0" d="m-5.2 33.7v1.1h-0.3v-1.1z"/>
			<path fill-rule="evenodd" class="s0" d="m-5.2 33.7v1.1h-0.3v-1.1z"/>
			<path fill-rule="evenodd" class="s0" d="m-5.2 33.7v1.1h-0.3v-1.1zm-3.7 0v1.1h-0.3v-1.1zm2.7 0v1.1h-0.3v-1.1zm-1.3 0v1.1h-0.3v-1.1z"/>
			<path fill-rule="evenodd" class="s0" d="m-6.3 34.5v0.3h-1.4v-0.3zm0.1-0.8v0.3h-0.9v-0.3z"/>
			<path fill-rule="evenodd" class="s0" d="m10.6 13.4v0.4h-4.6v-0.4zm-3.6 1.6v0.3h-0.3v-0.3zm3.6 0v0.3h-0.9v-0.3zm0.8-1.6v1.9h-0.4v-1.9z"/>
			<path fill-rule="evenodd" class="s0" d="m12.9 15v0.3h-1.7v-0.3zm-3.3-0.7h0.3v1h-0.3z"/>
			<path fill-rule="evenodd" class="s0" d="m13 13.4v1.9h-0.4v-1.9zm-0.7 0v1.9h-0.4v-1.9zm-4.5 0.8v0.3h-1.7v-0.3zm3.7 0v0.3h-1.7v-0.3z"/>
			<path fill-rule="evenodd" class="s0" d="m9.7 14.3h0.3v1h-0.3z"/>
			<path fill-rule="evenodd" class="s0" d="m9.7 14.3h0.3v1h-0.3z"/>
			<path fill-rule="evenodd" class="s0" d="m9.7 14.3h0.3v1h-0.3zm-3.4-0.1v1.1h-0.3v-1.1zm2.7 0v1.1h-0.3v-1.1zm-1.3 0v1.1h-0.3v-1.1z"/>
			<path fill-rule="evenodd" class="s0" d="m8.9 15v0.3h-1.4v-0.3zm0.1-0.8v0.3h-0.9v-0.3z"/>
			<path fill-rule="evenodd" class="s0" d="m3 13.4v0.4h-4.6v-0.4zm-3.9 1.6h0.3v0.3h-0.3zm3.9 0v0.3h-0.9v-0.3zm0.8-1.6v1.9h-0.3v-1.9z"/>
			<path fill-rule="evenodd" class="s0" d="m5.4 15v0.3h-1.8v-0.3zm-2.9-0.7v1h-0.3v-1z"/>
			<path fill-rule="evenodd" class="s0" d="m5.4 13.4v1.9h-0.3v-1.9zm-0.8 0v1.9h-0.3v-1.9zm-4.5 0.8v0.3h-1.7v-0.3zm3.7 0v0.3h-1.7v-0.3z"/>
			<path fill-rule="evenodd" class="s0" d="m2.4 14.3v1h-0.3v-1z"/>
			<path fill-rule="evenodd" class="s0" d="m2.4 14.3v1h-0.3v-1z"/>
			<path fill-rule="evenodd" class="s0" d="m2.4 14.3v1h-0.3v-1zm-3.7 0v1h-0.3v-1zm2.8 0v1h-0.4v-1zm-1.5 0v1h-0.3v-1z"/>
			<path fill-rule="evenodd" class="s0" d="m1.3 15v0.3h-1.4v-0.3zm0.1-0.8v0.3h-0.9v-0.3z"/>
			<path fill-rule="evenodd" class="s0" d="m18.1 13.4v0.4h-4.6v-0.4zm-3.6 1.6v0.3h-0.3v-0.3zm3.6 0v0.3h-1v-0.3zm0.9-1.6v1.9h-0.4v-1.9z"/>
			<path fill-rule="evenodd" class="s0" d="m20.4 15v0.3h-1.7v-0.3zm-3-0.7v1h-0.3v-1z"/>
			<path fill-rule="evenodd" class="s0" d="m20.5 13.4v1.9h-0.4v-1.9zm-1.1 0h0.4v1.9h-0.4zm-4.2 0.8v0.3h-1.7v-0.3zm3.7 0v0.3h-1.7v-0.3z"/>
			<path fill-rule="evenodd" class="s0" d="m17.5 14.3v1h-0.3v-1z"/>
			<path fill-rule="evenodd" class="s0" d="m17.5 14.3v1h-0.3v-1z"/>
			<path fill-rule="evenodd" class="s0" d="m17.2 14.3v1h0.3v-1zm-3.7 0v1h0.3v-1zm2.7 0v1h0.3v-1zm-1.3 0v1h0.3v-1z"/>
			<path fill-rule="evenodd" class="s0" d="m16.4 15v0.3h-1.4v-0.3zm0.1-0.8v0.3h-0.9v-0.3z"/>
			<path fill-rule="evenodd" class="s0" d="m71 13.4v0.4h-4.6v-0.4zm-3.6 1.6v0.3h-0.3v-0.3zm3.6 0v0.3h-1v-0.3zm0.5-1.6h0.4v1.9h-0.4z"/>
			<path fill-rule="evenodd" class="s0" d="m73.3 15v0.3h-1.7v-0.3zm-3.3-0.7h0.3v1h-0.3z"/>
			<path fill-rule="evenodd" class="s0" d="m73.1 13.4h0.3v1.9h-0.3zm-0.5 0v1.9h-0.3v-1.9zm-4.6 0.8v0.3h-1.7v-0.3zm3.7 0v0.3h-1.7v-0.3z"/>
			<path fill-rule="evenodd" class="s0" d="m70.4 14.3v1h-0.3v-1z"/>
			<path fill-rule="evenodd" class="s0" d="m70.4 14.3v1h-0.3v-1z"/>
			<path fill-rule="evenodd" class="s0" d="m70.4 14.3v1h-0.3v-1zm-3.7 0v1h-0.3v-1zm2.7 0v1h-0.4v-1zm-1.3 0v1h-0.3v-1z"/>
			<path fill-rule="evenodd" class="s0" d="m69.3 15v0.3h-1.4v-0.3zm0.1-0.8v0.3h-0.9v-0.3z"/>
			<path fill-rule="evenodd" class="s0" d="m21 13.4h4.6v0.4h-4.6zm1 1.6v0.3h-0.3v-0.3zm3.6-0.1v0.4h-0.9v-0.4zm0.8-1.5v1.9h-0.3v-1.9z"/>
			<path fill-rule="evenodd" class="s0" d="m28 15v0.3h-1.8v-0.3zm-2.9-0.7v1h-0.3v-1z"/>
			<path fill-rule="evenodd" class="s0" d="m28 13.4v1.9h-0.3v-1.9zm-0.8 0v1.9h-0.3v-1.9zm-4.5 0.8v0.3h-1.7v-0.3zm3.7 0v0.3h-1.7v-0.3z"/>
			<path fill-rule="evenodd" class="s0" d="m25 14.3v1h-0.3v-1z"/>
			<path fill-rule="evenodd" class="s0" d="m25 14.3v1h-0.3v-1z"/>
			<path fill-rule="evenodd" class="s0" d="m25 14.3v1h-0.3v-1zm-3.7 0v1h-0.3v-1zm2.7 0v1h-0.3v-1zm-1.4 0v1h-0.3v-1z"/>
			<path fill-rule="evenodd" class="s0" d="m23.9 15v0.3h-1.4v-0.3zm0.1-0.8v0.3h-0.9v-0.3z"/>
			<path fill-rule="evenodd" class="s0" d="m33.2 13.4v0.4h-4.6v-0.4zm-3.6 1.6v0.3h-0.3v-0.3zm3.6 0v0.3h-0.9v-0.3zm0.8-1.6v1.9h-0.3v-1.9z"/>
			<path fill-rule="evenodd" class="s0" d="m35.5 15v0.3h-1.7v-0.3zm-3-0.7v1h-0.3v-1z"/>
			<path fill-rule="evenodd" class="s0" d="m35.6 13.4v1.9h-0.3v-1.9zm-0.8 0v1.9h-0.4v-1.9zm-4.5 0.8v0.3h-1.7v-0.3zm3.7 0v0.3h-1.7v-0.3z"/>
			<path fill-rule="evenodd" class="s0" d="m32.6 14.3v1h-0.3v-1z"/>
			<path fill-rule="evenodd" class="s0" d="m32.6 14.3v1h-0.3v-1z"/>
			<path fill-rule="evenodd" class="s0" d="m32.6 14.3v1h-0.3v-1zm-3.7 0v1h-0.3v-1zm2.7 0v1h-0.3v-1zm-1.6 0h0.3v1h-0.3z"/>
			<path fill-rule="evenodd" class="s0" d="m31.5 15v0.3h-1.4v-0.3zm0.1-0.8v0.3h-0.9v-0.3z"/>
			<path fill-rule="evenodd" class="s0" d="m40.8 13.4v0.4h-4.6v-0.4zm-3.6 1.6v0.3h-0.3v-0.3zm3.6 0v0.3h-0.9v-0.3zm0.8-1.6v1.9h-0.3v-1.9z"/>
			<path fill-rule="evenodd" class="s0" d="m43.1 15v0.3h-1.7v-0.3zm-3.3-0.7h0.4v1h-0.4z"/>
			<path fill-rule="evenodd" class="s0" d="m43.2 13.4v1.9h-0.3v-1.9zm-0.8 0v1.9h-0.3v-1.9zm-4.5 0.8v0.3h-1.7v-0.3zm3.6 0v0.3h-1.6v-0.3z"/>
			<path fill-rule="evenodd" class="s0" d="m40.2 14.3v1h-0.3v-1z"/>
			<path fill-rule="evenodd" class="s0" d="m40.2 14.3v1h-0.3v-1z"/>
			<path fill-rule="evenodd" class="s0" d="m40.2 14.3v1h-0.3v-1zm-3.7 0v1h-0.3v-1zm2.7 0v1h-0.3v-1zm-1.4 0v1h-0.3v-1z"/>
			<path fill-rule="evenodd" class="s0" d="m39.1 15v0.3h-1.4v-0.3zm0.1-0.8v0.3h-0.9v-0.3z"/>
			<path fill-rule="evenodd" class="s0" d="m48.4 13.4v0.4h-4.6v-0.4zm-3.6 1.6v0.3h-0.4v-0.3zm3.7 0v0.3h-1v-0.3zm0.8-1.6v1.9h-0.3v-1.9z"/>
			<path fill-rule="evenodd" class="s0" d="m50.7 15v0.3h-1.8v-0.3zm-2.9-0.7v1h-0.3v-1z"/>
			<path fill-rule="evenodd" class="s0" d="m50.8 13.4v1.9h-0.4v-1.9zm-0.7 0v1.9h-0.4v-1.9zm-4.5 0.8v0.3h-1.7v-0.3zm3.7 0v0.3h-1.7v-0.3z"/>
			<path fill-rule="evenodd" class="s0" d="m47.8 14.3v1h-0.3v-1z"/>
			<path fill-rule="evenodd" class="s0" d="m47.8 14.3v1h-0.3v-1z"/>
			<path fill-rule="evenodd" class="s0" d="m47.8 14.3v1h-0.3v-1zm-3.7 0v1h-0.4v-1zm2.7 0v1h-0.3v-1zm-1.6 0h0.3v1h-0.3z"/>
			<path fill-rule="evenodd" class="s0" d="m46.7 15v0.3h-1.4v-0.3zm0.1-0.8v0.3h-0.9v-0.3z"/>
			<path fill-rule="evenodd" class="s0" d="m55.9 13.4v0.4h-4.6v-0.4zm-3.6 1.6v0.3h-0.3v-0.3zm3.6 0v0.3h-0.9v-0.3zm0.8-1.6v1.9h-0.3v-1.9z"/>
			<path fill-rule="evenodd" class="s0" d="m58.3 15v0.3h-1.8v-0.3zm-2.9-0.7v1h-0.3v-1z"/>
			<path fill-rule="evenodd" class="s0" d="m58.3 13.4v1.9h-0.3v-1.9zm-0.8 0v1.9h-0.3v-1.9zm-4.5 0.8v0.3h-1.7v-0.3zm3.7 0v0.3h-1.7v-0.3z"/>
			<path fill-rule="evenodd" class="s0" d="m55.3 14.3v1h-0.3v-1z"/>
			<path fill-rule="evenodd" class="s0" d="m55.3 14.3v1h-0.3v-1z"/>
			<path fill-rule="evenodd" class="s0" d="m55.3 14.3v1h-0.3v-1zm-3.6 0v1h-0.4v-1zm2.6 0v1h-0.3v-1zm-1.3 0v1h-0.4v-1z"/>
			<path fill-rule="evenodd" class="s0" d="m54.3 15v0.3h-1.5v-0.3zm0.1-0.8v0.3h-0.9v-0.3z"/>
			<path fill-rule="evenodd" class="s0" d="m63.5 13.4v0.4h-4.6v-0.4zm-3.5 1.6v0.3h-0.4v-0.3zm3.6 0v0.3h-0.9v-0.3zm0.8-1.6v1.9h-0.3v-1.9z"/>
			<path fill-rule="evenodd" class="s0" d="m65.9 15v0.3h-1.8v-0.3zm-2.9-0.7v1h-0.3v-1z"/>
			<path fill-rule="evenodd" class="s0" d="m65.9 13.4v1.9h-0.3v-1.9zm-0.8 0v1.9h-0.3v-1.9zm-4.5 0.8v0.3h-1.7v-0.3zm3.7 0v0.3h-1.7v-0.3z"/>
			<path fill-rule="evenodd" class="s0" d="m62.9 14.3v1h-0.3v-1z"/>
			<path fill-rule="evenodd" class="s0" d="m62.9 14.3v1h-0.3v-1z"/>
			<path fill-rule="evenodd" class="s0" d="m62.9 14.3v1h-0.3v-1zm-3.6 0v1h-0.4v-1zm2.8 0v1h-0.4v-1zm-1.3 0v1h-0.3v-1z"/>
			<path fill-rule="evenodd" class="s0" d="m61.9 15v0.3h-1.4v-0.3zm0-0.8v0.3h-0.9v-0.3z"/>
			<path fill-rule="evenodd" class="s0" d="m-4.6 13.4v0.4h-4.6v-0.4zm-3.6 1.6v0.3h-0.3v-0.3zm3.6 0v0.3h-1v-0.3zm0.9-1.6v1.9h-0.4v-1.9z"/>
			<path fill-rule="evenodd" class="s0" d="m-2.3 15v0.3h-1.7v-0.3zm-3-0.7v1h-0.3v-1z"/>
			<path fill-rule="evenodd" class="s0" d="m-2.2 13.4v1.9h-0.3v-1.9zm-0.8 0v1.9h-0.4v-1.9zm-4.5 0.8v0.3h-1.7v-0.3zm3.7 0v0.3h-1.6v-0.3z"/>
			<path fill-rule="evenodd" class="s0" d="m-5.2 14.3v1h-0.3v-1z"/>
			<path fill-rule="evenodd" class="s0" d="m-5.2 14.3v1h-0.3v-1z"/>
			<path fill-rule="evenodd" class="s0" d="m-5.2 14.3v1h-0.3v-1zm-3.7 0v1h-0.3v-1zm2.7 0v1h-0.4v-1zm-1.3 0v1h-0.3v-1z"/>
			<path fill-rule="evenodd" class="s0" d="m-6.3 15v0.3h-1.4v-0.3zm0.1-0.8v0.3h-0.9v-0.3z"/>
			<path fill-rule="evenodd" class="s3" d="m2.1 31.8v1h-0.5v-1zm15 0v1h-0.6v-1zm-26.6 0v1h-0.5v-1zm7.6 0v1h-0.5v-1zm7.5 0v1h-0.5v-1zm3.7 0v1h-0.5v-1zm3.8 0v1h-0.6v-1zm7.6 0v1h-0.6v-1zm18.5 0h0.6v1h-0.6zm-14.6 0v1h-0.6v-1zm3.7 0v1h-0.5v-1zm3.2 0h0.6v1h-0.6zm4.4 0v1h-0.6v-1zm30.3 0v1h-0.6v-1zm-22.7 0v1h-0.6v-1zm3.8 0v1h-0.5v-1zm3.9 0v1h-0.6v-1zm3.6 0v1h-0.5v-1zm3.8 0v1h-0.5v-1zm3.8 0v1h-0.6v-1zm11.2 0v1h-0.5v-1zm-3.7 0v1h-0.5v-1zm-75.9 0v1h-0.5v-1z"/>
			<path fill-rule="evenodd" class="s4" d="m2.1 15.2v1h-0.5v-1zm15 0v1h-0.6v-1zm-26.6 0v1h-0.5v-1zm7.6 0v1h-0.5v-1zm7.5 0v1h-0.5v-1zm3.7 0v1h-0.5v-1zm3.8 0v1h-0.6v-1zm7.6 0v1h-0.6v-1zm18.5 0h0.6v1h-0.6zm-14.6 0v1h-0.6v-1zm3.7 0v1h-0.5v-1zm3.2 0h0.6v1h-0.6zm4.4 0v1h-0.6v-1zm30.3 0v1h-0.6v-1zm-22.7 0v1h-0.6v-1zm3.8 0v1h-0.5v-1zm3.9 0v1h-0.6v-1zm3.6 0v1h-0.5v-1zm3.8 0v1h-0.5v-1zm3.8 0v1h-0.6v-1zm11.2 0v1h-0.5v-1zm-3.7 0v1h-0.5v-1zm-75.9 0v1h-0.5v-1z"/>
			<path fill-rule="evenodd" class="s1" d="m34.2 18.5c0.8 1 3.3 6.4-1.4 9.9-2.3 1.6-0.9 1.7-0.8 2 3.5-1.9 4.7-4.4 4.7-6.7-0.1-2.3-1.3-4.4-2.5-5.2z"/>
			<path fill-rule="evenodd" class="s1" d="m34.7 18.3c0.9 0.5 1.6 1.2 2.2 2.1 0.5 0.8 0.9 1.8 1 2.8 0.2 1 0.1 2-0.2 3-0.3 1-0.8 1.9-1.5 2.6 2.5-0.6 5.8-8.1-1.5-10.5zm-6.9 10.5c-0.7-0.7-1.2-1.6-1.5-2.6-0.3-1-0.4-2-0.2-3 0.1-1 0.5-2 1-2.8 0.6-0.9 1.3-1.6 2.2-2.1-7.3 2.4-4 9.9-1.5 10.5z"/>
			<path fill-rule="evenodd" class="s1" d="m29.8 18.5c-0.8 1-3.3 6.4 1.4 9.9 2.3 1.6 0.9 1.7 0.8 2-3.5-1.9-4.7-4.4-4.7-6.7 0.1-2.3 1.3-4.4 2.5-5.2z"/>
			<path fill-rule="evenodd" class="s1" d="m36.5 29.9c-1.4 0-3.1-0.2-4.4-0.9 0.2 0.5 0.4 0.7 0.6 1.1 1.2 0.2 2.9 0.3 3.8-0.2zm-5 0.2c0.2-0.4 0.4-0.6 0.6-1.1-1.3 0.7-3.1 0.9-4.5 0.9 0.9 0.5 2.6 0.4 3.9 0.2zm0.5-12.1c0 0.4 2 0.8 1.8-1-0.3 0.7-1.2 0.7-1.8 0.3-0.8 0.5-1.5 0.4-1.8-0.4-0.3 1.4 1.1 1.8 1.8 1.1z"/>
			<path fill-rule="evenodd" class="s1" d="m32 31.1l0.8-0.9 0.1-11.2-0.9-0.8-0.9 0.7 0.2 11.4z"/>
		</g>
	</g>
</svg>