<svg version="1.2" xmlns="http://www.w3.org/2000/svg" viewBox="0 0 64 48" width="64" height="48"><style>.a{fill:#e30a17}.b{fill:#fff}</style><path fill-rule="evenodd" class="a" d="m64 0v48h-64v-48z"/><path fill-rule="evenodd" class="b" d="m28.5 36.7c-6.7 0-12.2-5.3-12.2-12 0-6.6 5.5-11.9 12.2-11.9 6.7 0 12.2 5.3 12.2 11.9 0 6.7-5.5 12-12.2 12z"/><path fill-rule="evenodd" class="a" d="m41.3 24.8c0 5.3-4.4 9.5-9.7 9.5-5.4 0-9.8-4.3-9.8-9.6 0-5.3 4.4-9.5 9.8-9.5 5.3 0 9.7 4.2 9.7 9.5z"/><path fill-rule="evenodd" class="b" d="m43.1 19.2l-0.1 4.4-4.2 1.1 4.1 1.5-0.1 4 2.7-3.2 4 1.4-2.3-3.4 2.8-3.4-4.3 1.2-2.6-3.7z"/></svg>