<svg version="1.2" xmlns="http://www.w3.org/2000/svg" viewBox="0 0 32 24" width="32" height="24"><style>.a{fill:#e30a17}.b{fill:#fff}</style><path fill-rule="evenodd" class="a" d="m32 0v24h-32v-24z"/><path fill-rule="evenodd" class="b" d="m14.3 18.4c-3.4 0-6.2-2.7-6.2-6 0-3.3 2.8-6 6.1-6 3.4 0 6.2 2.7 6.2 6 0 3.3-2.8 6-6.2 6z"/><path fill-rule="evenodd" class="a" d="m20.6 12.4c0 2.7-2.2 4.7-4.8 4.7-2.7 0-4.9-2.1-4.9-4.8 0-2.6 2.2-4.7 4.9-4.7 2.6 0 4.8 2.1 4.8 4.7z"/><path fill-rule="evenodd" class="b" d="m21.6 9.6l-0.1 2.2-2.1 0.6 2 0.7v2l1.3-1.6 2 0.7-1.1-1.7 1.4-1.7-2.1 0.6-1.4-1.8z"/></svg>